<svg width="329" height="120" viewBox="0 0 329 120" fill="none" xmlns="http://www.w3.org/2000/svg">
<g clip-path="url(#clip0_475_2)">
<path d="M94.7815 19.201C94.8825 18.864 94.9161 18.7208 94.9161 18.7208C96.8098 11.652 97.3568 5.25732 97.3063 0H89.7403C86.862 13.6657 77.6296 35.8492 49.6042 55.5894C34.5058 66.222 24.8273 77.2759 18.65 87.6304C12.9607 79.8961 9.58587 70.3503 9.58587 60.0042C9.58587 34.2568 30.4324 13.3792 56.1603 13.3792C58.8366 13.3792 61.454 13.6151 64.004 14.0532C65.4179 10.8011 66.4952 7.7259 67.3115 4.90346C63.7095 4.17889 59.9811 3.79134 56.1603 3.79134C25.1387 3.78291 0 28.949 0 59.9958C0 74.1585 5.25161 87.0912 13.8865 96.974C13.5582 97.6901 13.3563 98.1451 13.3563 98.1451C13.2469 98.4147 13.1459 98.6843 13.0533 98.9286C9.90568 106.958 8.72744 114.187 8.42446 119.992H16.4029C20.0554 107.497 30.1715 87.4451 57.5994 68.1345C74.8607 55.977 84.8421 42.8927 90.4977 30.7941C90.4977 30.7941 90.7755 30.2043 91.1794 29.2775C98.3667 37.4837 102.726 48.2258 102.726 59.9958C102.726 85.7432 81.8797 106.621 56.1518 106.621C51.9438 106.621 47.862 106.048 43.9822 104.995C42.257 108.087 40.8851 111.01 39.7911 113.723C39.7911 113.749 39.7911 113.765 39.7826 113.791C44.9585 115.366 50.4542 116.217 56.1518 116.217C87.165 116.217 112.312 91.051 112.312 59.9958C112.312 43.9289 105.579 29.4376 94.7815 19.1926V19.201Z" fill="url(#paint0_linear_475_2)"/>
<path d="M148.939 24.3824C153.315 24.3824 156.682 25.1576 159.021 26.6909C161.369 28.2328 162.539 30.7603 162.539 34.2652C162.539 37.7701 161.352 40.3566 158.979 41.9237C156.606 43.4908 153.214 44.2743 148.804 44.2743H146.725V54.1149H140.11V25.1407C141.549 24.8627 143.073 24.6605 144.689 24.5509C146.296 24.4414 147.71 24.3824 148.922 24.3824H148.939ZM149.36 30.0273C148.88 30.0273 148.409 30.0442 147.937 30.0694C147.474 30.0947 147.07 30.1284 146.725 30.1537V38.6379H148.804C151.093 38.6379 152.819 38.3261 153.972 37.7027C155.133 37.0792 155.705 35.925 155.705 34.2231C155.705 33.4058 155.554 32.7234 155.259 32.1842C154.965 31.645 154.535 31.2153 153.988 30.8867C153.441 30.5581 152.768 30.3391 151.977 30.2043C151.186 30.0694 150.311 30.0105 149.351 30.0105L149.36 30.0273Z" fill="white"/>
<path d="M174.347 31.2069C176.215 31.2069 177.764 31.4175 179.009 31.8472C180.255 32.2685 181.248 32.8835 181.997 33.6755C182.746 34.4675 183.276 35.4279 183.588 36.5569C183.899 37.6859 184.051 38.9497 184.051 40.3314V53.4831C183.15 53.6853 181.888 53.9128 180.28 54.1824C178.673 54.452 176.72 54.5868 174.431 54.5868C172.992 54.5868 171.687 54.4604 170.509 54.2077C169.339 53.9549 168.329 53.5337 167.479 52.9523C166.629 52.371 165.981 51.6127 165.527 50.686C165.072 49.7508 164.845 48.6049 164.845 47.2485C164.845 45.892 165.106 44.8473 165.628 43.9374C166.15 43.0359 166.848 42.3113 167.724 41.7721C168.599 41.2329 169.6 40.8453 170.728 40.601C171.856 40.3651 173.034 40.2387 174.246 40.2387C175.062 40.2387 175.794 40.2724 176.426 40.3482C177.065 40.4156 177.579 40.5083 177.974 40.6263V40.0281C177.974 38.9497 177.646 38.0903 176.998 37.4415C176.35 36.7928 175.222 36.4642 173.606 36.4642C172.529 36.4642 171.469 36.5401 170.425 36.7001C169.381 36.8518 168.473 37.0793 167.715 37.3573L166.907 32.2685C167.277 32.159 167.732 32.0326 168.287 31.9062C168.843 31.7798 169.44 31.6703 170.088 31.5692C170.736 31.4681 171.427 31.3838 172.142 31.3164C172.866 31.249 173.589 31.2069 174.322 31.2069H174.347ZM174.852 49.7002C175.475 49.7002 176.064 49.6834 176.628 49.6581C177.192 49.6328 177.646 49.5907 177.983 49.5317V44.7378C177.73 44.6788 177.343 44.6282 176.838 44.5693C176.333 44.5103 175.862 44.485 175.441 44.485C174.852 44.485 174.288 44.5187 173.766 44.5945C173.244 44.6619 172.782 44.7967 172.386 44.9989C171.99 45.2012 171.679 45.4623 171.452 45.8078C171.225 46.1448 171.115 46.5745 171.115 47.08C171.115 48.0741 171.443 48.7566 172.108 49.1357C172.773 49.5148 173.682 49.7086 174.843 49.7086L174.852 49.7002Z" fill="white"/>
<path d="M188.923 26.2444L195.235 25.225V31.7966H202.818V37.0539H195.235V44.9062C195.235 46.2374 195.471 47.299 195.934 48.0909C196.397 48.8829 197.34 49.2789 198.753 49.2789C199.435 49.2789 200.134 49.2115 200.849 49.0851C201.573 48.9587 202.229 48.7818 202.818 48.5543L203.71 53.4746C202.945 53.7864 202.103 54.056 201.169 54.2835C200.235 54.5109 199.09 54.6205 197.735 54.6205C196.01 54.6205 194.587 54.3846 193.451 53.9212C192.324 53.4578 191.415 52.8006 190.741 51.9665C190.06 51.1324 189.588 50.1214 189.319 48.9335C189.05 47.7455 188.915 46.4312 188.915 44.9905V26.236L188.923 26.2444Z" fill="white"/>
<path d="M208.146 54.115V22.2172L214.458 21.1978V31.8893C214.878 31.7461 215.426 31.6113 216.09 31.4849C216.755 31.3585 217.395 31.2911 218.018 31.2911C219.827 31.2911 221.334 31.5355 222.529 32.0326C223.732 32.5296 224.692 33.2289 225.407 34.1304C226.131 35.0403 226.636 36.1103 226.93 37.3573C227.225 38.6042 227.376 39.9859 227.376 41.5109V54.1066H221.064V42.2692C221.064 40.2303 220.803 38.7896 220.282 37.9386C219.76 37.0877 218.792 36.6664 217.378 36.6664C216.814 36.6664 216.284 36.717 215.787 36.8181C215.291 36.9192 214.845 37.0203 214.449 37.1382V54.1066H208.137L208.146 54.115Z" fill="white"/>
<path d="M247.289 41.3087C246.725 43.4571 246.119 45.5971 245.488 47.7118C244.848 49.835 244.183 51.9665 243.476 54.115H238.561C238.048 52.927 237.501 51.5116 236.903 49.8687C236.306 48.2258 235.691 46.4396 235.052 44.5018C234.412 42.564 233.764 40.5167 233.099 38.3514C232.434 36.1862 231.786 34.004 231.164 31.7966H237.821C238.048 32.8161 238.292 33.9282 238.57 35.1246C238.839 36.3294 239.125 37.5679 239.42 38.8401C239.723 40.1123 240.034 41.3929 240.362 42.682C240.691 43.971 241.019 45.2095 241.364 46.3975C241.734 45.1506 242.088 43.8784 242.441 42.5809C242.795 41.2834 243.131 40.0028 243.459 38.739C243.788 37.4836 244.099 36.262 244.394 35.0909C244.688 33.9198 244.949 32.8245 245.176 31.8051H249.755C249.982 32.8245 250.234 33.9198 250.52 35.0909C250.798 36.262 251.101 37.4836 251.413 38.739C251.724 39.9943 252.052 41.275 252.389 42.5809C252.725 43.8784 253.079 45.159 253.449 46.3975C253.794 45.2095 254.131 43.971 254.476 42.682C254.813 41.3929 255.132 40.1123 255.435 38.8401C255.73 37.5679 256.016 36.3294 256.285 35.1246C256.555 33.9198 256.807 32.8161 257.034 31.7966H263.607C262.985 34.004 262.337 36.1862 261.672 38.3514C261.007 40.5167 260.35 42.564 259.719 44.5018C259.08 46.4396 258.457 48.2258 257.851 49.8687C257.245 51.5116 256.681 52.927 256.176 54.115H251.261C250.554 51.9665 249.864 49.8265 249.182 47.7118C248.501 45.5887 247.886 43.4571 247.314 41.3087H247.289Z" fill="white"/>
<path d="M275.541 31.2069C277.41 31.2069 278.958 31.4175 280.204 31.8472C281.449 32.2685 282.442 32.8835 283.191 33.6755C283.94 34.4675 284.471 35.4279 284.782 36.5569C285.093 37.6859 285.245 38.9497 285.245 40.3314V53.4831C284.344 53.6853 283.082 53.9128 281.475 54.1824C279.867 54.452 277.915 54.5868 275.625 54.5868C274.186 54.5868 272.882 54.4604 271.704 54.2077C270.534 53.9549 269.524 53.5337 268.674 52.9523C267.824 52.371 267.176 51.6127 266.721 50.686C266.267 49.7508 266.04 48.6049 266.04 47.2485C266.04 45.892 266.3 44.8473 266.822 43.9374C267.344 43.0359 268.043 42.3113 268.918 41.7721C269.793 41.2329 270.795 40.8453 271.922 40.601C273.05 40.3651 274.228 40.2387 275.44 40.2387C276.257 40.2387 276.989 40.2724 277.62 40.3482C278.26 40.4156 278.773 40.5083 279.169 40.6263V40.0281C279.169 38.9497 278.84 38.0903 278.192 37.4415C277.544 36.7928 276.417 36.4642 274.801 36.4642C273.723 36.4642 272.663 36.5401 271.619 36.7001C270.576 36.8518 269.667 37.0793 268.909 37.3573L268.101 32.2685C268.472 32.159 268.926 32.0326 269.482 31.9062C270.037 31.7798 270.635 31.6703 271.283 31.5692C271.931 31.4681 272.621 31.3838 273.336 31.3164C274.06 31.249 274.784 31.2069 275.516 31.2069H275.541ZM276.046 49.7002C276.669 49.7002 277.258 49.6834 277.822 49.6581C278.386 49.6328 278.84 49.5907 279.177 49.5317V44.7378C278.925 44.6788 278.537 44.6282 278.032 44.5693C277.527 44.5103 277.056 44.485 276.635 44.485C276.046 44.485 275.482 44.5187 274.961 44.5945C274.439 44.6619 273.976 44.7967 273.58 44.9989C273.185 45.2012 272.873 45.4623 272.646 45.8078C272.419 46.1448 272.31 46.5745 272.31 47.08C272.31 48.0741 272.638 48.7566 273.303 49.1357C273.967 49.5148 274.876 49.7086 276.038 49.7086L276.046 49.7002Z" fill="white"/>
<path d="M310.443 31.8051C309.172 36.1019 307.834 40.1376 306.453 43.8952C305.065 47.6528 303.55 51.3094 301.909 54.8395C301.311 56.1117 300.722 57.1902 300.125 58.0832C299.527 58.9763 298.879 59.7093 298.172 60.2906C297.465 60.872 296.666 61.2932 295.774 61.5628C294.881 61.8324 293.846 61.9672 292.651 61.9672C291.658 61.9672 290.749 61.8746 289.916 61.6892C289.083 61.5039 288.393 61.3016 287.854 61.0742L288.957 56.0275C289.605 56.255 290.185 56.4066 290.69 56.4909C291.195 56.5751 291.734 56.6172 292.306 56.6172C293.434 56.6172 294.309 56.3139 294.915 55.7073C295.521 55.1007 296.043 54.2582 296.464 53.1798C295.024 50.3489 293.577 47.1726 292.138 43.6593C290.699 40.1376 289.344 36.1862 288.064 31.8051H294.764C295.05 32.9088 295.378 34.1051 295.765 35.3942C296.152 36.6832 296.556 37.9807 296.977 39.295C297.406 40.6094 297.835 41.89 298.273 43.1369C298.711 44.3839 299.131 45.5128 299.527 46.5323C299.897 45.5128 300.276 44.3839 300.68 43.1369C301.076 41.89 301.471 40.6094 301.85 39.295C302.229 37.9807 302.599 36.6748 302.952 35.3942C303.306 34.1051 303.626 32.9088 303.912 31.8051H310.443Z" fill="white"/>
<path d="M319.549 49.5823C320.71 49.5823 321.526 49.4727 322.006 49.2452C322.486 49.0178 322.73 48.5797 322.73 47.9309C322.73 47.4254 322.419 46.9789 321.796 46.5913C321.173 46.2122 320.23 45.7825 318.96 45.2938C317.975 44.9231 317.074 44.544 316.266 44.148C315.458 43.752 314.777 43.2802 314.213 42.7241C313.649 42.1765 313.211 41.5109 312.9 40.7526C312.589 39.986 312.437 39.0676 312.437 37.9976C312.437 35.9082 313.211 34.2484 314.768 33.0352C316.325 31.8219 318.455 31.2069 321.165 31.2069C322.52 31.2069 323.824 31.3249 325.061 31.5692C326.307 31.8135 327.291 32.0747 328.024 32.3527L326.921 37.273C326.189 37.0203 325.389 36.7928 324.523 36.5906C323.664 36.3968 322.696 36.2957 321.619 36.2957C319.641 36.2957 318.657 36.8434 318.657 37.9471C318.657 38.1998 318.699 38.4273 318.783 38.6295C318.867 38.8317 319.035 39.0171 319.288 39.2024C319.54 39.3878 319.885 39.59 320.323 39.8006C320.761 40.0112 321.316 40.2471 321.998 40.5083C323.378 41.0223 324.523 41.5278 325.431 42.0249C326.332 42.5219 327.047 43.0612 327.569 43.6425C328.091 44.2238 328.461 44.8641 328.672 45.5719C328.882 46.2796 328.991 47.0968 328.991 48.0236C328.991 50.2226 328.167 51.8908 326.509 53.0197C324.859 54.1487 322.52 54.7132 319.498 54.7132C317.52 54.7132 315.871 54.5447 314.558 54.2077C313.245 53.8707 312.336 53.5842 311.823 53.3567L312.883 48.2258C313.96 48.6471 315.055 48.9841 316.191 49.22C317.318 49.4643 318.438 49.5823 319.54 49.5823H319.549Z" fill="white"/>
<path d="M159.829 98.204C159.501 97.1845 159.147 96.1314 158.777 95.0529C158.398 93.9745 158.028 92.9045 157.649 91.8345H146.178C145.808 92.9045 145.438 93.9829 145.067 95.0614C144.697 96.1398 144.344 97.1845 144.024 98.204H137.156C138.259 95.0361 139.311 92.1126 140.304 89.4249C141.297 86.7373 142.265 84.2097 143.216 81.8338C144.167 79.4579 145.101 77.2 146.018 75.0684C146.936 72.9368 147.895 70.8474 148.888 68.8085H155.158C156.126 70.8474 157.077 72.9284 158.011 75.0684C158.945 77.2084 159.888 79.4579 160.839 81.8338C161.79 84.2097 162.758 86.7373 163.759 89.4249C164.752 92.1126 165.804 95.0361 166.907 98.204H159.829ZM151.884 75.4644C151.733 75.8941 151.522 76.4754 151.236 77.2084C150.95 77.9414 150.63 78.7923 150.268 79.7528C149.907 80.7133 149.503 81.7748 149.048 82.9375C148.602 84.0918 148.148 85.3134 147.685 86.5772H156.084C155.638 85.305 155.2 84.0833 154.779 82.9207C154.359 81.758 153.955 80.6964 153.576 79.7359C153.197 78.7755 152.861 77.9245 152.574 77.1915C152.288 76.4585 152.061 75.8856 151.884 75.4644Z" fill="white"/>
<path d="M179.346 98.6336C177.511 98.6084 176.022 98.4062 174.877 98.0439C173.732 97.6816 172.832 97.1592 172.167 96.4937C171.502 95.8281 171.048 95.0192 170.812 94.0756C170.568 93.132 170.45 92.062 170.45 90.874V66.3146L176.762 65.2952V89.6018C176.762 90.1663 176.804 90.6803 176.888 91.1268C176.973 91.5818 177.133 91.9609 177.377 92.2726C177.621 92.5844 177.966 92.8371 178.412 93.0393C178.866 93.2415 179.472 93.3679 180.238 93.4185L179.346 98.6336Z" fill="white"/>
<path d="M192.929 98.6336C191.095 98.6084 189.605 98.4062 188.461 98.0439C187.316 97.6816 186.415 97.1592 185.751 96.4937C185.086 95.8281 184.631 95.0192 184.396 94.0756C184.152 93.132 184.034 92.062 184.034 90.874V66.3146L190.346 65.2952V89.6018C190.346 90.1663 190.388 90.6803 190.472 91.1268C190.556 91.5818 190.716 91.9609 190.96 92.2726C191.204 92.5844 191.549 92.8371 191.995 93.0393C192.45 93.2415 193.056 93.3679 193.822 93.4185L192.929 98.6336Z" fill="white"/>
<path d="M205.351 69.4404C205.351 70.603 204.973 71.513 204.232 72.1786C203.483 72.8441 202.599 73.1727 201.581 73.1727C200.563 73.1727 199.679 72.8441 198.93 72.1786C198.181 71.513 197.811 70.603 197.811 69.4404C197.811 68.2777 198.181 67.3678 198.93 66.7022C199.679 66.0366 200.563 65.708 201.581 65.708C202.599 65.708 203.483 66.045 204.232 66.7022C204.981 67.3678 205.351 68.2777 205.351 69.4404ZM204.754 98.204H198.442V75.8856H204.754V98.204Z" fill="white"/>
<path d="M218.893 75.2959C220.761 75.2959 222.31 75.5065 223.555 75.9362C224.801 76.3575 225.794 76.9725 226.543 77.7561C227.292 78.548 227.822 79.5085 228.134 80.6375C228.445 81.7664 228.597 83.0302 228.597 84.412V97.5637C227.696 97.7659 226.434 97.9934 224.826 98.263C223.219 98.5326 221.266 98.6674 218.977 98.6674C217.538 98.6674 216.233 98.541 215.055 98.2882C213.885 98.0355 212.875 97.6142 212.025 97.0329C211.175 96.4516 210.527 95.6933 210.073 94.7665C209.618 93.8313 209.391 92.6855 209.391 91.329C209.391 89.9726 209.652 88.9279 210.174 88.0179C210.696 87.1164 211.394 86.3919 212.269 85.8527C213.145 85.3135 214.146 84.9259 215.274 84.69C216.402 84.4457 217.58 84.3277 218.792 84.3277C219.608 84.3277 220.34 84.3614 220.972 84.4372C221.611 84.5046 222.125 84.5973 222.52 84.7153V84.1255C222.52 83.0471 222.192 82.1877 221.544 81.539C220.896 80.8902 219.768 80.5616 218.152 80.5616C217.075 80.5616 216.015 80.6375 214.971 80.7975C213.927 80.9576 213.018 81.1767 212.261 81.4547L211.453 76.3659C211.823 76.2564 212.278 76.13 212.833 76.0036C213.389 75.8772 213.986 75.7593 214.634 75.6666C215.282 75.5655 215.972 75.4813 216.688 75.4139C217.412 75.3464 218.135 75.3043 218.868 75.3043L218.893 75.2959ZM219.398 93.7892C220.021 93.7892 220.61 93.7723 221.174 93.7471C221.737 93.7218 222.192 93.6797 222.529 93.6207V88.8268C222.276 88.7678 221.889 88.7172 221.384 88.6583C220.879 88.5993 220.408 88.574 219.987 88.574C219.398 88.574 218.834 88.6077 218.312 88.6835C217.79 88.7509 217.327 88.8857 216.932 89.0879C216.536 89.2901 216.225 89.5513 215.998 89.8968C215.77 90.2338 215.661 90.6634 215.661 91.169C215.661 92.1547 215.989 92.8456 216.654 93.2247C217.319 93.6038 218.228 93.7976 219.389 93.7976L219.398 93.7892Z" fill="white"/>
<path d="M232.855 76.6523C233.932 76.3406 235.313 76.0541 237.004 75.7845C238.696 75.5149 240.48 75.3801 242.34 75.3801C244.2 75.3801 245.807 75.6245 247.061 76.1215C248.315 76.6186 249.317 77.3179 250.049 78.2194C250.781 79.1209 251.303 80.1993 251.615 81.4463C251.926 82.6932 252.077 84.0749 252.077 85.5999V98.204H245.765V86.3666C245.765 84.3277 245.496 82.887 244.957 82.036C244.419 81.1851 243.417 80.7638 241.945 80.7638C241.49 80.7638 241.01 80.7807 240.505 80.8312C240 80.8818 239.546 80.9239 239.15 80.9829V98.204H232.838V76.6523H232.855Z" fill="white"/>
<path d="M256.126 87.049C256.126 85.4398 256.387 83.9149 256.908 82.491C257.43 81.0672 258.188 79.8202 259.172 78.7587C260.157 77.6971 261.36 76.8546 262.774 76.2311C264.188 75.6076 265.796 75.2959 267.605 75.2959C268.792 75.2959 269.877 75.4054 270.871 75.6161C271.855 75.8267 272.823 76.13 273.749 76.526L272.436 81.5727C271.847 81.3452 271.19 81.1514 270.483 80.9745C269.776 80.806 268.985 80.7217 268.11 80.7217C266.242 80.7217 264.853 81.3031 263.936 82.4573C263.018 83.6116 262.555 85.1449 262.555 87.0406C262.555 89.0458 262.985 90.6045 263.852 91.7082C264.71 92.8119 266.216 93.3595 268.363 93.3595C269.128 93.3595 269.945 93.2921 270.82 93.1489C271.695 93.0056 272.503 92.7782 273.235 92.4664L274.128 97.6395C273.395 97.9512 272.478 98.2208 271.375 98.4483C270.273 98.6758 269.061 98.7853 267.731 98.7853C265.695 98.7853 263.944 98.482 262.48 97.8754C261.007 97.2688 259.803 96.4431 258.852 95.39C257.901 94.3453 257.211 93.1067 256.774 91.6745C256.336 90.2506 256.117 88.7004 256.117 87.0322L256.126 87.049Z" fill="white"/>
<path d="M277.275 87.2175C277.275 85.2376 277.578 83.502 278.184 82.0192C278.79 80.5364 279.589 79.2979 280.582 78.3037C281.567 77.3179 282.712 76.5681 283.991 76.0542C285.279 75.5487 286.6 75.2875 287.955 75.2875C291.119 75.2875 293.619 76.2564 295.454 78.1942C297.288 80.132 298.206 82.9797 298.206 86.7457C298.206 87.1164 298.189 87.5124 298.164 87.959C298.138 88.3971 298.105 88.7846 298.079 89.1301H283.755C283.898 90.4275 284.504 91.4638 285.582 92.2305C286.659 92.9972 288.098 93.3764 289.907 93.3764C291.069 93.3764 292.205 93.2668 293.316 93.0562C294.435 92.8456 295.344 92.5844 296.051 92.2727L296.901 97.4036C296.564 97.5721 296.11 97.7406 295.546 97.9091C294.982 98.0776 294.351 98.2293 293.661 98.3556C292.971 98.482 292.23 98.5916 291.439 98.6758C290.648 98.7601 289.857 98.8022 289.066 98.8022C287.063 98.8022 285.312 98.5073 283.831 97.9091C282.35 97.3194 281.121 96.5021 280.145 95.4658C279.169 94.4295 278.453 93.2079 277.982 91.7924C277.519 90.377 277.283 88.852 277.283 87.2091L277.275 87.2175ZM292.104 84.7995C292.079 84.2603 291.986 83.7379 291.826 83.2324C291.666 82.7269 291.431 82.272 291.102 81.876C290.774 81.48 290.37 81.1514 289.874 80.8987C289.377 80.6459 288.763 80.5195 288.031 80.5195C287.298 80.5195 286.718 80.6375 286.204 80.8818C285.691 81.1261 285.27 81.4379 284.934 81.8338C284.597 82.2298 284.336 82.6932 284.151 83.2156C283.966 83.7379 283.831 84.2687 283.747 84.8079H292.096L292.104 84.7995Z" fill="white"/>
</g>
<defs>
<linearGradient id="paint0_linear_475_2" x1="2.32283" y1="113.892" x2="106.812" y2="9.51603" gradientUnits="userSpaceOnUse">
<stop offset="0.17" stop-color="#00DAE5"/>
<stop offset="1" stop-color="#0C4CE9"/>
</linearGradient>
<clipPath id="clip0_475_2">
<rect width="329" height="120" fill="white"/>
</clipPath>
</defs>
</svg>
