<svg xmlns="http://www.w3.org/2000/svg" width="329" height="120" fill="none"><g clip-path="url(#a)"><path fill="url(#b)" d="M94.781 19.201c.101-.337.135-.48.135-.48A69.738 69.738 0 0 0 97.306 0H89.74c-2.878 13.666-12.11 35.85-40.136 55.59C34.506 66.221 24.827 77.275 18.65 87.63a46.456 46.456 0 0 1-9.064-27.626c0-25.747 20.846-46.625 46.574-46.625 2.677 0 5.294.236 7.844.674a75.77 75.77 0 0 0 3.307-9.15 56.498 56.498 0 0 0-11.15-1.112C25.138 3.783 0 28.95 0 59.996 0 74.159 5.252 87.09 13.886 96.974c-.328.716-.53 1.171-.53 1.171-.11.27-.21.54-.303.784-3.147 8.029-4.326 15.258-4.629 21.063h7.979c3.652-12.495 13.769-32.547 41.196-51.858 17.262-12.157 27.243-25.241 32.899-37.34 0 0 .277-.59.681-1.517 7.188 8.207 11.547 18.949 11.547 30.719 0 25.747-20.846 46.625-46.574 46.625-4.208 0-8.29-.573-12.17-1.626a77.067 77.067 0 0 0-4.19 8.728c0 .026 0 .042-.01.068a56.143 56.143 0 0 0 16.37 2.426c31.013 0 56.16-25.166 56.16-56.221 0-16.067-6.733-30.558-17.53-40.803v.008Z"/><path fill="#fff" d="M148.939 24.382c4.376 0 7.743.776 10.082 2.309 2.348 1.542 3.518 4.07 3.518 7.574 0 3.505-1.187 6.092-3.56 7.659-2.373 1.567-5.765 2.35-10.175 2.35h-2.079v9.84h-6.615V25.142a37.48 37.48 0 0 1 4.579-.59 63.542 63.542 0 0 1 4.233-.169h.017Zm.421 5.645c-.48 0-.951.017-1.423.042-.463.026-.867.06-1.212.085v8.484h2.079c2.289 0 4.015-.312 5.168-.935 1.161-.624 1.733-1.778 1.733-3.48 0-.817-.151-1.5-.446-2.039a3.413 3.413 0 0 0-1.271-1.297c-.547-.329-1.22-.548-2.011-.683-.791-.135-1.666-.194-2.626-.194l.009.017ZM174.347 31.207c1.868 0 3.417.21 4.662.64 1.246.422 2.239 1.036 2.988 1.828.749.793 1.279 1.753 1.591 2.882.311 1.129.463 2.393.463 3.774v13.152c-.901.202-2.163.43-3.771.7-1.607.269-3.56.404-5.849.404-1.439 0-2.744-.127-3.922-.38-1.17-.252-2.18-.673-3.03-1.255a5.774 5.774 0 0 1-1.952-2.266c-.455-.935-.682-2.081-.682-3.438 0-1.356.261-2.4.783-3.31a6.074 6.074 0 0 1 2.096-2.166c.875-.54 1.876-.927 3.004-1.171a17.181 17.181 0 0 1 3.518-.362c.816 0 1.548.033 2.18.11.639.067 1.153.16 1.548.277v-.598c0-1.078-.328-1.938-.976-2.587-.648-.648-1.776-.977-3.392-.977-1.077 0-2.137.076-3.181.236-1.044.152-1.952.38-2.71.657l-.808-5.088c.37-.11.825-.236 1.38-.363a26.753 26.753 0 0 1 1.801-.337 34.281 34.281 0 0 1 2.054-.253c.724-.067 1.447-.11 2.18-.11h.025Zm.505 18.493c.623 0 1.212-.017 1.776-.042a11.139 11.139 0 0 0 1.355-.126v-4.794c-.253-.06-.64-.11-1.145-.169a12.112 12.112 0 0 0-1.397-.084c-.589 0-1.153.034-1.675.11a4.206 4.206 0 0 0-1.38.404 2.365 2.365 0 0 0-.934.809c-.227.337-.337.767-.337 1.272 0 .994.328 1.677.993 2.056s1.574.573 2.735.573l.009-.009ZM188.923 26.244l6.312-1.019v6.572h7.583v5.257h-7.583v7.852c0 1.331.236 2.393.699 3.185.463.792 1.406 1.188 2.819 1.188.682 0 1.381-.068 2.096-.194.724-.126 1.38-.303 1.969-.53l.892 4.92c-.765.311-1.607.581-2.541.808-.934.228-2.079.337-3.434.337-1.725 0-3.148-.235-4.284-.699-1.127-.463-2.036-1.12-2.71-1.954-.681-.835-1.153-1.846-1.422-3.033-.269-1.188-.404-2.503-.404-3.944V26.236l.008.008ZM208.146 54.115V22.217l6.312-1.02V31.89c.42-.143.968-.278 1.632-.404a10.314 10.314 0 0 1 1.928-.194c1.809 0 3.316.244 4.511.742 1.203.497 2.163 1.196 2.878 2.097.724.91 1.229 1.98 1.523 3.227.295 1.247.446 2.629.446 4.154v12.596h-6.312V42.269c0-2.039-.261-3.48-.782-4.33-.522-.851-1.49-1.273-2.904-1.273-.564 0-1.094.051-1.591.152-.496.101-.942.202-1.338.32v16.969h-6.312l.009.008ZM247.289 41.309a200.33 200.33 0 0 1-1.801 6.403 266.56 266.56 0 0 1-2.012 6.403h-4.915c-.513-1.188-1.06-2.603-1.658-4.246a190.056 190.056 0 0 1-1.851-5.367 308.084 308.084 0 0 1-1.953-6.15 292.738 292.738 0 0 1-1.935-6.555h6.657c.227 1.02.471 2.131.749 3.328.269 1.204.555 2.443.85 3.715.303 1.272.614 2.553.942 3.842.329 1.289.657 2.527 1.002 3.715.37-1.246.724-2.519 1.077-3.816.354-1.298.69-2.578 1.018-3.842.329-1.255.64-2.477.935-3.648.294-1.171.555-2.267.782-3.286h4.579c.227 1.02.479 2.115.765 3.286a362.1 362.1 0 0 0 .893 3.648c.311 1.255.639 2.536.976 3.842.336 1.297.69 2.578 1.06 3.816.345-1.188.682-2.426 1.027-3.715.337-1.29.656-2.57.959-3.842.295-1.272.581-2.51.85-3.715.27-1.205.522-2.309.749-3.328h6.573c-.622 2.207-1.27 4.39-1.935 6.554a380.583 380.583 0 0 1-1.953 6.15 163.434 163.434 0 0 1-1.868 5.368 94.655 94.655 0 0 1-1.675 4.246h-4.915c-.707-2.148-1.397-4.288-2.079-6.403a132.757 132.757 0 0 1-1.868-6.403h-.025ZM275.541 31.207c1.869 0 3.417.21 4.663.64 1.245.422 2.238 1.036 2.987 1.828.749.793 1.28 1.753 1.591 2.882.311 1.129.463 2.393.463 3.774v13.152c-.901.202-2.163.43-3.77.7-1.608.269-3.56.404-5.85.404-1.439 0-2.743-.127-3.921-.38-1.17-.252-2.18-.673-3.03-1.255a5.784 5.784 0 0 1-1.953-2.266c-.454-.935-.681-2.081-.681-3.438 0-1.356.26-2.4.782-3.31a6.082 6.082 0 0 1 2.096-2.166c.875-.54 1.877-.927 3.004-1.171a17.181 17.181 0 0 1 3.518-.362c.817 0 1.549.033 2.18.11.64.067 1.153.16 1.549.277v-.598c0-1.078-.329-1.938-.977-2.587-.648-.648-1.775-.977-3.391-.977-1.078 0-2.138.076-3.182.236-1.043.152-1.952.38-2.71.657l-.808-5.088c.371-.11.825-.236 1.381-.363a26.635 26.635 0 0 1 1.801-.337 34.245 34.245 0 0 1 2.053-.253c.724-.067 1.448-.11 2.18-.11h.025Zm.505 18.493c.623 0 1.212-.017 1.776-.042a11.139 11.139 0 0 0 1.355-.126v-4.794c-.252-.06-.64-.11-1.145-.169a12.112 12.112 0 0 0-1.397-.084c-.589 0-1.153.034-1.674.11a4.212 4.212 0 0 0-1.381.404c-.395.202-.707.463-.934.809-.227.337-.336.767-.336 1.272 0 .994.328 1.677.993 2.056.664.379 1.573.573 2.735.573l.008-.009ZM310.443 31.805a197.488 197.488 0 0 1-3.99 12.09 145.92 145.92 0 0 1-4.544 10.944c-.598 1.273-1.187 2.351-1.784 3.244-.598.893-1.246 1.626-1.953 2.208a6.85 6.85 0 0 1-2.398 1.272c-.893.27-1.928.404-3.123.404-.993 0-1.902-.092-2.735-.278-.833-.185-1.523-.387-2.062-.615l1.103-5.046c.648.227 1.228.379 1.733.463a9.831 9.831 0 0 0 1.616.126c1.128 0 2.003-.303 2.609-.91.606-.606 1.128-1.449 1.549-2.527-1.44-2.831-2.887-6.007-4.326-9.52-1.439-3.522-2.794-7.474-4.074-11.855h6.7c.286 1.104.614 2.3 1.001 3.59.387 1.288.791 2.586 1.212 3.9a182.02 182.02 0 0 0 1.296 3.842c.438 1.247.858 2.376 1.254 3.395.37-1.02.749-2.148 1.153-3.395.396-1.247.791-2.528 1.17-3.842.379-1.314.749-2.62 1.102-3.9.354-1.29.674-2.486.96-3.59h6.531ZM319.549 49.582c1.161 0 1.977-.11 2.457-.337.48-.227.724-.665.724-1.314 0-.506-.311-.952-.934-1.34-.623-.379-1.566-.809-2.836-1.297-.985-.37-1.886-.75-2.694-1.146-.808-.396-1.489-.868-2.053-1.424a5.774 5.774 0 0 1-1.313-1.971c-.311-.767-.463-1.685-.463-2.755 0-2.09.774-3.75 2.331-4.963s3.687-1.828 6.397-1.828c1.355 0 2.659.118 3.896.362 1.246.245 2.23.506 2.963.784l-1.103 4.92a24.293 24.293 0 0 0-2.398-.682c-.859-.194-1.827-.295-2.904-.295-1.978 0-2.962.547-2.962 1.651 0 .253.042.48.126.682.084.203.252.388.505.573a6.62 6.62 0 0 0 1.035.599c.438.21.993.446 1.675.707 1.38.514 2.525 1.02 3.433 1.517.901.497 1.616 1.036 2.138 1.617a5.009 5.009 0 0 1 1.103 1.93c.21.708.319 1.525.319 2.452 0 2.199-.824 3.867-2.482 4.996-1.65 1.129-3.989 1.693-7.011 1.693-1.978 0-3.627-.168-4.94-.505-1.313-.337-2.222-.624-2.735-.851l1.06-5.131a20.48 20.48 0 0 0 3.308.994 15.79 15.79 0 0 0 3.349.362h.009ZM159.829 98.204c-.328-1.02-.682-2.073-1.052-3.151-.379-1.078-.749-2.148-1.128-3.218h-11.471c-.37 1.07-.74 2.148-1.111 3.226-.37 1.079-.723 2.123-1.043 3.143h-6.868a494.534 494.534 0 0 1 3.148-8.78 304.017 304.017 0 0 1 2.912-7.59 287.813 287.813 0 0 1 2.802-6.766 148.014 148.014 0 0 1 2.87-6.26h6.27c.968 2.04 1.919 4.12 2.853 6.26.934 2.14 1.877 4.39 2.828 6.766a337.733 337.733 0 0 1 2.92 7.59 494.534 494.534 0 0 1 3.148 8.78h-7.078Zm-7.945-22.74c-.151.43-.362 1.011-.648 1.744-.286.733-.606 1.584-.968 2.545-.361.96-.765 2.022-1.22 3.184-.446 1.155-.9 2.376-1.363 3.64h8.399a377.746 377.746 0 0 0-1.305-3.656c-.42-1.163-.824-2.225-1.203-3.185-.379-.96-.715-1.812-1.002-2.544a78.342 78.342 0 0 0-.69-1.728ZM179.346 98.634c-1.835-.026-3.324-.228-4.469-.59-1.145-.362-2.045-.885-2.71-1.55a5.116 5.116 0 0 1-1.355-2.418c-.244-.944-.362-2.014-.362-3.202v-24.56l6.312-1.019v24.307c0 .564.042 1.078.126 1.525.085.455.245.834.489 1.146.244.311.589.564 1.035.766.454.203 1.06.329 1.826.38l-.892 5.215ZM192.929 98.634c-1.834-.026-3.324-.228-4.468-.59-1.145-.362-2.046-.885-2.71-1.55a5.107 5.107 0 0 1-1.355-2.418c-.244-.944-.362-2.014-.362-3.202v-24.56l6.312-1.019v24.307c0 .564.042 1.078.126 1.525.084.455.244.834.488 1.146.244.311.589.564 1.035.766.455.203 1.061.329 1.827.38l-.893 5.215ZM205.351 69.44c0 1.163-.378 2.073-1.119 2.739-.749.665-1.633.994-2.651.994-1.018 0-1.902-.329-2.651-.994-.749-.666-1.119-1.576-1.119-2.739 0-1.162.37-2.072 1.119-2.738.749-.665 1.633-.994 2.651-.994 1.018 0 1.902.337 2.651.994.749.666 1.119 1.576 1.119 2.738Zm-.597 28.764h-6.312V75.886h6.312v22.318ZM218.893 75.296c1.868 0 3.417.21 4.662.64 1.246.421 2.239 1.036 2.988 1.82.749.792 1.279 1.752 1.591 2.882.311 1.128.463 2.392.463 3.774v13.152c-.901.202-2.163.43-3.771.699-1.607.27-3.56.404-5.849.404-1.439 0-2.744-.126-3.922-.379-1.17-.252-2.18-.674-3.03-1.255a5.773 5.773 0 0 1-1.952-2.267c-.455-.935-.682-2.08-.682-3.437 0-1.356.261-2.401.783-3.311a6.079 6.079 0 0 1 2.095-2.165c.876-.54 1.877-.927 3.005-1.163a16.614 16.614 0 0 1 3.518-.362c.816 0 1.548.033 2.18.11.639.067 1.153.16 1.548.277v-.59c0-1.078-.328-1.937-.976-2.586-.648-.649-1.776-.977-3.392-.977-1.077 0-2.137.076-3.181.236-1.044.16-1.953.379-2.71.657l-.808-5.09c.37-.109.825-.235 1.38-.361a22.343 22.343 0 0 1 1.801-.337 34.183 34.183 0 0 1 2.054-.253c.724-.068 1.447-.11 2.18-.11l.025-.008Zm.505 18.493c.623 0 1.212-.017 1.776-.042a11.16 11.16 0 0 0 1.355-.126v-4.794c-.253-.06-.64-.11-1.145-.169a12.112 12.112 0 0 0-1.397-.084c-.589 0-1.153.034-1.675.11a4.199 4.199 0 0 0-1.38.404 2.364 2.364 0 0 0-.934.809c-.228.337-.337.766-.337 1.272 0 .986.328 1.677.993 2.056s1.574.573 2.735.573l.009-.009ZM232.855 76.652c1.077-.311 2.458-.598 4.149-.868a33.945 33.945 0 0 1 5.336-.404c1.86 0 3.467.245 4.721.742s2.256 1.196 2.988 2.097c.732.902 1.254 1.98 1.566 3.227.311 1.247.462 2.629.462 4.154v12.604h-6.312V86.367c0-2.04-.269-3.48-.808-4.331-.538-.85-1.54-1.272-3.012-1.272-.455 0-.935.017-1.44.067-.505.05-.959.093-1.355.152v17.221h-6.312V76.652h.017ZM256.126 87.049c0-1.61.261-3.134.782-4.558a11.005 11.005 0 0 1 2.264-3.732c.985-1.062 2.188-1.904 3.602-2.528 1.414-.623 3.022-.935 4.831-.935 1.187 0 2.272.11 3.266.32.984.21 1.952.514 2.878.91l-1.313 5.047a16.761 16.761 0 0 0-1.953-.598c-.707-.169-1.498-.253-2.373-.253-1.868 0-3.257.581-4.174 1.735-.918 1.155-1.381 2.688-1.381 4.584 0 2.005.43 3.564 1.297 4.667.858 1.104 2.364 1.651 4.511 1.651.765 0 1.582-.067 2.457-.21.875-.143 1.683-.37 2.415-.683l.893 5.174c-.733.311-1.65.58-2.753.808-1.102.228-2.314.337-3.644.337-2.036 0-3.787-.303-5.251-.91-1.473-.606-2.677-1.432-3.628-2.485-.951-1.045-1.641-2.283-2.078-3.716-.438-1.423-.657-2.974-.657-4.642l.009.017ZM277.275 87.218c0-1.98.303-3.716.909-5.199.606-1.483 1.405-2.721 2.398-3.715a10.109 10.109 0 0 1 3.409-2.25 10.77 10.77 0 0 1 3.964-.767c3.164 0 5.664.97 7.499 2.907 1.834 1.938 2.752 4.786 2.752 8.552 0 .37-.017.766-.042 1.213-.026.438-.059.826-.085 1.171h-14.324c.143 1.297.749 2.334 1.827 3.1 1.077.767 2.516 1.146 4.325 1.146 1.162 0 2.298-.11 3.409-.32 1.119-.21 2.028-.472 2.735-.783l.85 5.13c-.337.17-.791.338-1.355.506-.564.169-1.195.32-1.885.447-.69.126-1.431.236-2.222.32-.791.084-1.582.126-2.373.126-2.003 0-3.754-.295-5.235-.893-1.481-.59-2.71-1.407-3.686-2.443s-1.692-2.258-2.163-3.674c-.463-1.415-.699-2.94-.699-4.583l-.008.008Zm14.829-2.419a6.109 6.109 0 0 0-.278-1.567 3.965 3.965 0 0 0-.724-1.356 3.827 3.827 0 0 0-1.228-.977c-.497-.253-1.111-.38-1.843-.38-.733 0-1.313.118-1.827.363a3.732 3.732 0 0 0-1.27.952c-.337.396-.598.86-.783 1.382a8.833 8.833 0 0 0-.404 1.592h8.349l.008-.009Z"/></g><defs><linearGradient id="b" x1="2.323" x2="106.812" y1="113.892" y2="9.516" gradientUnits="userSpaceOnUse"><stop offset=".17" stop-color="#00DAE5"/><stop offset="1" stop-color="#0C4CE9"/></linearGradient><clipPath id="a"><path fill="#fff" d="M0 0h329v120H0z"/></clipPath></defs></svg>