<svg xmlns="http://www.w3.org/2000/svg" width="357" height="159" fill="none"><path fill="#fff" d="M27.6 156.75c-2.404.592-5.082 1.282-9.4 1.282-8.447 0-18.2-4.291-18.2-16.348 0-11.09 7.722-16.616 18.162-16.616 3.228 0 6.358.73 9.4 1.638l-.678 6.897c-2.727-1.51-5.357-2.24-8.261-2.24-5.995 0-9.9 4.381-9.9 10.311 0 6.255 4.405 10.044 10.577 10.044 2.767 0 5.583-.73 7.898-1.648l.412 6.66-.01.02ZM44.908 157.48c-.049-1.283-.177-2.516-.177-3.749h-.088c-1.864 2.96-4.13 4.292-7.486 4.292-4.68 0-8.85-2.329-8.85-7.489 0-7.262 7.859-8.12 12.215-8.12 1.315 0 2.767.138 3.817.315-.04-3.236-2.453-4.114-5.396-4.114-2.63 0-5.27.503-7.536 1.776l-.137-5.565c2.904-1.184 5.946-1.687 9.439-1.687 6.044 0 11.254 2.605 11.254 9.857v8.86c0 1.875.088 3.749.451 5.614h-7.486m-5.632-4.933c3.09 0 5.033-2.832 5.033-5.614-1.04-.04-2.227-.138-3.453-.138-2.767 0-4.946.868-4.946 3.147 0 1.648 1.453 2.605 3.356 2.605h.01ZM53.758 133.692h7.447v4.38h.089c1.629-3.423 4.906-4.933 8.624-4.933 6.447 0 9.037 4.568 9.037 9.502v14.839h-8.173v-11.504c0-4.48-1.54-5.98-3.768-5.98-3.356 0-5.082 2.329-5.082 7.44v10.054h-8.174V133.692ZM96.695 157.48c-.04-1.283-.177-2.516-.177-3.749h-.088c-1.864 2.96-4.13 4.292-7.496 4.292-4.67 0-8.85-2.329-8.85-7.489 0-7.262 7.859-8.12 12.215-8.12 1.315 0 2.767.138 3.817.315-.05-3.236-2.453-4.114-5.406-4.114-2.63 0-5.27.503-7.536 1.776l-.137-5.565c2.904-1.184 5.946-1.687 9.448-1.687 6.035 0 11.255 2.605 11.255 9.857v8.86c0 1.875.088 3.749.451 5.614h-7.496m-5.632-4.933c3.09 0 5.033-2.832 5.033-5.614-1.04-.04-2.227-.138-3.444-.138-2.767 0-4.945.868-4.945 3.147 0 1.648 1.452 2.605 3.356 2.605ZM131.722 157.48h-7.535v-4.243h-.088c-1.05 2.645-4.357 4.795-8.124 4.795-7.035 0-10.803-5.841-10.803-12.875 0-5.841 3.581-12.008 10.126-12.008 3.267 0 6.034.868 8.124 3.611h.088v-13.517h8.212v34.247m-13.167-5.752c2.728 0 4.994-2.605 4.994-6.068 0-3.463-1.992-6.206-4.994-6.206-3.179 0-4.955 2.733-4.955 5.89 0 3.789 1.864 6.393 4.955 6.393v-.009ZM141.544 129.814h-8.173v-6.028h8.173v6.028Zm-8.173 3.878h8.173v23.788h-8.173v-23.788ZM159.401 157.48c-.049-1.283-.186-2.516-.186-3.749h-.088c-1.865 2.96-4.131 4.292-7.487 4.292-4.68 0-8.85-2.329-8.85-7.489 0-7.262 7.859-8.12 12.216-8.12 1.314 0 2.767.138 3.816.315-.049-3.236-2.453-4.114-5.406-4.114-2.629 0-5.269.503-7.535 1.776l-.138-5.565c2.905-1.184 5.946-1.687 9.439-1.687 6.034 0 11.264 2.605 11.264 9.857v8.86c0 1.875.088 3.749.451 5.614h-7.486m-5.632-4.933c3.091 0 5.043-2.832 5.043-5.614-1.049-.04-2.227-.138-3.453-.138-2.767 0-4.945.868-4.945 3.147 0 1.648 1.452 2.605 3.355 2.605ZM168.251 133.692h7.448v4.38h.088c1.629-3.423 4.906-4.933 8.624-4.933 6.447 0 9.037 4.568 9.037 9.502v14.839h-8.173v-11.504c0-4.48-1.55-5.98-3.768-5.98-3.355 0-5.082 2.329-5.082 7.44v10.054h-8.174V133.692ZM206.164 125.611h10.754l10.714 21.637h.088l-.127-21.637h7.712v31.869h-10.489l-11.077-21.775h-.089l.265 21.775h-7.751v-31.869ZM253.016 157.48c-.05-1.283-.177-2.516-.177-3.749h-.088c-1.865 2.96-4.131 4.292-7.487 4.292-4.67 0-8.85-2.329-8.85-7.489 0-7.262 7.859-8.12 12.216-8.12 1.314 0 2.767.138 3.816.315-.049-3.236-2.452-4.114-5.406-4.114-2.629 0-5.259.503-7.535 1.776l-.138-5.565c2.905-1.184 5.946-1.687 9.449-1.687 6.034 0 11.254 2.605 11.254 9.857v8.86c0 1.875.088 3.749.451 5.614h-7.486m-5.622-4.933c3.081 0 5.043-2.832 5.043-5.614-1.05-.04-2.227-.138-3.453-.138-2.777 0-4.946.868-4.946 3.147 0 1.648 1.453 2.605 3.356 2.605ZM260.541 133.692h4.818v-5.338l8.035-2.516v7.854h5.721v5.752h-5.721v8.761c0 2.881.687 4.332 3.268 4.332.814 0 1.677-.178 2.502-.316l.274 5.338c-1.54.177-3.09.454-5.131.454-7.3 0-9.076-3.236-9.076-8.91v-9.679h-4.68v-5.752l-.01.02ZM305.861 157.48h-7.447v-4.391h-.088c-1.639 3.424-4.906 4.934-8.625 4.934-6.446 0-9.036-4.569-9.036-9.502v-14.839h8.173v11.504c0 4.48 1.54 5.979 3.767 5.979 3.356 0 5.083-2.328 5.083-7.439v-10.044h8.173V157.48ZM324.425 140.273c-.912-.277-1.815-.277-2.767-.277-3.807 0-5.946 2.783-5.946 7.44v10.054h-8.173v-23.788h7.447v4.38h.088c1.404-3.009 3.454-4.933 6.996-4.933.952 0 1.953.138 2.767.276l-.402 6.848h-.01ZM339.77 157.48c-.039-1.283-.176-2.516-.176-3.749h-.088c-1.865 2.96-4.131 4.292-7.487 4.292-4.67 0-8.86-2.329-8.86-7.489 0-7.262 7.859-8.12 12.216-8.12 1.315 0 2.777.138 3.817.315-.049-3.236-2.453-4.114-5.407-4.114-2.629 0-5.259.503-7.535 1.776l-.137-5.565c2.904-1.184 5.945-1.687 9.438-1.687 6.035 0 11.264 2.605 11.264 9.857v8.86c0 1.875.089 3.749.452 5.614h-7.487m-5.632-4.933c3.091 0 5.044-2.832 5.044-5.614-1.04-.04-2.228-.138-3.444-.138-2.767 0-4.945.868-4.945 3.147 0 1.648 1.452 2.605 3.355 2.605h-.01ZM356.47 123.243h-8.173v34.247h8.173v-34.247ZM221.676 98.695c-3.502-3.068-10.164-9.353-14.697-12.708 1.452-.385 2.649-.888 3.748-1.855.333-1.657-1.335-6.403-2.414-9.847 3.346.365 5.436 1.757 7.977 1.283 1.109-1.49 1.55-3.197 2.345-4.894l7.447 8.17c.461.532 1.589.907 2.021-.533l-3.375-17.129c2.718 1.086 3.66 3.187 6.956 3.345 2.071-3.345 3.582-7.261 5.613-11.327 1.383 3.76 3.022 7.322 4.965 11.495 3.296-.04 4.68-2.102 7.437-3.088l-4.523 16.99c.392 1.47 1.53 1.115 2.001.612l7.663-7.913c.746 1.726 1.178 3.749 2.237 5.278 2.522.553 4.975-1.065 7.967-1.322-1.187 3.404-3.022 8.1-2.737 9.758 1.06 1.007 2.286 1.55 3.679 1.983-4.641 3.187-11.303 9.245-14.904 12.195-.108.908.049 1.619.295 2.319h27.149S252.319.73 184.49.73h-57.301c55.123 12.175 79.201 100.777 79.201 100.777h14.502c.48-.829.892-1.628.784-2.812Z"/><path fill="#fff" d="M79.122 51.119c0 26.847 20.487 48.148 46.606 50.388h47.4c-54.151-13.557-59.39-69.895-23.057-90.595C142.996 6.098 135.579 2.634 127.18.72 100.364 2.24 79.122 23.77 79.122 51.11v.01Z"/></svg>