<svg xmlns="http://www.w3.org/2000/svg" width="403" height="97" fill="none"><path fill="#fff" d="m190.297 84.367.874-3.256h-11.215l-.039.158-3.945 14.77h11.313l.873-3.256h-7.751l.707-2.654h6.701l.883-3.216h-6.701l.667-2.546h7.633ZM228.043 81.111l-2.365 8.821-4.023-8.82h-3.218l-.049.157-3.944 14.77h3.562l2.433-9.126 4.189 9.126h2.993l3.984-14.928h-3.562ZM269.743 84.367l.873-3.256h-11.205l-.039.158-3.955 14.77h11.313l.874-3.256h-7.752l.707-2.654h6.711l.873-3.216h-6.701l.677-2.546h7.624ZM309.196 85.69c0-1.224-.412-2.3-1.177-3.07-1.021-1.025-2.551-1.509-4.72-1.509h-5.416l-.039.148-3.954 14.78h3.61l1.237-4.647h2.09l2.217 4.647h4.072l-2.492-5.022c1.334-.345 2.394-.937 3.189-1.736.892-.898 1.383-2.151 1.383-3.592Zm-3.728.266c0 .543-.207.986-.54 1.322-.559.562-1.56.878-2.757.878h-2.561l1.001-3.76h2.502c.981 0 1.628.208 1.952.544.275.276.393.552.393 1.016h.01ZM341.82 90.445h3.189l-.579 2.003a5.789 5.789 0 0 1-2.404.503c-1.962-.01-3.473-1.134-3.483-3.275 0-2.921 2.286-5.467 5.259-5.477 1.756 0 2.816.71 3.64 1.609l.137.158 2.65-2.358-.118-.148c-1.05-1.372-2.954-2.595-6.054-2.585-5.308 0-9.223 4.282-9.223 8.919 0 4.47 3.621 6.502 6.996 6.512 2.198 0 3.895-.572 5.337-1.391l2.208-7.627h-6.701l-.854 3.177v-.02ZM385.992 81.111l-4.759 5.782-1.628-5.782h-3.974l3.071 9.008-1.58 5.92h3.611l1.501-5.584 8.154-9.344h-4.396ZM.852 43.57c0-17.415 14.345-31.446 31.26-31.446 11.666 0 18.103 5.368 21.763 11.742l-11.48 8.15c-2.669-4.075-5.534-6.966-11.47-6.966-7.918 0-15.238 8.662-15.238 18.51 0 6.856 4.553 11.237 10.391 11.237 4.66 0 8.016-1.894 11.98-5.268l7.712 9.846c-5.534 4.973-11.175 8.259-20.183 8.259-14.442 0-24.725-9.551-24.725-24.065h-.01ZM81.583 55.498c3.954 0 7.418-1.194 11.774-4.282l6.927 9.353c-4.749 3.976-11.381 7.065-20.379 7.065-15.237 0-24.539-8.96-24.539-23.68 0-14.721 12.47-31.83 31.466-31.83 13.757 0 21.665 8.95 21.665 20.8 0 3.778-.991 8.05-2.669 12.135H69.525c.49 6.265 4.16 10.449 12.068 10.449l-.01-.01Zm12.265-19.891c.294-.997.49-2.19.49-3.483 0-4.38-2.57-7.854-8.703-7.854-6.829 0-12.372 4.578-14.835 11.337h23.048ZM350.866 57.984l8.703-9.047c5.554 5.574 11.48 7.163 16.229 7.163 3.944 0 6.338-1.697 6.338-4.677 0-1.993-2.482-3.384-6.142-4.973-8.31-3.581-15.424-7.064-15.424-15.619 0-10.636 8.105-18.697 21.262-18.697 8.605 0 16.523 3.78 20.88 7.657l-8.125 9.55c-5.141-4.084-9.497-5.673-13.844-5.673-3.66 0-5.838 1.687-5.838 4.47 0 2.091 2.571 3.581 7.015 5.574 6.928 3.089 14.551 6.759 14.551 15.116 0 11.642-9.105 18.806-21.772 18.806-8.006 0-17.602-3.089-23.843-9.65h.01ZM176.757 42.967c0-15.915 13.648-30.843 30.662-30.843 15.728 0 25.52 10.44 25.52 24.677 0 15.914-13.648 30.833-30.662 30.833-15.728 0-25.52-10.45-25.52-24.667Zm41.445-5.772c0-7.755-4.651-12.136-11.47-12.136-9.204 0-15.238 9.946-15.238 17.514 0 7.567 4.651 12.135 11.47 12.135 9.203 0 15.238-9.955 15.238-17.513ZM157.379 74.205l9.684-36.418c.893-3.374 1.786-7.163 1.786-10.142 0-9.65-5.377-14.514-14.875-14.514h-28.748L111.077 66.45h9.91c3.699 0 5.975-3.138 6.927-6.73l6.211-23.206.029-.098 2.797-10.547h8.644c4.651 0 7.319 2.279 7.319 6.56 0 1.293-.294 3.286-.696 4.776l-11.657 43.739h9.891c3.699 0 5.965-3.138 6.927-6.73v-.01ZM343.331 13.121c-2.512.67-4.778 2.023-5.916 4.035l-5.014 18.727-4.729 17.82h-8.664c-4.651 0-7.33-2.29-7.33-6.572 0-1.293.305-3.276.687-4.775l7.83-29.245h-10.194c-2.522.671-4.789 2.023-5.927 4.055l-6.544 24.598c-.893 3.374-1.786 7.163-1.786 10.142 0 9.65 5.926 14.514 15.424 14.514h28.199l14.149-53.319h-10.205l.02.02ZM294.645.137h-1.383c-3.052.177-5.554 1.618-7.124 4.479l-26.786 44.015-1.874-27.982c-.363-3.75-3.09-7.528-6.79-7.528h-9.144l6.427 53.713h13.658L304.987.137h-10.342Z"/></svg>