<svg xmlns="http://www.w3.org/2000/svg" width="440" height="146" fill="none"><path fill="#fff" d="M201.114 5.017c6.81 4.943 13.541 15.451 16.376 30.34 11.627-3.513 25.795-13.38 37.873-22.102-20.732 7.657-38.736-1.105-54.249-8.238Z"/><path fill="#fff" d="M247.759 17.084c7.712-2.852 16.975-7.282 25.413-16.389-14.139 4.934-16.327 9.828-25.413 16.389ZM39.74 76.57c-2.698 1.233-7.015 2.032-11.126 2.032-12.078 0-18.652-7.4-18.652-17.198 0-11.02 7.575-17.582 18.819-17.582 4.464 0 8.31.997 10.9 2.18l2.061-7.182c-2.03-1.066-6.72-2.417-13.344-2.417C11.758 36.403.366 46.91.366 61.809c0 14.898 10.234 24.33 26.796 24.33 6.672 0 11.892-1.341 14.188-2.495l-1.629-7.075h.02Z"/><path fill="#fff" d="M60.444 86.14c9.939 0 19.417-6.285 19.417-18.628 0-10.212-7.516-17.77-18.8-17.77-11.283 0-19.613 7.518-19.613 18.52 0 11 8.38 17.888 18.917 17.888h.069l.01-.01Zm.078-6.542c-5.602 0-9.694-4.647-9.694-11.603 0-6.028 3.071-11.721 9.89-11.721 6.82 0 9.636 5.979 9.636 11.573 0 7.568-4.347 11.751-9.763 11.751h-.069ZM82.913 85.281h9.124V65.213c0-.908.118-1.954.403-2.654.99-2.645 3.63-5.447 7.633-5.447 5.259 0 7.438 3.927 7.438 9.403v18.766h9.115v-19.89c0-11.949-7.31-15.649-13.413-15.649-6.436 0-10.45 3.779-11.94 6.443h-.227l-.45-5.585h-7.978c.177 2.98.285 6.463.285 10.498v24.193l.01-.01ZM138.506 86.14c9.949 0 19.417-6.285 19.417-18.628 0-10.212-7.516-17.77-18.799-17.77-11.284 0-19.614 7.518-19.614 18.52 0 11 8.379 17.888 18.917 17.888h.069l.01-.01Zm.078-6.542c-5.602 0-9.694-4.647-9.694-11.603 0-6.028 3.071-11.721 9.89-11.721 6.82 0 9.636 5.979 9.636 11.573 0 7.568-4.347 11.751-9.753 11.751h-.079ZM189.713 77.418c-1.903.77-4.385 1.549-7.908 1.549-6.387 0-11.637-3.996-11.637-11.12-.039-6.344 4.367-11.1 11.598-11.1 3.591 0 5.956.74 7.584 1.55l1.678-6.789c-2.345-.996-5.955-1.776-9.576-1.776-13.128 0-20.634 8.19-20.634 18.579 0 10.39 7.476 17.819 19.162 17.819 4.926 0 8.997-1.046 11.048-2.003l-1.315-6.72v.01ZM210.19 86.14c9.949 0 19.418-6.285 19.418-18.628 0-10.212-7.516-17.77-18.79-17.77-11.273 0-19.613 7.518-19.613 18.52 0 11 8.379 17.888 18.917 17.888h.068v-.01Zm.079-6.542c-5.603 0-9.694-4.647-9.694-11.603 0-6.028 3.071-11.721 9.89-11.721 6.819 0 9.635 5.979 9.635 11.573 0 7.568-4.346 11.751-9.763 11.751h-.068ZM269.62 85.281h9.115V64.936c0-1.006.059-1.874.402-2.664 1.021-2.496 3.66-5.13 7.555-5.13 5.367 0 7.516 3.956 7.516 9.413V85.28h9.115v-19.93c0-11.919-7.25-15.619-13.245-15.619-2.277 0-4.533.612-6.408 1.638-1.972.987-3.62 2.526-4.797 4.302h-.138v-21.42h-9.115v51.03ZM317.855 85.281v-34.69h-9.115v34.69h9.115Zm-4.553-40.068c3.346 0 5.367-2.309 5.367-5.051-.039-2.773-2.051-5.013-5.338-5.013s-5.367 2.27-5.367 5.013c0 2.742 2.022 5.051 5.259 5.051h.079ZM324.114 85.281h9.115v-51.02h-9.115v51.02ZM340.196 85.281h9.125v-51.02h-9.125v51.02ZM364.696 85.281v-34.69h-9.115v34.69h9.115Zm-4.553-40.068c3.346 0 5.367-2.309 5.367-5.051-.039-2.773-2.05-5.013-5.337-5.013s-5.367 2.27-5.367 5.013c0 2.742 2.021 5.051 5.269 5.051h.068ZM371.662 99.538h9.115V81.188h.137c2.032 3.147 6.192 4.953 10.98 4.953 8.595 0 17.259-6.256 17.259-18.835 0-10.972-7.585-17.573-15.846-17.573-6.035 0-10.509 2.418-13.344 6.561h-.138l-.451-5.702h-8.006c.176 3.384.284 7.261.284 11.691V99.53l.01.01Zm9.115-33.447c0-.68.157-1.42.314-2.102a9.34 9.34 0 0 1 9.056-7.173c6.329 0 9.734 5.101 9.734 11.002 0 7.034-3.896 11.376-9.999 11.376-4.523 0-8.016-3.197-8.918-6.818a11.92 11.92 0 0 1-.197-2.22V66.08l.01.01ZM410.713 83.564c2.875 1.5 6.888 2.576 11.548 2.576 9.989 0 14.885-4.884 14.885-10.972-.039-5.377-3.081-8.525-9.93-10.587-4.709-1.43-6.652-2.476-6.652-4.785s1.874-3.69 5.141-3.69c3.454 0 6.663 1.342 8.154 2.17l1.786-6.334c-2.149-1.194-5.858-2.2-9.999-2.2-8.663 0-13.932 4.874-13.932 11.02-.039 4.303 3.09 8.121 10.381 10.203 4.591 1.342 6.152 2.457 6.152 4.864 0 2.19-1.737 3.868-5.956 3.868-3.405 0-7.614-1.44-9.753-2.773l-1.835 6.64h.01ZM232.796 85.262h9.037V65.736c1.334.315 3.071.424 4.984.424 6.908 0 12.569-1.697 16.317-5.24 2.807-2.584 4.249-6.472 4.249-10.921 0-4.45-2.021-8.436-4.955-10.755-3.12-2.545-7.967-4.035-14.786-4.035-6.82 0-11.441.473-14.855 1.006v49.047h.009Zm9.037-42.673c1.011-.197 3.012-.444 5.858-.444 6.358 0 10.655 2.526 10.655 8.08 0 5.555-4.386 8.88-11.421 8.88-2.129 0-3.787-.138-5.092-.493V42.59ZM289.616 116.805c-.951-4.361-4.533-6.867-8.644-6.867-7.457 0-10.616 6.265-10.616 12.461 0 6.196 3.159 12.462 10.616 12.462 5.21 0 8.527-4.046 9.037-9.087h2.678c-.745 6.946-5.131 11.386-11.715 11.386-8.879 0-13.295-7.025-13.295-14.761 0-7.735 4.416-14.76 13.295-14.76 5.328 0 10.617 3.216 11.323 9.166h-2.688.009ZM295.612 122.36c.235-4.805 3.591-6.867 8.251-6.867 3.591 0 7.496 1.115 7.496 6.591v10.872c0 .948.471 1.51 1.462 1.51.275 0 .589-.079.785-.158v2.102c-.549.118-.942.158-1.619.158-2.521 0-2.924-1.431-2.924-3.572h-.078c-1.737 2.654-3.513 4.164-7.418 4.164-3.905 0-6.829-1.865-6.829-5.989 0-5.753 5.564-5.95 10.931-6.591 2.05-.237 3.198-.513 3.198-2.773 0-3.374-2.404-4.203-5.328-4.203-3.081 0-5.367 1.431-5.445 4.766h-2.482v-.01Zm13.255 3.019h-.078c-.314.592-1.423.799-2.09.918-4.219.749-9.468.71-9.468 4.726 0 2.496 2.207 4.045 4.542 4.045 3.788 0 7.143-2.417 7.104-6.433v-3.256h-.01ZM316.196 116.095h2.483v3.532h.078c.903-2.457 3.63-4.124 6.515-4.124 5.72 0 7.457 3.019 7.457 7.893v13.172h-2.482V123.79c0-3.532-1.148-6.186-5.171-6.186-4.023 0-6.309 3.019-6.387 7.025v11.948h-2.483v-20.473l-.01-.009ZM336.928 122.36c.236-4.805 3.592-6.867 8.252-6.867 3.591 0 7.496 1.115 7.496 6.591v10.872c0 .948.471 1.51 1.462 1.51.275 0 .589-.079.785-.158v2.102c-.549.118-.942.158-1.619.158-2.521 0-2.924-1.431-2.924-3.572h-.078c-1.737 2.654-3.513 4.164-7.418 4.164-3.905 0-6.829-1.865-6.829-5.989 0-5.753 5.563-5.95 10.93-6.591 2.051-.237 3.199-.513 3.199-2.773 0-3.374-2.404-4.203-5.328-4.203-3.081 0-5.367 1.431-5.445 4.766h-2.483v-.01Zm13.256 3.019h-.078c-.314.592-1.423.799-2.09.918-4.219.749-9.469.71-9.469 4.726 0 2.496 2.208 4.045 4.543 4.045 3.788 0 7.143-2.417 7.104-6.433v-3.256h-.01ZM375.057 136.568h-2.286v-3.888h-.079c-1.069 2.654-4.297 4.489-7.26 4.489-6.192 0-9.155-5.041-9.155-10.833s2.963-10.833 9.155-10.833c3.041 0 5.995 1.549 7.064 4.479h.079v-11.741h2.482v28.336-.009Zm-9.625-1.51c5.288 0 7.143-4.479 7.143-8.732 0-4.252-1.855-8.732-7.143-8.732-4.739 0-6.672 4.48-6.672 8.732 0 4.253 1.933 8.732 6.672 8.732ZM379.345 122.36c.235-4.805 3.591-6.867 8.252-6.867 3.591 0 7.496 1.115 7.496 6.591v10.872c0 .948.471 1.51 1.462 1.51.274 0 .588-.079.785-.158v2.102c-.55.118-.942.158-1.619.158-2.522 0-2.924-1.431-2.924-3.572h-.079c-1.736 2.654-3.512 4.164-7.417 4.164s-6.829-1.865-6.829-5.989c0-5.753 5.563-5.95 10.93-6.591 2.051-.237 3.199-.513 3.199-2.773 0-3.374-2.404-4.203-5.328-4.203-3.081 0-5.367 1.431-5.446 4.766h-2.482v-.01Zm13.256 3.019h-.079c-.314.592-1.423.799-2.09.918-4.219.749-9.468.71-9.468 4.726 0 2.496 2.208 4.045 4.543 4.045 3.787 0 7.143-2.417 7.103-6.433v-3.256h-.009ZM405.807 144.648s-.775.267-.716.573c.059.325.618.828.903.759 0 0 .186-.01.706-.819.206-.325.677-.661 1.07-1.036 2.698-2.565 6.672-7.449 8.948-12.205 0 0 .078.089.422.681.353.592.324.859.657 1.086.344.226 1.178.878 1.354.986.344.197 1.501-.168 2.581.119 1.089.286 2.698 1.381 2.698 1.381s2.217-.286 3.591.158c1.482.483 1.845 1.391 2.296 1.213.451-.167.137-.68-.324-1.134a18.29 18.29 0 0 1-1.05-1.174s-.863-.849-1.207-1.421c-.343-.572-.755-1.273-1.206-1.5-.462-.227-.697-1.914-.118-2.427.569-.513 1.825-.267 2.963-.553 1.138-.286 2.374-.69 3.405-.74 1.02-.059.971-.335.687-.562-.285-.227-1.129-1.066.235-2.555 1.364-1.49 1.756-1.342 1.815-1.737.059-.404.805-2.23 3.307-4.016 0 0 1.216-1.026 1.167-1.134-.108-.267-.647-.069-1.05.049-.402.118-2.394.572-2.845.691-.451.118-2.384.562-2.953.562s-1.482.217-2.139-.326c0 0-.481-.296-1.05.158-.608.484-1.796.602-2.541.573-1.08-.06-1.865.345-2.031-1.027-.167-1.371.422-2.663 1.187-3.798.638-.937.922-2.033 1.089-2.388.167-.375-.196-.454-.196-.454s-1.138-.167-1.658-.404c-.511-.227-.717-.75-1.021-1.974-.304-1.223-.226-2.861.01-3.492.226-.602.608-2.072.402-2.191-.461-.276-.961.326-1.246 1.411-.284 1.086-1.177 2.802-1.864 3.286-.726.513-1.776 1.874-2.178 1.983-.403.118-1.521-.365-1.609-.079-.118.365-.305.503-.393 1.253-.019.168-.167 2.674-.451 3.128-.285.454-.697 1.835-1.609 1.381-.913-.464-1.168-2.309-1.531-3.118 0 0-.118-.483-.402-.651-.108-.059-1.354.217-1.815-.118-.462-.346-2.238-1.332-2.866-2.191-.627-.858-2.06-2.91-2.178-3.196-.117-.287-.52-.533-.853-.415-.344.119.176.888.294 1.066.118.167 1.069 2.792 1.128 3.364.059.573-.078 2.595.079 4.292.069.711-.648.928-1.158.928-.51 0-1.501-.247-1.58-.079-.058.118.138.542.363 1.174.226.631 2.355 3.009 2.296 3.601-.078.809 1.374 1.658 1.57 1.944.197.286-.206.977-.373 1.49-.166.513-.569.947-1.255 1.174-.687.227-1.561.335-2.247.503-.687.178-1.649.809-2.012 1.095-.274.217-.088.346.363.405.461.059 1.815.118 2.443.463.628.346 3.101 1.905 3.847 1.845.735-.059 1.285.869 1.57 1.017.451.227 2.413.167 3.267 0 .853-.168 1.216-.296 1.187-.227-1.462 2.98-2.767 4.805-4.317 6.818-1.933 2.516-4.602 5.584-5.858 6.541v-.01Z"/></svg>