<svg xmlns="http://www.w3.org/2000/svg" width="275" height="155" fill="none"><path fill="#fff" d="M227.445 20.72a168.272 168.272 0 0 0-21.498-10.528 366.812 366.812 0 0 1 2.345-7.933c-4.7.987-9.292 2.26-13.756 3.8a167.064 167.064 0 0 0-25.511-6.05 188.748 188.748 0 0 1 13.011 11.18 114.152 114.152 0 0 0-13.334 7.558 171.006 171.006 0 0 1 19.368-1.599 187.89 187.89 0 0 1 12.608 14.395 321.46 321.46 0 0 1 3.307-14.06 171.586 171.586 0 0 1 23.46 3.237ZM258.352 55.559a188.553 188.553 0 0 1 16.169 5.742 169.173 169.173 0 0 0-17.965-19.19 117.706 117.706 0 0 0-3.601-13.962c-.019-.01-.049-.02-.078-.03a365.11 365.11 0 0 1-5.681 6.039 171.652 171.652 0 0 0-19.741-13.438 173.725 173.725 0 0 1 14.472 18.766 345.906 345.906 0 0 1-10.499 9.975 186.26 186.26 0 0 1 18.78 3.828 150.92 150.92 0 0 1 1.648 3.079c2.473 4.814 4.7 9.688 6.692 14.602.206-3.877.226-7.794.039-11.76-.049-1.224-.137-2.438-.225-3.661M220.734 62.702c-.471-.918-.962-1.825-1.443-2.733a352.732 352.732 0 0 0 12.137-10.508 190.024 190.024 0 0 0-19.378-1.914 189.57 189.57 0 0 0-11.362-16.004 340.18 340.18 0 0 0-2.973 15.866 188.88 188.88 0 0 0-21.272 1.835 247.892 247.892 0 0 1 19.624 9.462 348.093 348.093 0 0 0-2.002 20.128c5.554-3.78 11.019-7.706 16.317-11.79a243.874 243.874 0 0 1 17.985 12.411 192.622 192.622 0 0 0-7.643-16.773M247.068 117.639c-.628-.119-1.54-.207-2.747-.286a55.103 55.103 0 0 0-4.013-.138c-2.826 0-4.916.513-6.309 1.529-1.374 1.016-2.061 2.437-2.061 4.252 0 1.816.579 3.128 1.737 4.115 1.148.986 3.199 1.489 6.123 1.489 1.579 0 2.982-.088 4.219-.256 1.236-.178 2.256-.345 3.041-.523v-10.202l.01.02Zm9.89 15.984c-1.805.621-4.199 1.262-7.192 1.914-2.982.651-6.505.976-10.557.976-3.042 0-5.642-.315-7.81-.927-2.169-.622-3.925-1.49-5.289-2.595-1.354-1.105-2.335-2.447-2.953-4.035-.628-1.589-.932-3.365-.932-5.358 0-4.025 1.442-7.202 4.317-9.561 2.875-2.348 7.457-3.532 13.776-3.532 1.118 0 2.325.05 3.63.129 1.295.088 2.335.187 3.13.296v-1.786c0-1.47-.245-2.674-.716-3.611-.481-.938-1.109-1.658-1.904-2.171-.785-.513-1.727-.859-2.836-1.066a19.827 19.827 0 0 0-3.502-.296c-2.532 0-4.975.296-7.31.888-2.335.602-4.18 1.155-5.534 1.658v-8.328a39.873 39.873 0 0 1 2.532-.937 29.22 29.22 0 0 1 3.512-.937 56.782 56.782 0 0 1 4.219-.72 35.185 35.185 0 0 1 4.612-.296c6.073 0 10.41 1.42 12.971 4.242 2.561 2.842 3.846 6.838 3.846 11.978v24.065l-.01.01Zm-55.377-30.685a85.223 85.223 0 0 0-2.875-.385 34.24 34.24 0 0 0-3.974-.217c-1.57 0-3.081.108-4.513.296-1.443.197-2.64.444-3.591.72v32.125h-9.891v-39.18c2.081-.789 4.553-1.48 7.399-2.081 2.845-.592 6.014-.888 9.507-.888 1.688 0 3.248.069 4.651.217 1.403.148 2.502.296 3.297.463v8.92l-.01.01Zm-49.834-1.697c-2.885 0-5.239.878-7.064 2.634-1.835 1.756-2.885 4.193-3.17 7.301h19.604c0-2.881-.775-5.259-2.325-7.133-1.55-1.875-3.895-2.812-7.045-2.812m16.395 31.948c-.902.404-1.854.809-2.874 1.233a27.833 27.833 0 0 1-3.425 1.154 33.154 33.154 0 0 1-4.189.809c-1.521.198-3.238.296-5.151.296-6.594 0-11.765-1.845-15.513-5.525-3.748-3.68-5.622-8.949-5.622-15.806 0-3.404.491-6.463 1.482-9.176.991-2.723 2.394-5.012 4.228-6.887 1.825-1.865 4.043-3.315 6.633-4.341 2.591-1.016 5.495-1.53 8.703-1.53 3.209 0 6.074.533 8.409 1.58 2.335 1.045 4.268 2.476 5.799 4.291 1.52 1.816 2.629 3.927 3.336 6.334.706 2.408 1.049 4.944 1.049 7.608 0 .966-.009 1.835-.039 2.594a33.97 33.97 0 0 1-.118 1.915h-29.415c.059 1.361.314 2.664.765 3.907.452 1.253 1.187 2.368 2.198 3.364 1.011.987 2.335 1.776 3.974 2.339 1.629.572 3.63.848 5.995.848 3.1 0 5.828-.395 8.202-1.184 2.365-.789 4.259-1.529 5.662-2.22l-.079 8.416-.01-.019Zm-63.148-30.33c-1.639 0-3.179.158-4.651.464-1.462.315-2.649.641-3.542.976v21.756c.952.454 2.07.809 3.336 1.066 1.266.256 2.777.384 4.523.384 3.611 0 6.486-1.065 8.615-3.186 2.139-2.122 3.209-5.289 3.209-9.472 0-3.799-1.05-6.749-3.17-8.841-2.109-2.091-4.896-3.137-8.33-3.137M86.901 97.58c2.257-1.016 4.955-1.973 8.115-2.88 3.15-.899 6.76-1.362 10.822-1.362 3.552 0 6.633.582 9.252 1.736 2.62 1.164 4.788 2.713 6.506 4.637 1.717 1.924 3.002 4.154 3.846 6.67a24.56 24.56 0 0 1 1.265 7.854c0 3.571-.539 6.749-1.609 9.521-1.069 2.782-2.551 5.121-4.435 7.005-1.893 1.905-4.091 3.355-6.593 4.381-2.512 1.026-5.2 1.529-8.075 1.529-2.031 0-3.807-.177-5.328-.503-1.52-.335-2.816-.74-3.885-1.194v19.881h-9.89V97.57l.01.01Zm-68.368-1.52a80.289 80.289 0 0 1 3.552-.897 76.741 76.741 0 0 1 4.435-.888 68.008 68.008 0 0 1 5.023-.681 54.79 54.79 0 0 1 5.24-.256c2.708 0 5.23.276 7.565.799 2.335.542 4.18 1.44 5.534 2.674 1.687-.79 3.689-1.57 6.004-2.339 2.306-.76 5.073-1.144 8.281-1.144 5.24 0 9.047 1.213 11.411 3.61 2.365 2.408 3.552 5.94 3.552 10.578v27.961h-9.89V109.39c0-2.377-.579-4.124-1.737-5.229-1.157-1.105-3.169-1.658-6.044-1.658-1.638 0-3.169.158-4.611.464-1.442.316-2.64.661-3.591 1.066.176.681.294 1.49.382 2.417.079.937.128 1.855.128 2.763v26.264h-9.89v-25.83c0-2.723-.599-4.588-1.816-5.604-1.216-1.017-3.257-1.53-6.132-1.53-1.472 0-2.875.099-4.229.296-1.354.198-2.453.415-3.296.632v32.036h-9.89V96.041l.019.02Zm245.912-21.479h9.89v60.906h-9.89V74.581Zm-58.557 19.861h9.89v41.045h-9.89V94.443ZM.803 74.582h9.88v60.905H.804V74.581Z"/></svg>