<svg xmlns="http://www.w3.org/2000/svg" width="507" height="123" fill="none"><path fill="#fff" d="m3.732 27.14 11.675 7.676 27.395-19.082s1.236-1.124 3.14.119c1.913 1.243.333 2.14.333 2.14l-27.06 19.201 10.782 7.222 27.17-19.19s1.461-1.135 2.923 0 .56 2.26.56 2.26l-27.18 19.2 11.795 7.903 35.263-25.406s4.72-4.066-1.688-8.022c-5.808-3.591-10.106-6.216-10.106-6.216s-4.376-3.049-6.956-1.016c0 0 2.58-2.033-4.043-6.433s-8.87-5.762-8.87-5.762S43.813-.98 37.75 3.204C32.244 6.993 3.722 27.14 3.722 27.14h.01ZM42.154 58.812 7.676 35.546s-6.849-4.291-6.849 4.4v48.781s.108 6.66 5.279 10.271c5.17 3.621 35.94 23.601 35.94 23.601v-15.362L13.975 88.826s-1.344-.898-1.344-3.838 1.344-2.714 1.344-2.714l27.963 18.401.108-17.157L13.857 64.77s-1.128-.79-1.128-3.838c0-3.049 1.128-3.167 1.128-3.167l28.297 18.963V58.782v.03ZM87.19 31.481 52.26 54.964s-6.063 4.065-6.063 13.438v44.508s.343 10.389 9.772 4.302c9.43-6.108 24.922-17.178 24.922-17.178s6.633-3.167 6.633-13.556V55.654L62.367 73.05l-.03 16.615 12.49-8.485s1.806-1.352 1.806.79v4.173L58.746 98.456l.03-29.817L87.18 49.33V31.491l.01-.01ZM112.632 77.163V45.897h5.838l14.639 18.905 14.345-18.905h5.789v31.267h-6.692V57.835c0-.77.079-1.875.236-3.335-.766 1.579-1.364 2.664-1.806 3.276l-11.695 15.628h-1.443l-11.686-15.697c-.843-1.135-1.461-2.2-1.864-3.207.118 1.253.177 2.358.177 3.335v19.328h-5.838ZM165.998 77.163V45.897h31.81v5.328h-24.579v6.966h14.345v5.328h-14.345v7.755h24.883v5.88h-32.114v.01ZM239.341 51.48h-22.597v19.813h22.597v-6.966h-11.814V59h18.858v10.784c0 2.91-.54 4.864-1.629 5.88-1.089 1.007-3.11 1.51-6.083 1.51h-21.448c-2.973 0-5.004-.503-6.083-1.51-1.09-1.016-1.629-2.97-1.629-5.88V53.306c0-2.91.539-4.864 1.629-5.87 1.079-1.007 3.11-1.52 6.083-1.52h21.448c2.895 0 4.896.494 6.025 1.48 1.128.987 1.687 2.861 1.687 5.604v.73l-7.044 1.273v-3.522ZM281.403 77.163V45.897h31.81v5.328h-24.588v6.966h14.345v5.328h-14.345v7.755h24.882v5.88h-32.113l.009.01ZM323.015 77.163V51.54h4.278l21.635 17.03V51.54h5.603v25.623h-4.278l-21.567-17.266v17.267H323.015ZM363.185 77.163V51.54h27.355v4.549h-21.086v5.574h12.294v4.42h-12.294v6.305h21.39v4.785h-27.659v-.01ZM398.242 77.163V51.54h22.949c3.974 0 5.966 1.658 5.966 4.963v6.058c0 3.266-1.992 4.904-5.966 4.904h-3.493l12.108 9.698h-8.919l-10.665-9.698h-5.848v9.698h-6.142.01Zm20.3-21.203h-14.158v7.084h14.158c1.894 0 2.836-.68 2.836-2.062v-2.97c0-1.37-.942-2.062-2.836-2.062v.01ZM461.106 56.266h-19.339V72.26h19.339v-5.456H450.98v-4.539h16.209v8.84c0 2.388-.461 3.986-1.384 4.815-.922.83-2.668 1.243-5.239 1.243H442.13c-2.571 0-4.317-.414-5.24-1.243-.922-.829-1.383-2.437-1.383-4.814V57.598c0-2.387.471-3.986 1.413-4.815.942-.828 2.678-1.243 5.21-1.243h18.436c2.492 0 4.219.395 5.181 1.184.961.79 1.442 2.309 1.442 4.578v.671L461.106 59V56.266ZM486.498 77.163V65.65L472.585 51.53h8.38l9.095 9.57 9.223-9.57h7.29l-13.854 13.991v11.633h-6.211l-.01.01Z"/></svg>