<svg xmlns="http://www.w3.org/2000/svg" width="373" height="158" fill="none"><path fill="#fff" d="M76.872 69.694 76.715 90.8c0 3.206-.079 6.423-.079 9.63 0 4.588 1.973 6.886 7.075 6.886 4.72 0 6.848-2.446 6.927-7.725l.304-29.906h19.006l-.305 28.14c-.068 16.438-5.857 26.304-26.923 26.304-19.24 0-25.246-11.702-25.246-21.489 0-3.286 0-7.568.079-11.396l.304-21.568h19.015v.02ZM117.021 69.694h23.578l11.332 30.508h.148l.157-30.508h16.886l-.461 52.924h-23.5l-12.166-30.823h-.157l.53 30.823h-16.729l.382-52.924ZM216.944 122.609a87.104 87.104 0 0 1-7.221 1.144 93.476 93.476 0 0 1-8.448.385c-18.407 0-28.209-12.698-28.209-27.991 0-16.98 9.812-27.992 30.416-27.992 5.711 0 9.351.464 13.914 1.382l-2.512 15.835c-2.659-.532-5.927-.848-7.752-.848-12.166 0-14.452 7.114-14.452 11.544 0 5.505 2.511 11.701 13.53 11.701a50.32 50.32 0 0 0 8.369-.69l2.355 15.53h.01ZM246.222 68.165c18.407 0 28.219 12.698 28.219 27.991 0 15.294-9.812 27.992-28.219 27.992-18.406 0-28.208-12.698-28.208-27.992 0-15.293 9.811-27.991 28.208-27.991Zm0 15.599c-6.613 0-8.595 5.585-8.595 12.392 0 6.808 1.972 12.383 8.595 12.383 6.623 0 8.596-5.585 8.596-12.383 0-6.798-1.973-12.392-8.596-12.392ZM329.416 122.609h-20.987l-11.156-22.496-.255 22.496h-18.633l.383-52.924h27.836c14.757 0 19.398 7.182 19.398 15.904 0 7.035-4.72 13.083-11.343 13.38v.157l14.757 23.483Zm-32.016-29.6h3.876c3.424 0 6.162-.385 6.162-4.894 0-3.591-1.06-5.732-5.711-5.732h-4.258l-.069 10.626ZM2.96 107.848c6.24 1.283 9.743 1.52 14.208 1.52 7.339 0 10.724-.661 12.49-2.437.854-.859 1.285-1.954 1.285-3.256 0-4.4-2.875-5.397-5.386-5.772l-9.606-2.368C4.03 92.654.733 83.537.733 77.972c0-6.857 2.394-11.75 6.005-15.381 4.67-4.697 11.254-7.144 22.989-7.144 6.848 0 13.863.563 20.889 1.658l-1.394 14.208c-4.807-.987-9.959-1.392-15.188-1.392-5.936 0-12 .76-12 6.394 0 3.976 4.052 4.795 5.387 5.061.03 0 11.068 2.102 11.068 2.102 9.134 1.648 14.168 8.012 14.168 17.918 0 15.52-8.93 23.058-27.287 23.058-9.321 0-17.661-.869-24.215-1.924l1.795-14.672.01-.01Z"/><path fill="#fff" d="M364.454 91.638c0 28.159-15.248 52.726-37.893 65.839h10.871c21.537-15.747 35.558-41.272 35.558-70.102 0-47.862-38.589-86.667-86.186-86.667-36.823 0-68.231 23.235-80.564 55.913h15.63c12.598-24.33 37.883-40.946 67.043-40.946 41.72 0 75.531 34.01 75.531 75.953l.01.01Z"/></svg>