<svg xmlns="http://www.w3.org/2000/svg" width="339" height="487" fill="none"><g clip-path="url(#a)"><path fill="#fff" d="M175.186 487c-1.825-.101-3.261-1.64-3.194-3.466.068-1.861 1.639-3.298 3.464-3.196 1.859.067 3.261 1.623 3.194 3.466-.068 1.792-1.572 3.196-3.329 3.196h-.135Zm13.45-3.264a3.324 3.324 0 0 1 3.125-3.5 3.361 3.361 0 0 1 3.532 3.162c.101 1.826-1.335 3.399-3.16 3.501h-.169a3.337 3.337 0 0 1-3.328-3.163Zm-30.33 1.691c-1.825-.236-3.092-1.927-2.856-3.771.271-1.792 1.96-3.06 3.768-2.823 1.825.27 3.126 1.961 2.856 3.77a3.327 3.327 0 0 1-3.295 2.858c-.169 0-.338 0-.473-.034Zm46.905-3.026c-.27-1.827.963-3.535 2.788-3.805 1.842-.271 3.498.998 3.802 2.79.27 1.826-.997 3.534-2.788 3.805-.169.033-.338.033-.507.033-1.639 0-3.058-1.166-3.295-2.823Zm-63.582-.17c-1.791-.439-2.856-2.232-2.433-4.024a3.35 3.35 0 0 1 4.021-2.435c1.757.44 2.856 2.232 2.433 4.024a3.35 3.35 0 0 1-3.227 2.537c-.27 0-.541-.034-.794-.102Zm79.922-2.823c-.44-1.759.642-3.602 2.399-4.025a3.3 3.3 0 0 1 4.055 2.367 3.312 3.312 0 0 1-3.227 4.16 3.325 3.325 0 0 1-3.227-2.502Zm-96.16-2.03a3.349 3.349 0 0 1-2.028-4.261c.642-1.725 2.535-2.638 4.258-2.029 1.724.626 2.636 2.536 2.028 4.261-.49 1.37-1.757 2.198-3.16 2.198-.371 0-.726-.067-1.098-.169Zm112.144-2.671c-.659-1.708.203-3.636 1.926-4.295 1.69-.626 3.633.236 4.292 1.927.642 1.725-.203 3.67-1.926 4.295a3 3 0 0 1-1.166.237 3.315 3.315 0 0 1-3.126-2.164Zm-127.824-3.873c-1.673-.794-2.366-2.79-1.572-4.464.795-1.64 2.771-2.367 4.427-1.572 1.673.794 2.366 2.79 1.606 4.464a3.345 3.345 0 0 1-3.025 1.894c-.473 0-.963-.136-1.436-.339v.017Zm143.132-2.57c-.828-1.623-.169-3.636 1.47-4.464 1.639-.863 3.633-.237 4.461 1.437a3.28 3.28 0 0 1-1.436 4.464c-.473.271-.997.372-1.504.372-1.233 0-2.399-.625-2.991-1.792v-.017Zm-158.052-5.529a3.31 3.31 0 0 1-1.098-4.566c.929-1.607 2.99-2.063 4.562-1.133a3.348 3.348 0 0 1 1.098 4.599c-.591 1.032-1.69 1.607-2.822 1.607-.608 0-1.2-.169-1.74-.507Zm172.567-2.605a3.34 3.34 0 0 1 .895-4.633 3.336 3.336 0 0 1 4.63.896 3.327 3.327 0 0 1-.896 4.634 3.326 3.326 0 0 1-1.858.558c-1.065 0-2.095-.541-2.771-1.471v.016Zm-186.575-6.966a3.305 3.305 0 0 1-.625-4.667c1.099-1.472 3.194-1.725 4.664-.626 1.47 1.099 1.74 3.196.642 4.667a3.393 3.393 0 0 1-2.67 1.336 3.287 3.287 0 0 1-1.994-.693l-.016-.017Zm200.058-2.824a3.358 3.358 0 0 1 .338-4.701c1.403-1.201 3.498-1.032 4.731.372 1.166 1.403 1.031 3.5-.371 4.701a3.298 3.298 0 0 1-2.163.795 3.3 3.3 0 0 1-2.535-1.167Zm-213.068-8.066a3.32 3.32 0 0 1-.169-4.701 3.346 3.346 0 0 1 4.697-.203 3.363 3.363 0 0 1 .203 4.735 3.433 3.433 0 0 1-2.467 1.065c-.794 0-1.605-.304-2.264-.896Zm225.285-3.23c-1.369-1.234-1.437-3.331-.203-4.701 1.233-1.336 3.362-1.437 4.697-.203a3.364 3.364 0 0 1 .203 4.735 3.36 3.36 0 0 1-2.433 1.065 3.278 3.278 0 0 1-2.264-.896Zm-237.163-8.861.033.034c-1.233-1.403-1.132-3.5.237-4.735 1.368-1.234 3.498-1.099 4.731.271a3.356 3.356 0 0 1-.27 4.701c-.642.558-1.437.862-2.23.862-.896 0-1.843-.406-2.502-1.133Zm247.994-3.737c-1.504-1.099-1.792-3.196-.727-4.667a3.311 3.311 0 0 1 4.663-.727 3.343 3.343 0 0 1 .727 4.667c-.659.863-1.673 1.37-2.687 1.37-.659 0-1.368-.237-1.96-.626l-.016-.017Zm-258.673-9.402c-1.099-1.471-.794-3.534.692-4.667 1.47-1.099 3.532-.761 4.63.694a3.356 3.356 0 0 1-.659 4.667 3.36 3.36 0 0 1-1.993.659c-.998 0-1.994-.473-2.67-1.369v.016Zm268-4.43c-1.572-.896-2.129-2.925-1.234-4.532a3.282 3.282 0 0 1 4.528-1.234 3.342 3.342 0 0 1 1.268 4.532 3.358 3.358 0 0 1-2.89 1.691c-.557 0-1.132-.169-1.672-.474v.017Zm-131.694-6.02c-.034-1.826 1.402-3.365 3.227-3.432 1.825-.034 3.397 1.403 3.43 3.229.068 1.827-1.402 3.399-3.227 3.433h-.101c-1.791 0-3.261-1.437-3.329-3.23Zm-13.906 1.624c-1.757-.406-2.889-2.165-2.535-3.991.406-1.793 2.163-2.892 3.954-2.537 1.791.406 2.957 2.165 2.569 3.991-.372 1.539-1.741 2.604-3.261 2.604-.237 0-.474-.034-.727-.067Zm30.465-3.196a3.342 3.342 0 0 1 2.365-4.092 3.316 3.316 0 0 1 4.056 2.367 3.334 3.334 0 0 1-2.332 4.092 3.949 3.949 0 0 1-.862.101 3.37 3.37 0 0 1-3.227-2.468ZM35.703 403.06a3.348 3.348 0 0 1 1.098-4.599 3.303 3.303 0 0 1 4.562 1.099 3.313 3.313 0 0 1-1.064 4.565 3.32 3.32 0 0 1-1.724.508c-1.132 0-2.23-.524-2.855-1.573h-.017Zm115.54-.541v.034c-1.673-.795-2.399-2.79-1.605-4.464.794-1.624 2.771-2.368 4.427-1.573a3.346 3.346 0 0 1 1.605 4.43c-.558 1.201-1.757 1.894-3.025 1.894-.473 0-.963-.101-1.402-.338v.017Zm62.518-2.993c-.929-1.606-.372-3.669 1.234-4.566 1.571-.93 3.599-.372 4.528 1.235.929 1.572.372 3.635-1.2 4.532-.54.304-1.098.473-1.673.473-1.165 0-2.298-.592-2.889-1.674Zm107.21-1.64c-1.69-.727-2.467-2.706-1.74-4.363.726-1.691 2.703-2.469 4.359-1.759a3.332 3.332 0 0 1 1.724 4.397 3.274 3.274 0 0 1-3.025 1.995c-.473 0-.895-.067-1.335-.27h.017Zm-184.546-4.262c-1.47-1.065-1.758-3.162-.693-4.667 1.098-1.471 3.193-1.758 4.663-.693a3.316 3.316 0 0 1 .693 4.667 3.308 3.308 0 0 1-2.67 1.37 3.242 3.242 0 0 1-1.993-.66v-.017Zm91.006-3.534a3.359 3.359 0 0 1-.034-4.734 3.353 3.353 0 0 1 4.731 0c1.301 1.302 1.301 3.398 0 4.734a3.377 3.377 0 0 1-2.366.964 3.386 3.386 0 0 1-2.331-.964Zm-200.024-1.758c-.828-1.674-.17-3.67 1.47-4.498 1.639-.829 3.632-.203 4.46 1.471.862 1.606.203 3.635-1.436 4.464-.507.237-.997.372-1.538.372-1.2 0-2.365-.659-2.956-1.792v-.017Zm96.125-6.037a3.29 3.29 0 0 1 .068-4.701 3.283 3.283 0 0 1 4.697.068c1.301 1.336 1.267 3.432-.067 4.701a3.363 3.363 0 0 1-2.332.963c-.862 0-1.724-.372-2.366-1.031Zm203.556.101c-1.757-.541-2.771-2.401-2.197-4.159.541-1.759 2.433-2.74 4.157-2.199 1.757.575 2.737 2.435 2.196 4.194a3.342 3.342 0 0 1-3.159 2.334 3.41 3.41 0 0 1-.997-.17Zm-88.843-4.937c-1.572-.964-2.096-2.993-1.133-4.566.93-1.606 2.991-2.097 4.563-1.133 1.571.93 2.061 2.993 1.132 4.566a3.335 3.335 0 0 1-2.856 1.606 3.22 3.22 0 0 1-1.706-.473ZM20.31 372.961a3.367 3.367 0 0 1 1.791-4.363 3.363 3.363 0 0 1 4.36 1.793h-.034c.726 1.707-.068 3.669-1.758 4.362-.439.169-.861.271-1.3.271a3.331 3.331 0 0 1-3.06-2.063Zm92.239-3.805a3.395 3.395 0 0 1 .727-4.667c1.504-1.065 3.599-.727 4.663.761 1.065 1.505.727 3.568-.726 4.633a3.325 3.325 0 0 1-1.96.626 3.323 3.323 0 0 1-2.704-1.37v.017Zm219-2.807a3.354 3.354 0 0 1-2.603-3.923h-.033c.371-1.792 2.162-2.959 3.97-2.604a3.353 3.353 0 0 1 2.602 3.923c-.337 1.573-1.723 2.672-3.261 2.672-.236 0-.473-.034-.659-.068h-.016Zm-85.718-3.703c-1.723-.592-2.67-2.503-2.061-4.228.608-1.724 2.5-2.671 4.224-2.063 1.723.592 2.67 2.503 2.061 4.228a3.313 3.313 0 0 1-3.126 2.232c-.371 0-.726-.034-1.098-.169ZM14.379 357.15a3.334 3.334 0 0 1 2.095-4.227c1.74-.558 3.633.372 4.19 2.097.592 1.758-.371 3.635-2.094 4.227a3.706 3.706 0 0 1-1.065.169 3.284 3.284 0 0 1-3.126-2.266Zm89.114-2.502a3.352 3.352 0 0 1 1.368-4.532 3.304 3.304 0 0 1 4.495 1.369h.034c.828 1.641.236 3.67-1.369 4.532a3.407 3.407 0 0 1-1.588.372c-1.166 0-2.332-.625-2.923-1.725l-.017-.016Zm230.877-4.735c-1.825-.169-3.159-1.826-2.957-3.636a3.377 3.377 0 0 1 3.667-2.993 3.327 3.327 0 0 1 2.957 3.67 3.304 3.304 0 0 1-3.295 2.993c-.135 0-.237 0-.372-.034Zm-84.044-3.298c-1.791-.27-3.059-1.961-2.788-3.804.27-1.793 1.994-3.061 3.802-2.79 1.824.27 3.058 1.961 2.787 3.804a3.32 3.32 0 0 1-3.294 2.824c-.169 0-.338 0-.507-.034ZM9.53 340.985a3.312 3.312 0 0 1 2.4-4.059 3.303 3.303 0 0 1 4.054 2.368 3.319 3.319 0 0 1-2.365 4.058 3.728 3.728 0 0 1-.862.101c-1.47 0-2.839-.964-3.227-2.468Zm86.883-1.861a3.356 3.356 0 0 1 1.926-4.328c1.69-.626 3.633.236 4.292 1.927.659 1.725-.203 3.67-1.926 4.295a3.04 3.04 0 0 1-1.2.237 3.32 3.32 0 0 1-3.092-2.131Zm239.241-5.8a3.357 3.357 0 0 1-3.294-3.365c.033-1.826 1.537-3.331 3.362-3.297 1.859.034 3.329 1.539 3.295 3.365 0 1.826-1.504 3.297-3.295 3.297h-.068Zm-87.018-5.394c0-1.86 1.504-3.365 3.329-3.365 1.825 0 3.328 1.505 3.328 3.365a3.347 3.347 0 0 1-3.328 3.331 3.348 3.348 0 0 1-3.329-3.331ZM5.779 324.565c-.372-1.792.828-3.568 2.636-3.923 1.79-.372 3.531.829 3.886 2.638.372 1.792-.794 3.568-2.602 3.889-.237.068-.473.068-.66.068-1.57 0-2.956-1.099-3.26-2.672Zm85.582-1.758a3.316 3.316 0 0 1 2.467-4.025c1.757-.44 3.565.66 3.987 2.469.44 1.758-.659 3.602-2.466 4.024a2.83 2.83 0 0 1-.76.102 3.33 3.33 0 0 1-3.228-2.57Zm240.475-9.165c-.169-1.861 1.199-3.467 3.024-3.602 1.825-.169 3.43 1.2 3.599 3.027.135 1.86-1.233 3.466-3.058 3.601-.101 0-.169.034-.27.034-1.69 0-3.16-1.336-3.295-3.06Zm-84.417-1.793c-.304-1.826.964-3.534 2.772-3.805a3.281 3.281 0 0 1 3.801 2.774 3.282 3.282 0 0 1-2.771 3.804c-.169.034-.338.034-.507.034a3.325 3.325 0 0 1-3.295-2.79v-.017ZM2.991 308.011c-.27-1.793.997-3.501 2.838-3.771a3.37 3.37 0 0 1 3.768 2.857c.237 1.827-1.03 3.501-2.855 3.738-.135.033-.304.033-.44.033a3.302 3.302 0 0 1-3.294-2.857H2.99Zm85.413-1.996a3.332 3.332 0 0 1 2.957-3.669c1.79-.169 3.464 1.133 3.633 2.959a3.31 3.31 0 0 1-2.924 3.669c-.135.034-.236.034-.371.034a3.304 3.304 0 0 1-3.295-2.993Zm241.303-8.522a3.28 3.28 0 0 1 2.686-3.839c1.791-.338 3.532.863 3.87 2.706v-.034c.304 1.826-.896 3.568-2.687 3.872-.203.034-.405.068-.608.068a3.31 3.31 0 0 1-3.261-2.773Zm-86.174-1.133c-.608-1.725.338-3.636 2.062-4.261a3.334 3.334 0 0 1 4.224 2.063 3.367 3.367 0 0 1-2.062 4.261c-.371.101-.726.169-1.064.169a3.325 3.325 0 0 1-3.16-2.232Zm-242.4-5.073h.033c-.17-1.826 1.2-3.433 3.024-3.602 1.825-.135 3.43 1.234 3.6 3.027a3.393 3.393 0 0 1-3.059 3.636h-.27c-1.69 0-3.16-1.336-3.329-3.061Zm89.704 1.065a3.265 3.265 0 0 1-2.957-3.635c.17-1.827 1.791-3.163 3.633-2.993a3.364 3.364 0 0 1 2.99 3.669c-.202 1.708-1.638 2.993-3.328 2.993-.101 0-.203 0-.338-.034Zm235.203-10.754h.034c-.541-1.759.541-3.602 2.298-4.093 1.757-.507 3.599.542 4.089 2.3.49 1.759-.541 3.602-2.298 4.092a2.93 2.93 0 0 1-.929.136c-1.437 0-2.771-.964-3.194-2.435Zm-89.215.27c-.929-1.606-.405-3.635 1.166-4.565a3.358 3.358 0 0 1 4.596 1.166c.929 1.573.406 3.636-1.166 4.566a3.455 3.455 0 0 1-1.69.473 3.362 3.362 0 0 1-2.889-1.623l-.017-.017ZM.203 274.496c-.068-1.827 1.368-3.399 3.193-3.433a3.285 3.285 0 0 1 3.43 3.23 3.32 3.32 0 0 1-3.193 3.432h-.135a3.297 3.297 0 0 1-3.295-3.229Zm94.537 1.758c-1.571-.93-2.061-2.993-1.132-4.566a3.345 3.345 0 0 1 4.596-1.132c1.572.93 2.061 2.993 1.132 4.565-.642 1.032-1.74 1.64-2.855 1.64-.592 0-1.166-.169-1.724-.507h-.017Zm132.623-7.136a3.32 3.32 0 0 1 .135-4.701c1.335-1.268 3.464-1.2 4.697.136 1.268 1.335 1.2 3.466-.135 4.734a3.372 3.372 0 0 1-2.264.897 3.332 3.332 0 0 1-2.433-1.066Zm93.507-2.993a3.378 3.378 0 0 1 1.858-4.329 3.355 3.355 0 0 1 4.326 1.894c.659 1.708-.169 3.636-1.859 4.295a3.196 3.196 0 0 1-1.233.237c-1.335 0-2.602-.761-3.092-2.097ZM0 263.166a3.336 3.336 0 0 1 3.329-3.331 3.347 3.347 0 0 1 3.328 3.331 3.347 3.347 0 0 1-3.328 3.331A3.336 3.336 0 0 1 0 263.166Zm104.811-.101c-1.2-1.404-.997-3.501.405-4.701 1.436-1.167 3.532-.964 4.698.439a3.329 3.329 0 0 1-.406 4.701c-.625.541-1.402.761-2.129.761-.963 0-1.926-.406-2.568-1.2Zm110.42-4.16a3.327 3.327 0 0 1-.895-4.634 3.326 3.326 0 0 1 4.596-.93 3.335 3.335 0 0 1 .929 4.634 3.334 3.334 0 0 1-2.771 1.505 3.516 3.516 0 0 1-1.859-.558v-.017Zm-96.869-5.428c-.794-1.674-.101-3.67 1.538-4.464 1.672-.795 3.632-.136 4.46 1.538.794 1.674.135 3.67-1.537 4.464a3.224 3.224 0 0 1-1.47.339c-1.234 0-2.4-.694-2.991-1.86v-.017Zm195.698-2.131c-.861-1.623-.236-3.669 1.403-4.498 1.605-.862 3.633-.237 4.494 1.404.828 1.623.237 3.635-1.402 4.498-.49.27-1.031.372-1.572.372a3.262 3.262 0 0 1-2.923-1.759v-.017Zm-112.904.237c-1.69-.66-2.568-2.638-1.859-4.329.626-1.691 2.569-2.57 4.292-1.86 1.69.659 2.569 2.604 1.893 4.295-.541 1.302-1.791 2.131-3.092 2.131-.44 0-.828-.102-1.234-.237ZM3.599 249.858a3.35 3.35 0 0 1-3.16-3.534 3.323 3.323 0 0 1 3.498-3.128c1.825.067 3.261 1.674 3.16 3.5-.102 1.759-1.572 3.162-3.329 3.162h-.169Zm130.122-2.807c-.507-1.759.541-3.602 2.332-4.092 1.757-.507 3.599.541 4.089 2.3.507 1.792-.541 3.635-2.332 4.092a2.753 2.753 0 0 1-.895.135 3.332 3.332 0 0 1-3.194-2.435Zm52.059.169a3.356 3.356 0 0 1-2.67-3.889 3.354 3.354 0 0 1 3.887-2.672c1.791.338 2.99 2.097 2.669 3.889-.304 1.607-1.689 2.74-3.261 2.74-.236 0-.439-.034-.642-.068h.017Zm-35.855-3.838c-.203-1.827 1.098-3.501 2.923-3.704 1.825-.236 3.498 1.1 3.701 2.892.202 1.826-1.099 3.5-2.924 3.703a1.254 1.254 0 0 1-.371.034c-1.673 0-3.126-1.234-3.329-2.925Zm19.837 2.198c-1.842-.068-3.261-1.573-3.227-3.433.033-1.826 1.571-3.263 3.396-3.23 1.825.034 3.295 1.573 3.261 3.399-.068 1.827-1.538 3.264-3.329 3.264h-.101Zm135.951-8.201c-1.03-1.539-.642-3.602.896-4.634a3.337 3.337 0 0 1 3.734 5.53 3.41 3.41 0 0 1-1.859.558 3.365 3.365 0 0 1-2.771-1.471v.017ZM4.697 233.185c-1.79-.169-3.126-1.792-2.957-3.636a3.376 3.376 0 0 1 3.667-2.993 3.328 3.328 0 0 1 2.957 3.67 3.328 3.328 0 0 1-3.295 2.993c-.101 0-.237 0-.372-.034Zm291.166-8.725a3.33 3.33 0 0 1 .371-4.701c1.403-1.201 3.498-1.066 4.698.338a3.33 3.33 0 0 1-.372 4.701 3.277 3.277 0 0 1-2.163.828 3.4 3.4 0 0 1-2.534-1.166ZM6.657 216.664c-1.841-.27-3.058-1.961-2.788-3.804.304-1.793 1.994-3.061 3.802-2.774 1.825.271 3.058 1.962 2.788 3.805-.236 1.623-1.673 2.824-3.295 2.824-.169 0-.338-.034-.49-.068l-.017.017Zm277.952-3.906a3.324 3.324 0 0 1-.202-4.701 3.285 3.285 0 0 1 4.697-.203c1.368 1.235 1.436 3.332.203 4.701a3.435 3.435 0 0 1-2.467 1.066 3.39 3.39 0 0 1-2.231-.863Zm-183.854-8.793a3.32 3.32 0 0 1 .136-4.701h-.034c.203-.169.405-.338.625-.473a3.094 3.094 0 0 1-1.994.169 3.363 3.363 0 0 1-2.5-3.991c.405-1.792 2.196-2.891 3.987-2.503 1.791.406 2.889 2.199 2.501 3.991-.237.93-.794 1.674-1.572 2.131a3.35 3.35 0 0 1 3.667.761c1.267 1.336 1.234 3.466-.101 4.734a3.423 3.423 0 0 1-2.298.897 3.35 3.35 0 0 1-2.433-1.032l.016.017Zm171.266-1.505c-1.504-1.065-1.825-3.128-.76-4.633 1.064-1.505 3.16-1.826 4.663-.761 1.47 1.099 1.825 3.162.761 4.667a3.41 3.41 0 0 1-2.738 1.37 3.31 3.31 0 0 1-1.926-.626v-.017Zm-262.61-2.232a3.336 3.336 0 0 1-2.602-3.923 3.337 3.337 0 0 1 3.954-2.57c1.791.372 2.957 2.096 2.569 3.906a3.27 3.27 0 0 1-3.228 2.672c-.236 0-.473 0-.692-.068v-.017Zm104.186-6.798c-.929-1.606-.439-3.635 1.132-4.599a3.305 3.305 0 0 1 4.562 1.133 3.308 3.308 0 0 1-1.098 4.565 3.246 3.246 0 0 1-1.74.508 3.37 3.37 0 0 1-2.856-1.607Zm144.67.372c-1.605-.896-2.163-2.891-1.301-4.531.896-1.607 2.94-2.199 4.528-1.303 1.606.863 2.197 2.892 1.335 4.532-.642 1.099-1.757 1.725-2.923 1.725-.557 0-1.098-.169-1.639-.44v.017Zm-130.054-8.336c-.693-1.691.101-3.67 1.757-4.397 1.69-.693 3.667.102 4.393 1.793a3.38 3.38 0 0 1-1.757 4.362c-.439.17-.862.271-1.301.271a3.38 3.38 0 0 1-3.092-2.029Zm115.405 1.37c-1.69-.694-2.501-2.672-1.825-4.329.693-1.725 2.636-2.537 4.359-1.86 1.707.693 2.501 2.637 1.842 4.362a3.395 3.395 0 0 1-3.092 2.063c-.439 0-.828-.067-1.267-.236h-.017Zm-230.574-2.858a3.333 3.333 0 0 1-2.399-4.059 3.374 3.374 0 0 1 4.038-2.401c1.791.474 2.856 2.3 2.433 4.092h-.033c-.372 1.505-1.74 2.469-3.194 2.469a3.5 3.5 0 0 1-.828-.101h-.017Zm90.55-1.167c-1.74-.541-2.737-2.435-2.163-4.16a3.322 3.322 0 0 1 4.157-2.198 3.369 3.369 0 0 1 2.197 4.194c-.474 1.403-1.758 2.333-3.194 2.333-.304 0-.659-.068-.997-.169Zm40.214-3.264c-.523-1.758.507-3.635 2.265-4.126 1.757-.524 3.599.508 4.122 2.266.49 1.759-.506 3.636-2.264 4.126a3.074 3.074 0 0 1-.929.136 3.327 3.327 0 0 1-3.194-2.402Zm84.451 2.063c-1.758-.507-2.822-2.333-2.332-4.092.49-1.758 2.332-2.807 4.089-2.333 1.791.507 2.822 2.333 2.332 4.092a3.31 3.31 0 0 1-3.194 2.469c-.304 0-.591-.068-.895-.136Zm-15.883-3.466c-1.791-.304-3.059-1.995-2.772-3.839a3.35 3.35 0 0 1 3.836-2.739c1.791.271 3.025 1.995 2.72 3.839-.236 1.64-1.672 2.807-3.261 2.807-.169 0-.371-.034-.54-.068h.017Zm-52.465-2.706c-.304-1.826.896-3.568 2.72-3.872a3.378 3.378 0 0 1 3.87 2.706c.304 1.826-.93 3.568-2.737 3.872a3.46 3.46 0 0 1-.592.034c-1.571 0-2.957-1.133-3.261-2.74Zm36.244.964c-1.825-.135-3.228-1.708-3.126-3.534.101-1.826 1.706-3.23 3.531-3.128a3.324 3.324 0 0 1 3.126 3.5 3.336 3.336 0 0 1-3.329 3.162h-.202Zm-19.736-3.263a3.325 3.325 0 0 1 3.126-3.501c1.825-.101 3.396 1.302 3.532 3.129.067 1.826-1.335 3.432-3.16 3.534h-.169c-1.757 0-3.227-1.404-3.329-3.162Zm-158.948-5.225a3.368 3.368 0 0 1-2.196-4.194h.034c.54-1.725 2.433-2.706 4.156-2.165a3.322 3.322 0 0 1 2.163 4.194 3.326 3.326 0 0 1-3.16 2.334 3.44 3.44 0 0 1-.997-.169Zm91.479-.863c-1.689-.693-2.5-2.638-1.824-4.363.692-1.691 2.669-2.502 4.359-1.792 1.706.659 2.501 2.638 1.842 4.329h-.034c-.49 1.302-1.724 2.063-3.058 2.063-.44 0-.828-.068-1.268-.237h-.017Zm-86.207-14.965c-1.706-.626-2.568-2.57-1.926-4.295a3.358 3.358 0 0 1 4.292-1.928c1.723.66 2.602 2.571 1.926 4.295a3.32 3.32 0 0 1-3.092 2.165c-.406 0-.794-.068-1.2-.237Zm92.899-.304c-1.623-.829-2.265-2.824-1.437-4.498a3.326 3.326 0 0 1 4.495-1.404c1.622.829 2.264 2.858 1.436 4.498a3.343 3.343 0 0 1-2.957 1.793 3.22 3.22 0 0 1-1.537-.406v.017Zm8.127-14.526c-1.572-.997-1.96-3.06-.963-4.599 1.03-1.573 3.092-1.962 4.629-.964a3.333 3.333 0 0 1 .93 4.633 3.312 3.312 0 0 1-2.771 1.505c-.625 0-1.268-.203-1.825-.558v-.017Zm-94.876-.659c-1.69-.727-2.433-2.74-1.69-4.397.761-1.674 2.721-2.435 4.394-1.708 1.673.761 2.467 2.74 1.706 4.397a3.273 3.273 0 0 1-4.393 1.691l-.017.017Zm104.49-12.885a3.364 3.364 0 0 1-.405-4.701c1.199-1.404 3.294-1.607 4.697-.406a3.303 3.303 0 0 1 .405 4.701 3.274 3.274 0 0 1-2.534 1.2c-.76 0-1.538-.27-2.163-.794Zm-97.46-2.233c-1.64-.828-2.265-2.823-1.437-4.464.828-1.674 2.856-2.299 4.495-1.471a3.373 3.373 0 0 1 1.436 4.498 3.312 3.312 0 0 1-2.957 1.826c-.54 0-1.03-.135-1.538-.405v.016Zm108.68-10.027c-1.2-1.37-1.099-3.5.27-4.735a3.35 3.35 0 0 1 4.697.271 3.323 3.323 0 0 1-.236 4.701 3.388 3.388 0 0 1-2.231.862 3.436 3.436 0 0 1-2.5-1.099Zm-100.756-4.633a3.311 3.311 0 0 1-1.132-4.566 3.305 3.305 0 0 1 4.562-1.133c1.572.93 2.095 2.959 1.166 4.566a3.375 3.375 0 0 1-2.855 1.606c-.592 0-1.2-.135-1.724-.473h-.017Zm113.614-5.969c-1.031-1.54-.591-3.602.929-4.634 1.538-.997 3.599-.591 4.596.93 1.031 1.573.592 3.636-.929 4.634-.558.372-1.2.558-1.825.558a3.356 3.356 0 0 1-2.771-1.505v.017Zm128.922-2.706c-1.723-.592-2.669-2.503-2.061-4.227.591-1.725 2.501-2.672 4.224-2.063 1.757.558 2.67 2.468 2.095 4.227a3.384 3.384 0 0 1-3.193 2.232c-.338 0-.693-.034-1.065-.169ZM171.739 92.31c-.761-1.674-.034-3.67 1.639-4.43 1.673-.727 3.666 0 4.427 1.674.76 1.674 0 3.67-1.673 4.396a3.23 3.23 0 0 1-1.369.305c-1.267 0-2.467-.694-3.024-1.928v-.017Zm-119.038.372a3.353 3.353 0 0 1-.828-4.633 3.287 3.287 0 0 1 4.63-.829c1.537 1.032 1.892 3.129.828 4.634a3.315 3.315 0 0 1-2.738 1.437c-.625 0-1.3-.203-1.892-.592v-.017Zm218.526.135c-1.723-.558-2.687-2.468-2.095-4.227.557-1.725 2.433-2.672 4.19-2.097 1.757.592 2.704 2.469 2.129 4.194a3.342 3.342 0 0 1-3.159 2.3c-.372 0-.693-.068-1.065-.17Zm-84.045-6.662c-.49-1.792.541-3.636 2.298-4.092 1.758-.507 3.599.541 4.089 2.3.507 1.758-.54 3.601-2.298 4.092a2.808 2.808 0 0 1-.895.135 3.303 3.303 0 0 1-3.194-2.435Zm68.348 2.266c-1.791-.44-2.923-2.198-2.501-3.99a3.31 3.31 0 0 1 3.954-2.503c1.791.405 2.94 2.198 2.501 3.99-.338 1.54-1.69 2.57-3.227 2.57-.237 0-.491 0-.727-.067Zm-16.086-2.858c-1.825-.237-3.092-1.86-2.889-3.703a3.334 3.334 0 0 1 3.734-2.892c1.825.237 3.092 1.894 2.889 3.737-.202 1.674-1.672 2.892-3.328 2.892-.135 0-.271 0-.406-.034Zm-36.074-3.128c-.203-1.793 1.064-3.467 2.889-3.703 1.825-.237 3.498 1.065 3.734 2.891.237 1.826-1.098 3.5-2.94 3.703-.135.034-.27.034-.389.034-1.672 0-3.058-1.234-3.294-2.925Zm19.87 2.03c-1.858-.035-3.328-1.54-3.295-3.366 0-1.826 1.538-3.331 3.363-3.297 1.825 0 3.295 1.538 3.295 3.365-.034 1.792-1.487 3.297-3.329 3.297h-.034Zm68.533-2.064c-1.723-.592-2.669-2.503-2.061-4.227.608-1.725 2.501-2.672 4.224-2.063 1.758.591 2.67 2.468 2.062 4.227a3.314 3.314 0 0 1-3.126 2.232c-.372 0-.727-.034-1.099-.169ZM62.484 79.205c-1.436-1.133-1.639-3.23-.49-4.667a3.338 3.338 0 0 1 4.698-.541c1.436 1.167 1.672 3.263.507 4.7a3.31 3.31 0 0 1-2.603 1.235c-.726 0-1.47-.237-2.095-.727h-.017Zm10.747-12.733a3.32 3.32 0 0 1-.136-4.7c1.234-1.37 3.33-1.438 4.698-.17 1.335 1.268 1.402 3.399.135 4.735a3.43 3.43 0 0 1-2.433 1.031 3.341 3.341 0 0 1-2.264-.896Zm223.916.17c-1.724-.593-2.67-2.503-2.062-4.228.609-1.725 2.501-2.672 4.224-2.063 1.724.592 2.67 2.469 2.062 4.193a3.3 3.3 0 0 1-3.126 2.266c-.372 0-.727-.067-1.098-.169ZM84.907 54.617a3.323 3.323 0 0 1 .236-4.7c1.335-1.235 3.464-1.133 4.697.236a3.323 3.323 0 0 1-.236 4.701c-.642.558-1.437.863-2.23.863-.896 0-1.843-.373-2.468-1.1Zm217.63-3.737c-1.724-.592-2.67-2.502-2.062-4.227a3.3 3.3 0 0 1 4.225-2.063c1.723.575 2.669 2.469 2.061 4.227a3.314 3.314 0 0 1-3.126 2.232c-.372 0-.727-.067-1.098-.169ZM97.494 43.745c-1.132-1.47-.828-3.534.626-4.667 1.47-1.133 3.531-.828 4.663.626a3.342 3.342 0 0 1-.642 4.667c-.591.474-1.301.66-1.994.66-.997 0-1.994-.44-2.67-1.303l.017.017Zm13.45-9.723c-.963-1.572-.507-3.635 1.031-4.6a3.342 3.342 0 0 1 4.63 1.032 3.346 3.346 0 0 1-1.065 4.6 3.333 3.333 0 0 1-4.579-1.031h-.017Zm197 1.1c-1.741-.592-2.67-2.503-2.062-4.228.592-1.759 2.501-2.705 4.225-2.097 1.723.592 2.669 2.503 2.061 4.262a3.324 3.324 0 0 1-3.16 2.232c-.338 0-.693-.068-1.064-.17ZM125.239 25.5c-.828-1.623-.169-3.636 1.436-4.498 1.673-.829 3.667-.17 4.495 1.471a3.363 3.363 0 0 1-1.437 4.498c-.506.237-.996.372-1.537.372-1.2 0-2.366-.66-2.957-1.826V25.5Zm179.258-2.57c-1.69-.727-2.467-2.69-1.757-4.397a3.326 3.326 0 0 1 4.393-1.725c1.689.727 2.467 2.706 1.723 4.363a3.299 3.299 0 0 1-3.058 2.03c-.439 0-.862-.102-1.301-.271Zm-164.271-4.634a3.371 3.371 0 0 1 1.859-4.329c1.69-.693 3.633.136 4.326 1.827.692 1.724-.136 3.67-1.825 4.362-.44.136-.828.237-1.268.237a3.356 3.356 0 0 1-3.092-2.097Zm148.962-1.065c-1.757-.558-2.737-2.435-2.162-4.16.557-1.758 2.433-2.74 4.19-2.164a3.317 3.317 0 0 1 2.129 4.193c-.439 1.404-1.757 2.3-3.16 2.3-.338 0-.659-.034-.997-.169Zm-133.383-4.735c-.541-1.758.473-3.635 2.231-4.16 1.757-.54 3.632.474 4.156 2.233.541 1.758-.473 3.635-2.23 4.16a3.086 3.086 0 0 1-.963.135 3.356 3.356 0 0 1-3.194-2.368Zm117.568.372h.034a3.32 3.32 0 0 1-2.501-3.99c.439-1.793 2.23-2.892 3.988-2.47 1.791.407 2.889 2.199 2.5 3.991a3.352 3.352 0 0 1-3.261 2.57c-.236 0-.507-.033-.76-.1ZM171.84 8.1c-.372-1.793.761-3.568 2.569-3.923 1.791-.372 3.599.76 3.97 2.57.372 1.826-.794 3.602-2.602 3.957a4.131 4.131 0 0 1-.659.067 3.333 3.333 0 0 1-3.261-2.671h-.017Zm85.447 1.606a3.337 3.337 0 0 1-2.771-3.838c.304-1.827 1.994-3.027 3.819-2.774 1.791.305 3.024 1.996 2.771 3.839a3.335 3.335 0 0 1-3.295 2.79c-.169 0-.372 0-.524-.034v.017Zm-69.108-4.565c-.236-1.827 1.099-3.5 2.89-3.704 1.825-.236 3.497 1.066 3.734 2.892.203 1.792-1.098 3.466-2.889 3.703-.169.034-.305.034-.44.034a3.309 3.309 0 0 1-3.295-2.925Zm52.803 2.502c-1.791-.203-3.16-1.826-2.991-3.635A3.35 3.35 0 0 1 241.624.98c1.825.203 3.193 1.792 2.991 3.635-.169 1.725-1.589 3.027-3.295 3.027h-.338Zm-36.244-4.092a3.382 3.382 0 0 1 3.194-3.5c1.825-.068 3.396 1.37 3.464 3.196.067 1.826-1.369 3.399-3.194 3.466h-.135c-1.757 0-3.227-1.403-3.329-3.162Zm19.871 3.095c-1.825-.068-3.295-1.607-3.227-3.433.067-1.826 1.571-3.298 3.43-3.23 1.841.034 3.261 1.573 3.227 3.399-.068 1.826-1.538 3.264-3.329 3.264h-.101Z"/></g><defs><clipPath id="a"><path fill="#fff" d="M0 0h339v487H0z"/></clipPath></defs></svg>