<svg xmlns="http://www.w3.org/2000/svg" width="306" height="487" fill="none"><g clip-path="url(#a)"><path fill="#fff" d="M282.564 483.567a3.419 3.419 0 0 1 3.423-3.432c1.888 0 3.422 1.555 3.422 3.432 0 1.894-1.551 3.433-3.422 3.433a3.42 3.42 0 0 1-3.423-3.433Zm-17.147 0a3.419 3.419 0 0 1 3.423-3.432c1.888 0 3.422 1.555 3.422 3.432 0 1.894-1.551 3.433-3.422 3.433a3.42 3.42 0 0 1-3.423-3.433Zm-17.147 0a3.419 3.419 0 0 1 3.423-3.432c1.888 0 3.422 1.555 3.422 3.432 0 1.894-1.551 3.433-3.422 3.433a3.42 3.42 0 0 1-3.423-3.433Zm-17.147 0a3.44 3.44 0 0 1 3.423-3.432c1.888 0 3.422 1.555 3.422 3.432 0 1.894-1.551 3.433-3.422 3.433-1.889 0-3.423-1.556-3.423-3.433Zm-17.147 0a3.418 3.418 0 0 1 3.422-3.432c1.889 0 3.423 1.555 3.423 3.432a3.441 3.441 0 0 1-3.423 3.433 3.42 3.42 0 0 1-3.422-3.433Zm-17.147 0a3.44 3.44 0 0 1 3.422-3.432c1.889 0 3.423 1.555 3.423 3.432a3.441 3.441 0 0 1-3.423 3.433c-1.888 0-3.422-1.556-3.422-3.433Zm-17.147 0a3.418 3.418 0 0 1 3.422-3.432c1.889 0 3.423 1.555 3.423 3.432a3.441 3.441 0 0 1-3.423 3.433 3.42 3.42 0 0 1-3.422-3.433Zm-17.147 0a3.44 3.44 0 0 1 3.422-3.432c1.889 0 3.423 1.555 3.423 3.432a3.441 3.441 0 0 1-3.423 3.433c-1.888 0-3.422-1.556-3.422-3.433Zm-17.147 0a3.418 3.418 0 0 1 3.422-3.432c1.889 0 3.423 1.555 3.423 3.432A3.441 3.441 0 0 1 148.81 487a3.42 3.42 0 0 1-3.422-3.433Zm-17.148 0a3.42 3.42 0 0 1 3.423-3.432c1.888 0 3.423 1.555 3.423 3.432a3.441 3.441 0 0 1-3.423 3.433 3.42 3.42 0 0 1-3.423-3.433Zm-17.147 0a3.42 3.42 0 0 1 3.423-3.432c1.888 0 3.423 1.555 3.423 3.432a3.441 3.441 0 0 1-3.423 3.433 3.42 3.42 0 0 1-3.423-3.433Zm-17.147 0a3.419 3.419 0 0 1 3.423-3.432c1.888 0 3.423 1.555 3.423 3.432A3.442 3.442 0 0 1 97.369 487a3.42 3.42 0 0 1-3.423-3.433Zm-17.147 0a3.44 3.44 0 0 1 3.423-3.432c1.888 0 3.423 1.555 3.423 3.432 0 1.894-1.551 3.433-3.423 3.433-1.888 0-3.423-1.556-3.423-3.433Zm-17.147 0a3.419 3.419 0 0 1 3.423-3.432c1.888 0 3.423 1.555 3.423 3.432 0 1.894-1.552 3.433-3.423 3.433a3.42 3.42 0 0 1-3.423-3.433Zm-17.147 0a3.44 3.44 0 0 1 3.423-3.432c1.888 0 3.422 1.555 3.422 3.432 0 1.894-1.55 3.433-3.422 3.433-1.889 0-3.423-1.556-3.423-3.433Zm-17.147 0a3.419 3.419 0 0 1 3.423-3.432c1.888 0 3.422 1.555 3.422 3.432 0 1.894-1.55 3.433-3.422 3.433a3.42 3.42 0 0 1-3.423-3.433Zm-17.147 0a3.44 3.44 0 0 1 3.423-3.432c1.888 0 3.422 1.555 3.422 3.432 0 1.894-1.55 3.433-3.422 3.433-1.889 0-3.423-1.556-3.423-3.433Zm290.977-.625c0-1.894 1.552-3.399 3.457-3.399 1.888 0 3.422 1.522 3.422 3.399a3.419 3.419 0 0 1-3.422 3.432c-1.922 0-3.457-1.522-3.457-3.432ZM6.491 467.977a3.43 3.43 0 0 1 3.423-3.433 3.43 3.43 0 0 1 3.423 3.433 3.441 3.441 0 0 1-3.423 3.432c-1.888 0-3.423-1.555-3.423-3.432Zm292.613-2.233c0-1.893 1.551-3.432 3.456-3.432 1.889 0 3.423 1.555 3.423 3.432 0 1.928-1.551 3.467-3.423 3.467a3.455 3.455 0 0 1-3.456-3.467ZM6.491 450.779a3.43 3.43 0 0 1 3.423-3.432 3.43 3.43 0 0 1 3.423 3.432c0 1.894-1.551 3.433-3.423 3.433-1.888 0-3.423-1.556-3.423-3.433Zm292.613-2.232c0-1.894 1.551-3.399 3.456-3.399 1.889 0 3.423 1.522 3.423 3.399a3.42 3.42 0 0 1-3.423 3.433c-1.922 0-3.456-1.522-3.456-3.433ZM6.491 433.565a3.43 3.43 0 0 1 3.423-3.432 3.43 3.43 0 0 1 3.423 3.432c0 1.894-1.551 3.433-3.423 3.433-1.888 0-3.423-1.556-3.423-3.433Zm292.613-2.198a3.455 3.455 0 0 1 3.456-3.466c1.889 0 3.423 1.555 3.423 3.466 0 1.894-1.551 3.399-3.423 3.399-1.922 0-3.456-1.522-3.456-3.399ZM6.491 416.368a3.43 3.43 0 0 1 3.423-3.433 3.43 3.43 0 0 1 3.423 3.433 3.42 3.42 0 0 1-3.423 3.433 3.42 3.42 0 0 1-3.423-3.433Zm292.613-2.232c0-1.894 1.551-3.433 3.456-3.433 1.889 0 3.423 1.556 3.423 3.433a3.42 3.42 0 0 1-3.423 3.433c-1.922 0-3.456-1.522-3.456-3.433Zm-11.499-5.648a3.42 3.42 0 0 1 3.423-3.433 3.43 3.43 0 0 1 3.423 3.433 3.43 3.43 0 0 1-3.423 3.433 3.42 3.42 0 0 1-3.423-3.433Zm-17.147 0a3.441 3.441 0 0 1 3.423-3.433 3.43 3.43 0 0 1 3.423 3.433 3.43 3.43 0 0 1-3.423 3.433c-1.888 0-3.423-1.556-3.423-3.433Zm-17.147 0a3.42 3.42 0 0 1 3.423-3.433 3.43 3.43 0 0 1 3.422 3.433 3.43 3.43 0 0 1-3.422 3.433 3.42 3.42 0 0 1-3.423-3.433Zm-17.147 0a3.441 3.441 0 0 1 3.423-3.433 3.43 3.43 0 0 1 3.422 3.433 3.43 3.43 0 0 1-3.422 3.433c-1.889 0-3.423-1.556-3.423-3.433Zm-17.147 0a3.441 3.441 0 0 1 3.423-3.433 3.43 3.43 0 0 1 3.422 3.433 3.43 3.43 0 0 1-3.422 3.433c-1.889 0-3.423-1.556-3.423-3.433Zm-17.147 0a3.441 3.441 0 0 1 3.423-3.433 3.43 3.43 0 0 1 3.422 3.433 3.43 3.43 0 0 1-3.422 3.433c-1.889 0-3.423-1.556-3.423-3.433Zm-92.446 0a3.43 3.43 0 0 1 3.423-3.433 3.41 3.41 0 0 1 3.423 3.433 3.42 3.42 0 0 1-3.423 3.433c-1.888 0-3.423-1.556-3.423-3.433Zm-17.147 0a3.43 3.43 0 0 1 3.423-3.433 3.409 3.409 0 0 1 3.422 3.433 3.42 3.42 0 0 1-3.422 3.433c-1.889 0-3.423-1.556-3.423-3.433Zm-17.147 0a3.43 3.43 0 0 1 3.423-3.433 3.43 3.43 0 0 1 3.422 3.433c0 1.894-1.55 3.433-3.422 3.433-1.889 0-3.423-1.556-3.423-3.433Zm-17.147 0a3.43 3.43 0 0 1 3.423-3.433 3.409 3.409 0 0 1 3.422 3.433 3.42 3.42 0 0 1-3.422 3.433c-1.889 0-3.423-1.556-3.423-3.433Zm-17.147 0a3.43 3.43 0 0 1 3.423-3.433 3.43 3.43 0 0 1 3.422 3.433c0 1.894-1.55 3.433-3.422 3.433-1.889 0-3.423-1.556-3.423-3.433Zm-17.147 0a3.43 3.43 0 0 1 3.423-3.433 3.409 3.409 0 0 1 3.422 3.433 3.42 3.42 0 0 1-3.422 3.433c-1.889 0-3.423-1.556-3.423-3.433Zm-17.147 0a3.43 3.43 0 0 1 3.423-3.433 3.43 3.43 0 0 1 3.422 3.433c0 1.894-1.551 3.433-3.422 3.433-1.889 0-3.423-1.556-3.423-3.433Zm188.82-10.636c0-1.894 1.5-3.433 3.423-3.433 1.888 0 3.422 1.556 3.422 3.433 0 1.894-1.551 3.433-3.422 3.433a3.409 3.409 0 0 1-3.423-3.433Zm-84.977-5.648a3.42 3.42 0 0 1 3.423-3.433 3.42 3.42 0 0 1 3.423 3.433c0 1.894-1.552 3.433-3.423 3.433-1.888 0-3.423-1.556-3.423-3.433Zm84.977-11.566c0-1.894 1.5-3.433 3.423-3.433 1.888 0 3.422 1.556 3.422 3.433a3.42 3.42 0 0 1-3.422 3.433c-1.923 0-3.423-1.505-3.423-3.433Zm-84.977-5.648a3.441 3.441 0 0 1 3.423-3.433c1.888 0 3.423 1.556 3.423 3.433 0 1.894-1.552 3.433-3.423 3.433-1.888 0-3.423-1.556-3.423-3.433Zm84.977-11.566c0-1.894 1.5-3.433 3.423-3.433 1.888 0 3.422 1.556 3.422 3.433a3.44 3.44 0 0 1-3.422 3.432 3.408 3.408 0 0 1-3.423-3.432Zm-84.977-5.648a3.441 3.441 0 0 1 3.423-3.433c1.888 0 3.423 1.556 3.423 3.433 0 1.894-1.552 3.433-3.423 3.433-1.888 0-3.423-1.556-3.423-3.433Zm84.977-11.566c0-1.894 1.5-3.433 3.423-3.433 1.888 0 3.422 1.556 3.422 3.433a3.419 3.419 0 0 1-3.422 3.432c-1.923 0-3.423-1.505-3.423-3.432Zm-84.977-5.648a3.441 3.441 0 0 1 3.423-3.433c1.888 0 3.423 1.556 3.423 3.433a3.441 3.441 0 0 1-3.423 3.432c-1.888 0-3.423-1.555-3.423-3.432Zm84.977-11.566c0-1.894 1.5-3.433 3.423-3.433 1.888 0 3.422 1.556 3.422 3.433 0 1.893-1.551 3.432-3.422 3.432a3.408 3.408 0 0 1-3.423-3.432Zm-84.977-5.648a3.441 3.441 0 0 1 3.423-3.433c1.888 0 3.423 1.556 3.423 3.433a3.441 3.441 0 0 1-3.423 3.432c-1.888 0-3.423-1.555-3.423-3.432Zm84.977-11.567c0-1.893 1.5-3.432 3.423-3.432 1.888 0 3.422 1.555 3.422 3.432a3.42 3.42 0 0 1-3.422 3.433c-1.923 0-3.423-1.505-3.423-3.433Zm-84.977-5.647a3.42 3.42 0 0 1 3.423-3.433 3.42 3.42 0 0 1 3.423 3.433 3.442 3.442 0 0 1-3.423 3.432c-1.888 0-3.423-1.555-3.423-3.432Zm84.977-11.567c0-1.894 1.5-3.432 3.423-3.432 1.888 0 3.422 1.555 3.422 3.432a3.42 3.42 0 0 1-3.422 3.433c-1.923 0-3.423-1.505-3.423-3.433Zm-84.977-5.647a3.441 3.441 0 0 1 3.423-3.433c1.888 0 3.423 1.556 3.423 3.433a3.442 3.442 0 0 1-3.423 3.432c-1.888 0-3.423-1.556-3.423-3.432Zm84.977-11.567c0-1.894 1.5-3.432 3.423-3.432 1.888 0 3.422 1.555 3.422 3.432a3.42 3.42 0 0 1-3.422 3.433c-1.923 0-3.423-1.505-3.423-3.433Zm-84.977-5.648a3.42 3.42 0 0 1 3.423-3.432 3.42 3.42 0 0 1 3.423 3.432c0 1.894-1.552 3.433-3.423 3.433-1.888 0-3.423-1.556-3.423-3.433Zm84.977-11.566c0-1.894 1.5-3.433 3.423-3.433 1.888 0 3.422 1.556 3.422 3.433a3.42 3.42 0 0 1-3.422 3.433c-1.923 0-3.423-1.505-3.423-3.433Zm-84.977-5.648a3.44 3.44 0 0 1 3.423-3.432c1.888 0 3.423 1.555 3.423 3.432 0 1.894-1.552 3.433-3.423 3.433-1.888 0-3.423-1.556-3.423-3.433Zm84.977-11.566c0-1.894 1.5-3.433 3.423-3.433 1.888 0 3.422 1.556 3.422 3.433 0 1.894-1.551 3.433-3.422 3.433a3.409 3.409 0 0 1-3.423-3.433Zm-84.977-5.648a3.42 3.42 0 0 1 3.423-3.432 3.42 3.42 0 0 1 3.423 3.432c0 1.894-1.552 3.433-3.423 3.433-1.888 0-3.423-1.556-3.423-3.433Zm84.977-11.566c0-1.894 1.5-3.433 3.423-3.433 1.888 0 3.422 1.556 3.422 3.433a3.42 3.42 0 0 1-3.422 3.433c-1.923 0-3.423-1.505-3.423-3.433Zm-84.977-5.648a3.441 3.441 0 0 1 3.423-3.433c1.888 0 3.423 1.556 3.423 3.433 0 1.894-1.552 3.433-3.423 3.433-1.888 0-3.423-1.556-3.423-3.433Zm84.977-11.566c0-1.894 1.5-3.433 3.423-3.433 1.888 0 3.422 1.556 3.422 3.433 0 1.894-1.551 3.433-3.422 3.433a3.409 3.409 0 0 1-3.423-3.433Zm-84.977-5.648a3.441 3.441 0 0 1 3.423-3.433c1.888 0 3.423 1.556 3.423 3.433 0 1.894-1.552 3.433-3.423 3.433-1.888 0-3.423-1.556-3.423-3.433Zm84.977-11.566c0-1.894 1.5-3.433 3.423-3.433 1.888 0 3.422 1.556 3.422 3.433a3.419 3.419 0 0 1-3.422 3.432c-1.923 0-3.423-1.505-3.423-3.432Zm-84.977-5.648a3.441 3.441 0 0 1 3.423-3.433c1.888 0 3.423 1.556 3.423 3.433 0 1.894-1.552 3.433-3.423 3.433-1.888 0-3.423-1.556-3.423-3.433Zm84.977-11.566c0-1.894 1.5-3.433 3.423-3.433 1.888 0 3.422 1.556 3.422 3.433a3.44 3.44 0 0 1-3.422 3.432 3.408 3.408 0 0 1-3.423-3.432Zm-84.977-5.648a3.441 3.441 0 0 1 3.423-3.433c1.888 0 3.423 1.556 3.423 3.433 0 1.894-1.552 3.433-3.423 3.433-1.888 0-3.423-1.556-3.423-3.433Zm-63.9 1.826c-1.333-1.37-1.265-3.551.1-4.887 1.366-1.268 3.575-1.234 4.873.135 1.298 1.37 1.23 3.535-.135 4.887a3.42 3.42 0 0 1-4.822-.135h-.017Zm12.172-1.86c-1.298-1.37-1.23-3.551.135-4.853 1.366-1.302 3.541-1.234 4.84.135 1.298 1.37 1.23 3.551-.136 4.853a3.288 3.288 0 0 1-2.326.964c-.928 0-1.821-.372-2.513-1.099Zm136.705-11.532c0-1.894 1.5-3.433 3.423-3.433 1.888 0 3.422 1.556 3.422 3.433a3.419 3.419 0 0 1-3.422 3.432c-1.923 0-3.423-1.505-3.423-3.432Zm-160.714.896c-1.298-1.37-1.23-3.551.135-4.853 1.366-1.302 3.54-1.235 4.839.135a3.447 3.447 0 0 1-.101 4.853c-.691.626-1.5.964-2.36.964-.928 0-1.822-.372-2.513-1.099Zm36.47-1.201c-1.299-1.336-1.231-3.534.134-4.853 1.366-1.302 3.54-1.234 4.84.135 1.297 1.37 1.23 3.551-.136 4.853a3.28 3.28 0 0 1-2.36.964c-.894 0-1.787-.372-2.479-1.099Zm39.284-5.326a3.42 3.42 0 0 1 3.423-3.433 3.42 3.42 0 0 1 3.422 3.433 3.44 3.44 0 0 1-3.422 3.432c-1.889 0-3.423-1.555-3.423-3.432Zm-87.54-5.919a3.489 3.489 0 0 1 .102-4.887c1.4-1.268 3.574-1.234 4.873.136 1.298 1.369 1.23 3.534-.135 4.853-.658.659-1.5.964-2.36.964a3.39 3.39 0 0 1-2.462-1.066h-.017Zm60.715-.558c-1.298-1.369-1.23-3.551.135-4.887 1.366-1.302 3.54-1.234 4.839.136 1.298 1.369 1.23 3.584-.135 4.853-.657.659-1.5.964-2.327.964-.927 0-1.82-.339-2.512-1.066Zm111.802-5.09c0-1.893 1.5-3.432 3.422-3.432 1.889 0 3.423 1.555 3.423 3.432a3.42 3.42 0 0 1-3.423 3.433c-1.922 0-3.422-1.505-3.422-3.433Zm-81.537-2.232c-1.889 0-3.389-1.555-3.356-3.466h-.033a3.423 3.423 0 0 1 3.507-3.365c1.888 0 3.389 1.555 3.355 3.466 0 1.86-1.551 3.399-3.389 3.399 0 0-.034 0-.067-.034h-.017Zm-102.815-4.599c-1.265-1.37-1.231-3.551.135-4.853 1.365-1.302 3.523-1.235 4.872.135 1.299 1.37 1.231 3.534-.135 4.853-.69.626-1.517.964-2.36.964-.894 0-1.821-.372-2.495-1.099h-.017Zm84.875-.034a3.434 3.434 0 0 1-.236-4.853c1.23-1.404 3.39-1.556 4.839-.271 1.399 1.269 1.501 3.433.236 4.853-.691.761-1.618 1.167-2.529 1.167a3.38 3.38 0 0 1-2.293-.896h-.017Zm99.477-10.315c0-1.894 1.5-3.433 3.422-3.433 1.889 0 3.423 1.556 3.423 3.433a3.42 3.42 0 0 1-3.423 3.433c-1.922 0-3.422-1.505-3.422-3.433ZM.961 120.549c-1.332-1.335-1.264-3.551.101-4.853 1.332-1.302 3.524-1.268 4.84.102 1.297 1.369 1.264 3.551-.102 4.853a3.312 3.312 0 0 1-2.36.964c-.928 0-1.821-.338-2.462-1.066H.96Zm113.1-.169c-1.096-.034-2.023-.558-2.647-1.369a3.436 3.436 0 0 1-4.637.727 3.405 3.405 0 0 1-.893-4.786c1.028-1.555 3.186-1.961 4.771-.93.304.237.59.524.826.829.658-.829 1.653-1.37 2.782-1.336a3.425 3.425 0 0 1 3.322 3.551v.034c-.034 1.86-1.585 3.297-3.423 3.297h-.101v-.017ZM13.303 108.645c-1.298-1.37-1.265-3.551.101-4.853 1.366-1.302 3.54-1.268 4.839.068 1.332 1.369 1.265 3.584-.067 4.886a3.413 3.413 0 0 1-2.395.964 3.382 3.382 0 0 1-2.478-1.065Zm181.991-3.23a3.408 3.408 0 0 1 3.423-3.432c1.888 0 3.423 1.555 3.423 3.432a3.42 3.42 0 0 1-3.423 3.433c-1.922 0-3.423-1.505-3.423-3.433ZM25.695 96.74a3.489 3.489 0 0 1 .102-4.886c1.331-1.302 3.523-1.269 4.838.101 1.299 1.37 1.265 3.534-.1 4.887a3.458 3.458 0 0 1-2.361.964c-.894 0-1.821-.372-2.462-1.066h-.017Zm169.599-8.539a3.409 3.409 0 0 1 3.423-3.433c1.888 0 3.423 1.556 3.423 3.433a3.441 3.441 0 0 1-3.423 3.433 3.409 3.409 0 0 1-3.423-3.433ZM38.037 84.802c-1.298-1.336-1.264-3.55.101-4.853 1.366-1.302 3.541-1.268 4.84.102 1.331 1.335 1.264 3.534-.068 4.853a3.415 3.415 0 0 1-2.394.964 3.382 3.382 0 0 1-2.479-1.066Zm157.257-13.798a3.409 3.409 0 0 1 3.423-3.433c1.888 0 3.423 1.556 3.423 3.433a3.42 3.42 0 0 1-3.423 3.433c-1.922 0-3.423-1.505-3.423-3.433ZM50.43 72.898c-1.299-1.37-1.265-3.551.1-4.853 1.366-1.336 3.525-1.269 4.84.067A3.489 3.489 0 0 1 55.269 73a3.458 3.458 0 0 1-2.36.964 3.393 3.393 0 0 1-2.463-1.065h-.016Zm12.392-11.905c-1.332-1.37-1.298-3.585.067-4.887 1.366-1.302 3.575-1.268 4.873.102s1.265 3.551-.101 4.853c-.658.66-1.5.964-2.36.964-.928 0-1.822-.338-2.462-1.032h-.017Zm132.489-7.186a3.409 3.409 0 0 1 3.423-3.433c1.888 0 3.423 1.556 3.423 3.433a3.442 3.442 0 0 1-3.423 3.432 3.409 3.409 0 0 1-3.423-3.432Zm-120.13-4.752a3.447 3.447 0 0 1 .1-4.853 3.423 3.423 0 0 1 4.84.102c1.332 1.335 1.264 3.55-.101 4.853a3.458 3.458 0 0 1-2.36.963 3.45 3.45 0 0 1-2.462-1.065h-.017Zm120.13-12.462a3.409 3.409 0 0 1 3.423-3.433c1.888 0 3.423 1.556 3.423 3.433a3.42 3.42 0 0 1-3.423 3.432c-1.922 0-3.423-1.505-3.423-3.432Zm-107.755.558c-1.332-1.37-1.264-3.585.068-4.887a3.464 3.464 0 0 1 4.872.101 3.489 3.489 0 0 1-.1 4.887 3.421 3.421 0 0 1-2.361.93c-.894 0-1.821-.338-2.462-1.031h-.017Zm12.342-11.939c-1.298-1.37-1.264-3.55.101-4.853 1.366-1.302 3.541-1.268 4.839.102 1.298 1.336 1.265 3.55-.101 4.853a3.31 3.31 0 0 1-2.36.964 3.319 3.319 0 0 1-2.462-1.066h-.017Zm95.396-5.817a3.409 3.409 0 0 1 3.423-3.432c1.888 0 3.423 1.556 3.423 3.432a3.42 3.42 0 0 1-3.423 3.433c-1.922 0-3.423-1.505-3.423-3.433Zm-83.02-6.087c-1.299-1.37-1.265-3.551.101-4.853 1.332-1.336 3.54-1.268 4.839.068 1.298 1.37 1.264 3.534-.101 4.886a3.46 3.46 0 0 1-2.361.964 3.396 3.396 0 0 1-2.462-1.065h-.016Zm81.79-9.875c0-1.894 1.551-3.433 3.422-3.433 1.889 0 3.423 1.556 3.423 3.433a3.441 3.441 0 0 1-3.423 3.432c-1.888 0-3.422-1.555-3.422-3.432Zm-17.147 0c0-1.894 1.551-3.433 3.422-3.433a3.42 3.42 0 0 1 3.423 3.433 3.42 3.42 0 0 1-3.423 3.432c-1.888 0-3.422-1.555-3.422-3.432Zm-17.148 0A3.442 3.442 0 0 1 163.192 0c1.889 0 3.423 1.556 3.423 3.433a3.441 3.441 0 0 1-3.423 3.432c-1.888 0-3.423-1.555-3.423-3.432Zm-17.147 0A3.442 3.442 0 0 1 146.045 0a3.42 3.42 0 0 1 3.423 3.433 3.42 3.42 0 0 1-3.423 3.432c-1.888 0-3.423-1.555-3.423-3.432Zm-17.147 0A3.442 3.442 0 0 1 128.898 0c1.888 0 3.423 1.556 3.423 3.433a3.441 3.441 0 0 1-3.423 3.432c-1.888 0-3.423-1.555-3.423-3.432Z"/></g><defs><clipPath id="a"><path fill="#fff" d="M0 0h306v487H0z"/></clipPath></defs></svg>