<svg xmlns="http://www.w3.org/2000/svg" width="1556" height="512" fill="none"><g clip-path="url(#a)"><path fill="#fff" d="M956.638 512c-1.986-.036-3.512-1.671-3.476-3.627a3.538 3.538 0 0 1 3.618-3.484 3.54 3.54 0 0 1 3.477 3.627c-.035 1.92-1.632 3.484-3.583 3.484h-.036Zm14.28-3.662c-.141-1.956 1.384-3.662 3.335-3.769a3.537 3.537 0 0 1 3.726 3.342c.106 1.956-1.384 3.627-3.335 3.769h-.178a3.546 3.546 0 0 1-3.548-3.342Zm-32.267 2.595c-1.951-.177-3.371-1.92-3.193-3.875.213-1.956 1.951-3.378 3.867-3.2a3.579 3.579 0 0 1 3.229 3.875c-.213 1.849-1.739 3.236-3.548 3.236-.107 0-.249 0-.355-.036Zm49.918-4.089c-.248-1.955 1.064-3.733 3.016-4.017 1.951-.285 3.76 1.031 4.009 2.986.319 1.956-1.029 3.734-2.981 4.018v.036c-.177 0-.354.035-.532.035-1.703 0-3.228-1.28-3.512-3.058Zm-67.746 1.672c-1.951-.32-3.228-2.169-2.909-4.125.355-1.92 2.2-3.2 4.115-2.88 1.952.356 3.229 2.205 2.874 4.125-.284 1.706-1.809 2.951-3.477 2.951-.213 0-.426-.036-.603-.071Zm85.257-4.694c-.46-1.92.71-3.84 2.62-4.302 1.92-.462 3.83.747 4.3 2.631.42 1.92-.75 3.84-2.67 4.302-.24.071-.53.107-.81.107a3.55 3.55 0 0 1-3.44-2.738Zm-102.907.854a3.547 3.547 0 0 1-2.519-4.338c.461-1.885 2.412-3.022 4.328-2.525 1.88.463 3.016 2.418 2.519 4.338a3.567 3.567 0 0 1-3.441 2.631c-.284 0-.568-.035-.887-.106Zm120.037-5.476c-.64-1.849.36-3.876 2.2-4.516 1.85-.64 3.87.356 4.51 2.205.64 1.884-.36 3.911-2.2 4.515-.39.143-.78.214-1.17.214a3.53 3.53 0 0 1-3.34-2.418Zm-137.298.213c-1.844-.64-2.802-2.666-2.164-4.515.639-1.849 2.661-2.809 4.506-2.169a3.564 3.564 0 0 1 2.2 4.516 3.586 3.586 0 0 1-3.371 2.382c-.39 0-.78-.071-1.171-.214Zm153.928-6.435c-.82-1.778-.04-3.911 1.73-4.729v.035c1.78-.853 3.91-.035 4.72 1.743.82 1.778 0 3.875-1.77 4.693v.036c-.46.213-.96.32-1.46.32-1.34 0-2.62-.783-3.22-2.098Zm-170.673-.214c-1.81-.782-2.59-2.88-1.81-4.693.816-1.778 2.909-2.595 4.683-1.813 1.81.818 2.626 2.915 1.81 4.693a3.545 3.545 0 0 1-3.264 2.133c-.461 0-.958-.106-1.419-.32Zm186.583-7.644c-1-1.671-.43-3.875 1.27-4.871a3.534 3.534 0 0 1 4.86 1.28c.96 1.707.4 3.875-1.27 4.871-.57.32-1.17.498-1.78.498-1.24 0-2.41-.64-3.08-1.778Zm-202.779-.356c-1.703-.96-2.342-3.128-1.384-4.835a3.546 3.546 0 0 1 4.79-1.422c1.738.96 2.377 3.129 1.419 4.835a3.523 3.523 0 0 1-3.087 1.849 3.794 3.794 0 0 1-1.738-.427Zm217.779-9.102a3.574 3.574 0 0 1 .75-4.942c1.6-1.173 3.83-.853 4.97.747a3.543 3.543 0 0 1-.75 4.977 3.5 3.5 0 0 1-2.09.676c-1.1 0-2.17-.498-2.88-1.458Zm-233.23-.249a3.596 3.596 0 0 1-.993-4.942 3.538 3.538 0 0 1 4.896-.995 3.573 3.573 0 0 1 1.028 4.942c-.709 1.031-1.809 1.6-2.98 1.6-.674 0-1.348-.213-1.951-.605Zm247.2-10.702a3.581 3.581 0 0 1 .21-5.049c1.45-1.315 3.69-1.209 5.04.249 1.31 1.422 1.2 3.662-.22 5.013-.71.605-1.56.925-2.41.925-.96 0-1.92-.391-2.62-1.138Zm-261.782.071h-.035c-1.526-1.244-1.774-3.484-.568-5.013 1.242-1.529 3.477-1.778 5.003-.569 1.525 1.244 1.774 3.484.567 5.013a3.54 3.54 0 0 1-2.767 1.351c-.781 0-1.561-.284-2.2-.782Zm-13.641-11.946c-1.419-1.352-1.455-3.627-.106-5.014 1.383-1.422 3.618-1.457 5.002-.106a3.589 3.589 0 0 1 .106 5.048 3.593 3.593 0 0 1-2.554 1.067 3.43 3.43 0 0 1-2.448-.995Zm288.083-.569c-1.45-1.28-1.6-3.52-.32-5.014 1.28-1.457 3.55-1.635 5-.32 1.49 1.316 1.64 3.556.32 5.014-.67.817-1.66 1.209-2.66 1.209-.81 0-1.66-.285-2.34-.889Zm-292.855-12.605c-1.596-1.137-2.022-3.342-.922-4.942a3.54 3.54 0 0 1 4.931-.96c1.632 1.102 2.022 3.342.923 4.942a3.485 3.485 0 0 1-2.91 1.565c-.709 0-1.383-.214-2.022-.605Zm304.105-1.173c-1.6-1.138-1.99-3.342-.85-4.942a3.451 3.451 0 0 1 4.89-.889c1.63 1.138 2.02 3.342.89 4.942-.67.996-1.77 1.529-2.91 1.529-.71 0-1.38-.213-2.02-.64Zm-152.825-15.271a3.513 3.513 0 0 1 3.37-3.698 3.491 3.491 0 0 1 3.69 3.378c.106 1.991-1.419 3.662-3.371 3.733h-.177a3.525 3.525 0 0 1-3.512-3.413Zm-14.564 2.773a3.552 3.552 0 0 1-3.158-3.911c.178-1.955 1.952-3.378 3.903-3.164 1.951.213 3.335 1.955 3.157 3.911-.212 1.813-1.738 3.2-3.547 3.2-.107 0-.249 0-.355-.036Zm-126.729-1.067a3.557 3.557 0 0 1-.958-4.942c1.1-1.635 3.335-2.026 4.932-.924a3.557 3.557 0 0 1 .958 4.942 3.6 3.6 0 0 1-2.945 1.529c-.71 0-1.384-.178-1.987-.605Zm158.925-3.306c-.39-1.956.852-3.84 2.768-4.231 1.88-.391 3.796.818 4.186 2.738.39 1.955-.816 3.804-2.732 4.231-.248.035-.496.071-.745.071-1.632 0-3.122-1.138-3.477-2.809Zm144.863 1.955c-1.74-.924-2.38-3.093-1.42-4.835.92-1.707 3.08-2.347 4.79-1.422 1.73.96 2.37 3.129 1.42 4.835-.64 1.209-1.85 1.849-3.13 1.849-.56 0-1.13-.142-1.66-.427Zm-195.047-.782h.036a3.576 3.576 0 0 1-2.626-4.302 3.583 3.583 0 0 1 4.329-2.596c1.916.463 3.051 2.418 2.59 4.303-.426 1.635-1.881 2.702-3.442 2.702-.284 0-.603-.036-.887-.107Zm67.356-5.724a3.499 3.499 0 0 1 1.951-4.587c1.845-.747 3.903.142 4.648 1.991a3.533 3.533 0 0 1-2.022 4.587 3.266 3.266 0 0 1-1.278.249c-1.419 0-2.767-.854-3.299-2.24Zm-84.687.142c-1.809-.747-2.732-2.809-1.987-4.622.71-1.814 2.768-2.702 4.613-1.991 1.809.711 2.696 2.773 1.986 4.622a3.565 3.565 0 0 1-3.299 2.24c-.426 0-.887-.071-1.313-.249Zm100.758-7.573c-1.03-1.671-.53-3.876 1.14-4.907a3.577 3.577 0 0 1 4.89 1.102c1.03 1.671.53 3.876-1.13 4.907-.57.391-1.25.569-1.88.569a3.6 3.6 0 0 1-3.02-1.671Zm-182.216.604c-1.632-1.102-2.022-3.307-.923-4.942a3.54 3.54 0 0 1 4.932-.96c1.597 1.138 2.022 3.342.922 4.942-.674 1.031-1.809 1.565-2.944 1.565a3.716 3.716 0 0 1-1.987-.605Zm64.978-.747h.036c-1.738-.924-2.377-3.093-1.455-4.835.958-1.707 3.122-2.347 4.825-1.422 1.703.924 2.377 3.093 1.42 4.835a3.581 3.581 0 0 1-3.123 1.849c-.567 0-1.135-.142-1.703-.427Zm236.778-1.777c-1.8-.747-2.66-2.845-1.91-4.658.74-1.813 2.8-2.667 4.65-1.92a3.526 3.526 0 0 1 1.91 4.622 3.535 3.535 0 0 1-3.3 2.205c-.42 0-.88-.072-1.35-.249Zm-252.193-7.787c-1.632-1.138-2.022-3.342-.887-4.942 1.1-1.6 3.335-2.027 4.932-.889 1.632 1.102 2.022 3.342.887 4.942-.674.996-1.81 1.529-2.91 1.529a3.497 3.497 0 0 1-2.022-.64Zm147.093-.64c-1.35-1.387-1.31-3.662.11-5.013a3.526 3.526 0 0 1 5 .142c1.38 1.387 1.31 3.662-.11 5.013-.67.64-1.56.96-2.45.96-.92 0-1.88-.355-2.55-1.102Zm-186.687-3.769a3.58 3.58 0 0 1-.922-4.942 3.563 3.563 0 0 1 4.931-.925 3.581 3.581 0 0 1 .923 4.943 3.59 3.59 0 0 1-2.945 1.564 3.47 3.47 0 0 1-1.987-.64Zm298.037-4.444c-1.88-.569-2.98-2.525-2.41-4.409.53-1.885 2.52-2.987 4.4-2.418 1.84.533 2.94 2.524 2.41 4.409-.46 1.529-1.88 2.56-3.41 2.56-.35 0-.67-.071-.99-.142Zm-272.758-2.347c-1.49-1.28-1.632-3.52-.355-5.013 1.277-1.458 3.548-1.636 5.002-.32 1.49 1.28 1.632 3.52.355 5.013a3.662 3.662 0 0 1-2.696 1.209 3.426 3.426 0 0 1-2.306-.889Zm173.398-2.489a3.518 3.518 0 0 1-.99-4.907c1.1-1.635 3.3-2.097 4.93-.995a3.559 3.559 0 0 1 .96 4.942h.03c-.71.996-1.81 1.565-2.98 1.565-.67 0-1.34-.178-1.95-.605Zm-188.672-5.404a3.558 3.558 0 0 1-.958-4.943 3.656 3.656 0 0 1 2.448-1.528 3.523 3.523 0 0 1 1.171-3.556c1.526-1.244 3.761-1.031 5.003.462 1.241 1.529 1.064 3.769-.462 5.014a3.802 3.802 0 0 1-1.774.782 3.6 3.6 0 0 1-.532 2.844 3.49 3.49 0 0 1-2.909 1.529c-.674 0-1.384-.178-1.987-.604Zm292.432-6.969a3.55 3.55 0 0 1-2.84-4.125c.35-1.955 2.2-3.235 4.12-2.88 1.91.356 3.19 2.205 2.87 4.125a3.572 3.572 0 0 1-3.51 2.951c-.22 0-.43-.036-.64-.071Zm-94.94-3.022c-1.85-.676-2.77-2.738-2.06-4.587.67-1.813 2.73-2.774 4.54-2.062 1.85.675 2.77 2.737 2.1 4.586a3.575 3.575 0 0 1-3.34 2.311c-.43 0-.85-.071-1.24-.248Zm97.6-14.56c-1.95-.178-3.41-1.885-3.26-3.841.14-1.955 1.84-3.413 3.83-3.271 1.95.178 3.4 1.885 3.23 3.84-.15 1.849-1.71 3.272-3.52 3.272h-.28Zm-92.53-2.454c-1.95-.249-3.3-2.062-3.01-4.018.24-1.92 2.05-3.271 3.97-3.022a3.588 3.588 0 0 1 3.05 4.018 3.55 3.55 0 0 1-3.51 3.058c-.18 0-.32 0-.5-.036Zm89.8-18.826c-.04-1.956 1.56-3.556 3.51-3.592 1.95-.035 3.55 1.529 3.62 3.485 0 1.955-1.56 3.591-3.51 3.627h-.07c-1.92 0-3.48-1.565-3.55-3.52Zm-92.28-2.205c-.11-1.956 1.38-3.662 3.33-3.769 1.92-.142 3.62 1.351 3.76 3.307a3.508 3.508 0 0 1-3.3 3.769c-.1 0-.17.035-.24.035-1.85 0-3.41-1.457-3.55-3.342Zm91.18-15.164c-.25-1.956 1.17-3.734 3.08-3.947 1.96-.213 3.73 1.173 3.94 3.129.25 1.92-1.17 3.698-3.08 3.946h-.43c-1.77 0-3.33-1.315-3.51-3.128Zm-94.06-1.565c-.53-1.884.54-3.875 2.42-4.409 1.91-.533 3.86.534 4.4 2.418a3.53 3.53 0 0 1-2.42 4.409c-.35.107-.67.142-.99.142-1.53 0-2.94-.995-3.41-2.56Zm91.15-15.627a3.543 3.543 0 1 1 6.92-1.528c.42 1.92-.75 3.804-2.66 4.231-.29.071-.54.106-.78.106-1.64 0-3.09-1.137-3.48-2.809Zm-97.6-.035a3.535 3.535 0 0 1 1.38-4.836c1.7-.96 3.87-.32 4.79 1.387a3.55 3.55 0 0 1-1.35 4.836 3.44 3.44 0 0 1-1.74.462c-1.24 0-2.44-.676-3.08-1.849Zm-9.83-13.778c-1.31-1.458-1.21-3.698.25-5.013 1.45-1.316 3.72-1.209 5 .249 1.31 1.457 1.21 3.733-.25 5.013-.67.64-1.52.925-2.37.925-1 0-1.96-.392-2.63-1.174Zm102.75-2.915c-.61-1.849.35-3.876 2.23-4.516 1.85-.64 3.87.356 4.51 2.204.6 1.885-.36 3.876-2.24 4.516-.35.142-.74.213-1.13.213-1.49 0-2.84-.96-3.37-2.417Zm-115.4-8.427a3.595 3.595 0 0 1-.78-4.978c1.14-1.6 3.37-1.955 4.97-.782 1.56 1.138 1.91 3.378.74 4.978a3.582 3.582 0 0 1-2.87 1.458c-.71 0-1.42-.214-2.06-.676Zm-150.639-1.529a3.549 3.549 0 0 1-2.129-4.551 3.576 3.576 0 0 1 4.577-2.133c1.809.675 2.767 2.737 2.093 4.586a3.555 3.555 0 0 1-4.541 2.098Zm14.174-2.88c-.887-1.742-.142-3.875 1.596-4.764 1.739-.889 3.867-.178 4.754 1.564.887 1.778.178 3.911-1.596 4.764-.497.285-1.029.392-1.561.392a3.571 3.571 0 0 1-3.193-1.956Zm245.365-3.271a3.58 3.58 0 0 1 1.71-4.729 3.554 3.554 0 0 1 4.71 1.707c.86 1.778.08 3.875-1.7 4.729-.5.213-.99.355-1.52.355-1.32 0-2.59-.782-3.2-2.062Zm-276.196.036a3.55 3.55 0 0 1-2.129-4.552c.674-1.848 2.697-2.809 4.541-2.133 1.845.676 2.803 2.738 2.094 4.587-.497 1.422-1.845 2.311-3.3 2.311a3.6 3.6 0 0 1-1.206-.213Zm152.61-1.067c-1.774-.818-2.519-2.951-1.668-4.729.816-1.778 2.945-2.524 4.724-1.671 1.77.818 2.51 2.951 1.7 4.729a3.633 3.633 0 0 1-3.231 2.026 3.416 3.416 0 0 1-1.525-.355Zm-105.637-3.093a3.588 3.588 0 0 1 2.129-4.587c1.845-.676 3.867.284 4.541 2.133a3.549 3.549 0 0 1-2.129 4.551 3.557 3.557 0 0 1-4.541-2.097Zm-63.666-1.956a3.549 3.549 0 0 1-2.128-4.551c.674-1.849 2.731-2.809 4.576-2.098 1.81.64 2.768 2.702 2.094 4.551a3.558 3.558 0 0 1-4.542 2.098Zm153.249-.925c-1.88-.533-2.98-2.524-2.448-4.408a3.537 3.537 0 0 1 4.364-2.454c1.916.534 2.98 2.489 2.448 4.409-.426 1.565-1.845 2.56-3.406 2.56-.319 0-.639-.035-.958-.107Zm-72.713-2.702c-.461-1.92.674-3.84 2.59-4.302a3.502 3.502 0 0 1 4.293 2.596c.461 1.884-.674 3.84-2.59 4.302a3.498 3.498 0 0 1-.851.106c-1.597 0-3.016-1.102-3.442-2.702Zm17.367-3.697c-.249-1.956 1.135-3.734 3.051-3.983 1.951-.249 3.761 1.138 4.009 3.058a3.561 3.561 0 0 1-3.087 3.982c-.142.036-.283.036-.461.036a3.552 3.552 0 0 1-3.512-3.093Zm38.494 2.951c-1.952-.249-3.335-2.027-3.051-3.983a3.53 3.53 0 0 1 3.973-3.057c1.916.249 3.3 2.026 3.051 3.982-.248 1.778-1.774 3.093-3.512 3.093-.142 0-.319 0-.461-.035Zm-20.808-4.587c0-1.956 1.561-3.556 3.512-3.556 1.987 0 3.583 1.565 3.583 3.52 0 1.992-1.561 3.556-3.547 3.592a3.562 3.562 0 0 1-3.548-3.556Zm169.04-.178c-1.03-1.671-.54-3.875 1.13-4.906 1.67-1.032 3.83-.534 4.9 1.137 1.03 1.671.53 3.876-1.17 4.907-.57.356-1.21.533-1.85.533a3.58 3.58 0 0 1-3.01-1.671Zm-290.607-2.951a3.577 3.577 0 0 1-3.228-3.875c.177-1.956 1.916-3.414 3.867-3.2 1.951.177 3.37 1.92 3.228 3.84a3.578 3.578 0 0 1-3.547 3.235h-.32Zm280.597-11.2c-1.2-1.564-.96-3.769.57-5.013a3.544 3.544 0 0 1 4.97.569c1.24 1.528.99 3.768-.54 5.013a3.73 3.73 0 0 1-2.23.747c-1.03 0-2.06-.427-2.77-1.316Zm-278.965-6.507a3.577 3.577 0 0 1-3.228-3.875c.177-1.956 1.916-3.378 3.867-3.2a3.518 3.518 0 0 1 3.193 3.84c-.178 1.849-1.703 3.235-3.512 3.235h-.32Zm267.385-6.364h-.04c-1.38-1.387-1.38-3.627-.03-5.049a3.56 3.56 0 0 1 5.03-.035 3.586 3.586 0 0 1 .04 5.048 3.69 3.69 0 0 1-2.52 1.031c-.92 0-1.81-.32-2.48-.995Zm-13.08-11.467c-1.52-1.209-1.81-3.449-.6-4.978a3.519 3.519 0 0 1 4.97-.639c1.52 1.208 1.81 3.448.64 5.013a3.622 3.622 0 0 1-2.81 1.351c-.78 0-1.52-.249-2.2-.747Zm-252.726.107c-1.951-.178-3.37-1.92-3.229-3.876.213-1.955 1.916-3.377 3.868-3.2a3.578 3.578 0 0 1 3.228 3.876 3.578 3.578 0 0 1-3.548 3.235c-.106 0-.213-.035-.319-.035Zm238.446-9.956c-1.66-1.031-2.2-3.2-1.17-4.871a3.604 3.604 0 0 1 4.9-1.209 3.57 3.57 0 0 1 1.17 4.907 3.54 3.54 0 0 1-3.02 1.707c-.63 0-1.27-.178-1.88-.534Zm-236.814-7.751a3.579 3.579 0 0 1-3.229-3.875c.178-1.956 1.916-3.378 3.868-3.2 1.951.177 3.37 1.92 3.228 3.875-.177 1.814-1.738 3.236-3.548 3.236-.106 0-.213-.036-.319-.036Zm221.544-.462a3.54 3.54 0 0 1-1.7-4.729 3.52 3.52 0 0 1 4.72-1.707c1.77.818 2.52 2.952 1.7 4.729-.6 1.28-1.88 2.027-3.23 2.027-.5 0-.99-.107-1.49-.32Zm-139.997-9.707a3.54 3.54 0 0 1 3.548-3.555c1.951 0 3.548 1.6 3.548 3.555a3.54 3.54 0 0 1-3.548 3.556c-1.987 0-3.548-1.565-3.548-3.556Zm123.907 3.129c-1.84-.64-2.84-2.666-2.16-4.515a3.528 3.528 0 0 1 4.5-2.169c1.85.64 2.81 2.666 2.17 4.515a3.543 3.543 0 0 1-3.34 2.383c-.39 0-.78-.072-1.17-.214Zm-16.69-4.906a3.506 3.506 0 0 1-2.59-4.303c.46-1.92 2.38-3.093 4.26-2.631v.036c1.91.462 3.08 2.382 2.62 4.266-.42 1.636-1.84 2.738-3.44 2.738-.28 0-.57-.035-.85-.106Zm-90.365-3.2a3.52 3.52 0 0 1 2.448-4.374 3.51 3.51 0 0 1 4.364 2.454 3.547 3.547 0 0 1-2.448 4.373 2.973 2.973 0 0 1-.958.142c-1.561 0-2.98-.995-3.406-2.595Zm73.281-.178c-1.952-.32-3.3-2.098-2.981-4.054.284-1.955 2.094-3.271 4.045-2.986a3.514 3.514 0 0 1 2.94 4.053c-.24 1.778-1.77 3.022-3.472 3.022-.178 0-.355 0-.532-.035Zm-56.021-4.018c-.319-1.92 1.029-3.769 2.945-4.053h.036c1.915-.285 3.725 1.066 4.009 2.986a3.522 3.522 0 0 1-2.981 4.054c-.177.035-.354.035-.532.035a3.511 3.511 0 0 1-3.477-3.022Zm38.672 2.098c-1.952-.107-3.442-1.814-3.3-3.805.142-1.92 1.845-3.413 3.796-3.271 1.952.107 3.406 1.814 3.3 3.769-.142 1.885-1.703 3.342-3.548 3.342 0 0-.177-.035-.248-.035Zm-152.752-.462c-1.952-.178-3.371-1.92-3.193-3.876.177-1.92 1.916-3.378 3.867-3.2 1.916.178 3.37 1.92 3.193 3.876a3.515 3.515 0 0 1-3.512 3.2h-.355Zm131.695-3.592a3.586 3.586 0 0 1 3.513-3.591c1.987 0 3.583 1.565 3.583 3.52.036 1.956-1.526 3.591-3.512 3.591h.035-.071c-1.916 0-3.512-1.564-3.548-3.52Zm-47.15-1.706c-1.916-.249-3.3-2.027-3.051-3.982a3.53 3.53 0 0 1 3.973-3.058c1.951.249 3.335 2.026 3.051 3.982-.213 1.778-1.738 3.093-3.512 3.093-.142 0-.284 0-.461-.035Zm-82.913-12.409c-1.951-.178-3.371-1.885-3.193-3.876.142-1.955 1.88-3.377 3.831-3.2a3.578 3.578 0 0 1 3.229 3.876 3.553 3.553 0 0 1-3.548 3.235c-.106 0-.213 0-.319-.035Zm84.864-5.262c-1.916-.178-3.37-1.92-3.193-3.876.177-1.955 1.916-3.378 3.867-3.2 1.951.178 3.371 1.92 3.193 3.876-.142 1.849-1.703 3.235-3.512 3.235-.107 0-.213-.035-.355-.035Zm-83.214-12.463c-1.952-.177-3.406-1.884-3.229-3.84.177-1.955 1.916-3.413 3.867-3.235 1.951.178 3.371 1.92 3.193 3.875-.142 1.849-1.703 3.236-3.512 3.236-.107 0-.213 0-.319-.036Zm84.899-5.262a3.539 3.539 0 0 1-3.193-3.84c.178-1.955 1.916-3.413 3.867-3.235 1.952.177 3.371 1.92 3.193 3.875-.177 1.849-1.703 3.236-3.512 3.236-.106 0-.248 0-.355-.036Zm-83.303-12.462a3.518 3.518 0 0 1-3.193-3.84c.177-1.956 1.88-3.413 3.832-3.236a3.553 3.553 0 0 1 3.228 3.876c-.177 1.849-1.703 3.236-3.512 3.236-.107 0-.248 0-.355-.036Zm84.971-5.227a3.603 3.603 0 0 1-3.193-3.911c.177-1.955 1.915-3.378 3.867-3.2 1.951.178 3.37 1.92 3.193 3.876a3.58 3.58 0 0 1-3.548 3.235h-.319Zm-83.339-12.48a3.517 3.517 0 0 1-3.193-3.84c.177-1.955 1.88-3.413 3.832-3.235 1.951.213 3.406 1.92 3.228 3.875a3.579 3.579 0 0 1-3.548 3.236c-.106 0-.212 0-.319-.036Zm85.006-5.226c-1.951-.178-3.37-1.92-3.193-3.876.178-1.955 1.916-3.413 3.867-3.2 1.916.178 3.371 1.92 3.193 3.876-.177 1.813-1.738 3.2-3.548 3.2h-.319Zm-83.409-12.463c-1.916-.177-3.371-1.92-3.193-3.875.177-1.956 1.915-3.413 3.867-3.236a3.572 3.572 0 0 1 3.193 3.876c-.142 1.849-1.703 3.236-3.548 3.236h-.319Zm259.398-8.782c0-1.955 1.6-3.555 3.55-3.555 1.95 0 3.55 1.6 3.55 3.555 0 1.991-1.6 3.556-3.55 3.556a3.542 3.542 0 0 1-3.55-3.556Zm-17.76 0a3.546 3.546 0 0 1 3.55-3.555c1.95 0 3.55 1.6 3.55 3.555 0 1.991-1.6 3.556-3.55 3.556a3.523 3.523 0 0 1-3.55-3.556Zm-17.75 0a3.54 3.54 0 0 1 3.55-3.555c1.95 0 3.54 1.6 3.54 3.555a3.534 3.534 0 0 1-3.54 3.556c-1.99 0-3.55-1.565-3.55-3.556Zm-17.76 0c0-1.955 1.6-3.555 3.55-3.555 1.95 0 3.55 1.6 3.55 3.555 0 1.991-1.6 3.556-3.55 3.556a3.542 3.542 0 0 1-3.55-3.556Zm-17.76 0a3.54 3.54 0 0 1 3.55-3.555c1.95 0 3.55 1.6 3.55 3.555 0 1.991-1.6 3.556-3.55 3.556-1.99 0-3.55-1.565-3.55-3.556Zm-17.75 0a3.537 3.537 0 0 1 3.54-3.555c1.96 0 3.55 1.6 3.55 3.555a3.536 3.536 0 0 1-3.55 3.556c-1.98 0-3.54-1.565-3.54-3.556Zm-17.76 0a3.562 3.562 0 0 1 3.548-3.555c1.951 0 3.548 1.6 3.548 3.555a3.54 3.54 0 0 1-3.548 3.556 3.54 3.54 0 0 1-3.548-3.556Zm-17.757 0a3.54 3.54 0 0 1 3.548-3.555c1.951 0 3.548 1.6 3.548 3.555a3.54 3.54 0 0 1-3.548 3.556c-1.987 0-3.548-1.565-3.548-3.556Zm-17.757 0a3.54 3.54 0 0 1 3.548-3.555c1.951 0 3.548 1.6 3.548 3.555a3.54 3.54 0 0 1-3.548 3.556c-1.987 0-3.548-1.565-3.548-3.556Zm-17.757 0a3.562 3.562 0 0 1 3.548-3.555c1.951 0 3.548 1.6 3.548 3.555a3.54 3.54 0 0 1-3.548 3.556 3.54 3.54 0 0 1-3.548-3.556Zm-17.757 0a3.562 3.562 0 0 1 3.548-3.555c1.952 0 3.548 1.6 3.548 3.555a3.539 3.539 0 0 1-3.548 3.556 3.54 3.54 0 0 1-3.548-3.556Zm-80.252-8.924c-1.951-.178-3.37-1.92-3.193-3.876.178-1.955 1.881-3.377 3.867-3.2a3.518 3.518 0 0 1 3.194 3.84c-.178 1.85-1.703 3.236-3.513 3.236h-.355Zm263.02-3.556c0-1.955 1.6-3.555 3.55-3.555 1.98 0 3.54 1.6 3.54 3.555a3.537 3.537 0 0 1-3.54 3.556c-1.95 0-3.55-1.6-3.55-3.556ZM840.607 54.507c-1.952-.178-3.406-1.92-3.193-3.876.177-1.955 1.88-3.413 3.831-3.2 1.951.178 3.406 1.885 3.229 3.84a3.58 3.58 0 0 1-3.548 3.236h-.319Zm261.383-3.627c0-1.956 1.6-3.556 3.55-3.556 1.99 0 3.55 1.6 3.55 3.556a3.54 3.54 0 0 1-3.55 3.556c-1.95 0-3.55-1.6-3.55-3.556ZM842.239 36.8a3.554 3.554 0 0 1-3.229-3.875c.177-1.956 1.916-3.378 3.867-3.2a3.517 3.517 0 0 1 3.193 3.84c-.177 1.848-1.703 3.235-3.512 3.235h-.319Zm259.751-3.698c0-1.955 1.6-3.555 3.55-3.555 1.99 0 3.55 1.6 3.55 3.555a3.54 3.54 0 0 1-3.55 3.556c-1.95 0-3.55-1.6-3.55-3.556ZM843.835 19.076c-1.951-.178-3.37-1.92-3.193-3.876.177-1.955 1.916-3.378 3.867-3.2a3.542 3.542 0 0 1 3.193 3.84c-.177 1.849-1.738 3.236-3.512 3.236h-.355Zm258.155-3.77c0-1.955 1.6-3.555 3.55-3.555 1.99 0 3.55 1.6 3.55 3.556a3.54 3.54 0 0 1-3.55 3.555c-1.95 0-3.55-1.6-3.55-3.555ZM1096 3.574a3.536 3.536 0 0 1 3.55-3.555c1.95 0 3.54 1.564 3.54 3.555 0 1.956-1.59 3.556-3.54 3.556-1.96 0-3.55-1.6-3.55-3.556Zm-17.76 0c0-1.99 1.6-3.555 3.55-3.555 1.95 0 3.55 1.564 3.55 3.555 0 1.956-1.6 3.556-3.55 3.556-1.95 0-3.55-1.6-3.55-3.556Zm-17.76 0c0-1.99 1.6-3.555 3.55-3.555 1.95 0 3.55 1.564 3.55 3.555 0 1.956-1.6 3.556-3.55 3.556-1.95 0-3.55-1.6-3.55-3.556Zm-17.75 0a3.534 3.534 0 0 1 3.54-3.555c1.96 0 3.55 1.564 3.55 3.555a3.558 3.558 0 0 1-3.55 3.556c-1.95 0-3.54-1.6-3.54-3.556Zm-17.76 0c0-1.99 1.6-3.555 3.55-3.555 1.95 0 3.55 1.564 3.55 3.555 0 1.956-1.6 3.556-3.55 3.556-1.95 0-3.55-1.6-3.55-3.556Zm-17.76 0c0-1.99 1.6-3.555 3.55-3.555 1.95 0 3.55 1.564 3.55 3.555 0 1.956-1.6 3.556-3.55 3.556-1.95 0-3.55-1.6-3.55-3.556Zm-17.754 0a3.54 3.54 0 0 1 3.548-3.555 3.54 3.54 0 0 1 3.548 3.555 3.562 3.562 0 0 1-3.548 3.556 3.562 3.562 0 0 1-3.548-3.556Zm-17.757 0a3.54 3.54 0 0 1 3.548-3.555 3.54 3.54 0 0 1 3.548 3.555 3.562 3.562 0 0 1-3.548 3.556 3.562 3.562 0 0 1-3.548-3.556Zm-17.757 0A3.54 3.54 0 0 1 957.49.018a3.54 3.54 0 0 1 3.548 3.555 3.562 3.562 0 0 1-3.548 3.556 3.562 3.562 0 0 1-3.548-3.556Zm-17.757 0a3.54 3.54 0 0 1 3.548-3.555 3.54 3.54 0 0 1 3.548 3.555 3.562 3.562 0 0 1-3.548 3.556 3.562 3.562 0 0 1-3.548-3.556Zm-17.757 0a3.54 3.54 0 0 1 3.548-3.555 3.54 3.54 0 0 1 3.548 3.555 3.562 3.562 0 0 1-3.548 3.556 3.562 3.562 0 0 1-3.548-3.556Zm-17.757 0a3.54 3.54 0 0 1 3.548-3.555 3.54 3.54 0 0 1 3.548 3.555 3.562 3.562 0 0 1-3.548 3.556 3.562 3.562 0 0 1-3.548-3.556Zm-17.757 0a3.54 3.54 0 0 1 3.548-3.555 3.54 3.54 0 0 1 3.548 3.555 3.562 3.562 0 0 1-3.548 3.556 3.562 3.562 0 0 1-3.548-3.556Zm-17.756 0a3.539 3.539 0 0 1 3.547-3.555 3.54 3.54 0 0 1 3.548 3.555 3.562 3.562 0 0 1-3.548 3.556 3.562 3.562 0 0 1-3.547-3.556Zm-17.757 0a3.54 3.54 0 0 1 3.548-3.555 3.539 3.539 0 0 1 3.547 3.555 3.562 3.562 0 0 1-3.547 3.556 3.562 3.562 0 0 1-3.548-3.556Z"/></g><g clip-path="url(#b)"><path fill="#fff" d="M326.572 508.444a3.567 3.567 0 0 1 3.558-3.555c1.957 0 3.558 1.6 3.558 3.555A3.567 3.567 0 0 1 330.13 512a3.567 3.567 0 0 1-3.558-3.556Zm-17.809 0a3.567 3.567 0 0 1 3.558-3.555c1.957 0 3.558 1.6 3.558 3.555a3.567 3.567 0 0 1-3.558 3.556 3.567 3.567 0 0 1-3.558-3.556Zm-17.809 0a3.567 3.567 0 0 1 3.558-3.555c1.957 0 3.558 1.6 3.558 3.555a3.567 3.567 0 0 1-3.558 3.556 3.567 3.567 0 0 1-3.558-3.556Zm-17.809 0a3.545 3.545 0 0 1 3.558-3.555c1.957 0 3.559 1.6 3.559 3.555a3.568 3.568 0 0 1-3.559 3.556 3.545 3.545 0 0 1-3.558-3.556Zm-17.809 0a3.545 3.545 0 0 1 3.559-3.555c1.957 0 3.558 1.6 3.558 3.555a3.567 3.567 0 0 1-3.558 3.556 3.545 3.545 0 0 1-3.559-3.556Zm-17.808 0a3.544 3.544 0 0 1 3.558-3.555c1.957 0 3.558 1.6 3.558 3.555a3.567 3.567 0 0 1-3.558 3.556 3.544 3.544 0 0 1-3.558-3.556Zm-17.809 0a3.567 3.567 0 0 1 3.558-3.555c1.957 0 3.558 1.6 3.558 3.555a3.567 3.567 0 0 1-3.558 3.556 3.567 3.567 0 0 1-3.558-3.556Zm-17.809 0a3.567 3.567 0 0 1 3.558-3.555c1.957 0 3.558 1.6 3.558 3.555a3.567 3.567 0 0 1-3.558 3.556 3.567 3.567 0 0 1-3.558-3.556Zm-17.809 0a3.567 3.567 0 0 1 3.558-3.555c1.957 0 3.559 1.6 3.559 3.555a3.568 3.568 0 0 1-3.559 3.556 3.567 3.567 0 0 1-3.558-3.556Zm-17.809 0a3.568 3.568 0 0 1 3.559-3.555c1.957 0 3.558 1.6 3.558 3.555a3.567 3.567 0 0 1-3.558 3.556 3.568 3.568 0 0 1-3.559-3.556Zm-17.808 0a3.567 3.567 0 0 1 3.558-3.555c1.957 0 3.558 1.6 3.558 3.555a3.567 3.567 0 0 1-3.558 3.556 3.567 3.567 0 0 1-3.558-3.556Zm-17.809 0a3.567 3.567 0 0 1 3.558-3.555c1.957 0 3.558 1.6 3.558 3.555a3.567 3.567 0 0 1-3.558 3.556 3.567 3.567 0 0 1-3.558-3.556Zm-17.809 0a3.545 3.545 0 0 1 3.558-3.555c1.957 0 3.558 1.6 3.558 3.555a3.567 3.567 0 0 1-3.558 3.556 3.545 3.545 0 0 1-3.558-3.556Zm-17.809 0a3.544 3.544 0 0 1 3.558-3.555c1.957 0 3.559 1.6 3.559 3.555A3.568 3.568 0 0 1 98.615 512a3.545 3.545 0 0 1-3.558-3.556Zm-17.808 0a3.567 3.567 0 0 1 3.558-3.555c1.957 0 3.558 1.6 3.558 3.555A3.567 3.567 0 0 1 80.807 512a3.567 3.567 0 0 1-3.558-3.556Zm-17.81 0a3.567 3.567 0 0 1 3.559-3.555c1.957 0 3.558 1.6 3.558 3.555A3.567 3.567 0 0 1 62.998 512a3.567 3.567 0 0 1-3.558-3.556Zm-17.808 0a3.567 3.567 0 0 1 3.558-3.555c1.957 0 3.558 1.6 3.558 3.555A3.567 3.567 0 0 1 45.19 512a3.567 3.567 0 0 1-3.558-3.556Zm-17.809 0a3.567 3.567 0 0 1 3.558-3.555c1.957 0 3.559 1.6 3.559 3.555A3.567 3.567 0 0 1 27.38 512a3.567 3.567 0 0 1-3.558-3.556Zm-17.809 0a3.567 3.567 0 0 1 3.559-3.555c1.957 0 3.558 1.6 3.558 3.555A3.567 3.567 0 0 1 9.572 512a3.567 3.567 0 0 1-3.559-3.556Zm327.746-10.488a3.544 3.544 0 0 1 3.558-3.556c1.993 0 3.594 1.564 3.594 3.556 0 1.955-1.601 3.555-3.594 3.555a3.567 3.567 0 0 1-3.558-3.555ZM2.099 493.12a3.563 3.563 0 0 1 3.096-3.982 3.582 3.582 0 0 1 3.95 3.093 3.562 3.562 0 0 1-3.06 3.982h-.463c-1.78 0-3.31-1.315-3.523-3.093Zm331.66-12.942a3.545 3.545 0 0 1 3.558-3.556c1.993 0 3.594 1.565 3.594 3.556 0 1.955-1.601 3.555-3.594 3.555a3.567 3.567 0 0 1-3.558-3.555ZM.391 475.2a3.522 3.522 0 0 1 3.31-3.769c1.957-.142 3.664 1.351 3.771 3.307.143 1.955-1.352 3.626-3.309 3.769h-.249c-1.85 0-3.416-1.423-3.523-3.307ZM0 464.391a3.544 3.544 0 0 1 3.558-3.555 3.544 3.544 0 0 1 3.558 3.555 3.567 3.567 0 0 1-3.558 3.556A3.567 3.567 0 0 1 0 464.391Zm333.83-2.027a3.544 3.544 0 0 1 3.558-3.555c1.993 0 3.594 1.564 3.594 3.555 0 1.956-1.601 3.556-3.594 3.556a3.567 3.567 0 0 1-3.558-3.556ZM4.02 450.222c-1.956-.178-3.415-1.92-3.202-3.875a3.521 3.521 0 0 1 3.843-3.2c1.957.142 3.38 1.884 3.238 3.84a3.585 3.585 0 0 1-3.558 3.235h-.32Zm329.81-5.653a3.545 3.545 0 0 1 3.558-3.556c1.993 0 3.594 1.565 3.594 3.556 0 1.955-1.601 3.555-3.594 3.555a3.567 3.567 0 0 1-3.558-3.555Zm-4.021-13.778c0-1.955 1.602-3.52 3.559-3.52s3.558 1.565 3.558 3.52a3.545 3.545 0 0 1-3.558 3.556 3.546 3.546 0 0 1-3.559-3.556Zm-17.808 0c0-1.955 1.601-3.52 3.558-3.52 1.957 0 3.558 1.565 3.558 3.52a3.545 3.545 0 0 1-3.558 3.556 3.545 3.545 0 0 1-3.558-3.556Zm-17.809 0c0-1.955 1.566-3.52 3.558-3.52 1.957 0 3.558 1.565 3.558 3.52a3.545 3.545 0 0 1-3.558 3.556 3.523 3.523 0 0 1-3.558-3.556Zm-17.809 0c0-1.955 1.566-3.52 3.558-3.52 1.957 0 3.559 1.565 3.559 3.52a3.546 3.546 0 0 1-3.559 3.556 3.523 3.523 0 0 1-3.558-3.556Zm-17.809 0c0-1.955 1.566-3.52 3.559-3.52 1.957 0 3.558 1.565 3.558 3.52a3.545 3.545 0 0 1-3.558 3.556 3.523 3.523 0 0 1-3.559-3.556Zm-17.808 0c0-1.955 1.601-3.52 3.558-3.52 1.957 0 3.558 1.565 3.558 3.52a3.545 3.545 0 0 1-3.558 3.556 3.545 3.545 0 0 1-3.558-3.556Zm-17.809 0c0-1.955 1.601-3.52 3.558-3.52 1.957 0 3.558 1.565 3.558 3.52a3.545 3.545 0 0 1-3.558 3.556 3.545 3.545 0 0 1-3.558-3.556Zm-17.809 0c0-1.955 1.601-3.52 3.558-3.52 1.957 0 3.558 1.565 3.558 3.52a3.545 3.545 0 0 1-3.558 3.556 3.545 3.545 0 0 1-3.558-3.556Zm-17.809 0c0-1.955 1.601-3.52 3.558-3.52 1.957 0 3.559 1.565 3.559 3.52a3.546 3.546 0 0 1-3.559 3.556 3.545 3.545 0 0 1-3.558-3.556Zm-17.809 0c0-1.955 1.602-3.52 3.559-3.52s3.558 1.565 3.558 3.52a3.545 3.545 0 0 1-3.558 3.556 3.546 3.546 0 0 1-3.559-3.556Zm-17.808 0c0-1.955 1.601-3.52 3.558-3.52 1.957 0 3.558 1.565 3.558 3.52a3.545 3.545 0 0 1-3.558 3.556 3.545 3.545 0 0 1-3.558-3.556Zm-17.809 0c0-1.955 1.565-3.52 3.558-3.52 1.957 0 3.558 1.565 3.558 3.52a3.545 3.545 0 0 1-3.558 3.556 3.522 3.522 0 0 1-3.558-3.556Zm-17.809 0c0-1.955 1.566-3.52 3.558-3.52 1.957 0 3.558 1.565 3.558 3.52a3.545 3.545 0 0 1-3.558 3.556 3.523 3.523 0 0 1-3.558-3.556ZM6.067 432.604c-1.922-.391-3.203-2.24-2.847-4.16.356-1.92 2.242-3.2 4.163-2.844 1.922.391 3.203 2.24 2.847 4.16a3.572 3.572 0 0 1-3.487 2.916 4.31 4.31 0 0 1-.676-.072Zm98.811-1.386a3.548 3.548 0 0 1-3.274-3.805c.143-1.955 1.851-3.449 3.808-3.271a3.546 3.546 0 0 1 3.273 3.805 3.557 3.557 0 0 1-3.522 3.271h-.285ZM9.874 415.271c-1.886-.569-2.953-2.524-2.384-4.409a3.582 3.582 0 0 1 4.412-2.418c1.886.569 2.954 2.56 2.384 4.409h.036a3.564 3.564 0 0 1-3.416 2.56c-.356 0-.676-.035-1.032-.142Zm97.922-1.458a3.529 3.529 0 0 1-2.029-4.586 3.59 3.59 0 0 1 4.626-2.027c1.815.711 2.74 2.773 1.993 4.587a3.522 3.522 0 0 1-3.309 2.275 3.28 3.28 0 0 1-1.281-.249ZM15.46 398.4c-1.814-.711-2.704-2.809-1.957-4.622.748-1.814 2.847-2.667 4.662-1.92a3.53 3.53 0 0 1 1.921 4.622 3.53 3.53 0 0 1-3.273 2.204 3.54 3.54 0 0 1-1.353-.284Zm99.986-.498a3.616 3.616 0 0 1-.89-4.978 3.621 3.621 0 0 1 4.982-.888c1.601 1.137 1.992 3.342.889 4.942a3.613 3.613 0 0 1-2.953 1.529 3.634 3.634 0 0 1-2.028-.605Zm10.906-14.044c-1.424-1.351-1.459-3.591-.107-5.014a3.59 3.59 0 0 1 5.053-.106c1.423 1.351 1.458 3.626.106 5.013a3.505 3.505 0 0 1-2.562 1.102c-.889 0-1.779-.32-2.49-.995Zm-103.633-1.636a3.53 3.53 0 0 1-1.459-4.8 3.535 3.535 0 0 1 4.804-1.458 3.53 3.53 0 0 1 1.459 4.8 3.555 3.555 0 0 1-3.131 1.885c-.57 0-1.14-.142-1.673-.427Zm116.371-10.738c-1.245-1.493-1.067-3.768.427-5.048 1.459-1.245 3.736-1.067 5.017.426 1.245 1.458 1.068 3.734-.427 5.014a3.427 3.427 0 0 1-2.277.853 3.606 3.606 0 0 1-2.74-1.245Zm-107.582-4.657c-1.637-1.067-2.064-3.271-.996-4.943 1.067-1.635 3.309-2.062 4.91-.995a3.567 3.567 0 0 1 1.032 4.942 3.547 3.547 0 0 1-2.954 1.6 3.733 3.733 0 0 1-1.992-.604Zm121.388-6.614c-1.174-1.564-.89-3.804.676-4.977h.035c1.566-1.174 3.808-.854 4.946.711a3.484 3.484 0 0 1-.676 4.942 3.505 3.505 0 0 1-4.981-.676ZM41.72 352.249c-1.53-1.209-1.815-3.449-.605-4.978 1.245-1.564 3.487-1.813 5.017-.604 1.53 1.244 1.78 3.484.57 5.013a3.572 3.572 0 0 1-2.812 1.351c-.747 0-1.53-.249-2.17-.782Zm125.515-2.56c-1.103-1.6-.711-3.84.89-4.942a3.58 3.58 0 0 1 4.981.853c1.103 1.636.712 3.84-.925 4.942-.605.462-1.316.64-1.992.64a3.676 3.676 0 0 1-2.954-1.493Zm14.714-10.098a3.55 3.55 0 0 1 .96-4.942 3.556 3.556 0 0 1 4.946.96c1.103 1.635.641 3.84-.961 4.942a3.523 3.523 0 0 1-1.992.605c-1.139 0-2.277-.534-2.953-1.565ZM53.053 338.56a3.573 3.573 0 0 1-.214-5.013h.036c1.316-1.458 3.558-1.529 5.017-.214a3.575 3.575 0 0 1 .213 5.014 3.547 3.547 0 0 1-2.633 1.173c-.854 0-1.708-.32-2.42-.96Zm143.715-8.889a3.55 3.55 0 0 1 .961-4.942 3.597 3.597 0 0 1 4.946.995c1.103 1.636.64 3.84-.961 4.943-.64.391-1.316.604-1.992.604a3.548 3.548 0 0 1-2.954-1.6Zm-131.44-3.982c-1.352-1.422-1.316-3.662.107-5.013a3.589 3.589 0 0 1 5.053.106c1.352 1.387 1.317 3.662-.107 5.014a3.59 3.59 0 0 1-2.49.995c-.926 0-1.85-.355-2.563-1.102Zm146.207-5.938a3.55 3.55 0 0 1 .961-4.942h-.036c1.637-1.102 3.879-.711 4.982.924a3.575 3.575 0 0 1-.926 4.943h-.035c-.605.426-1.317.604-1.993.604a3.613 3.613 0 0 1-2.953-1.529Zm-133.148-6.187c-1.316-1.457-1.138-3.733.356-5.013 1.459-1.28 3.7-1.138 5.017.356a3.579 3.579 0 0 1-.356 5.013 3.465 3.465 0 0 1-2.348.889 3.461 3.461 0 0 1-2.669-1.245Zm147.808-3.946c-1.139-1.565-.748-3.805.854-4.942a3.537 3.537 0 0 1 4.946.817c1.138 1.636.782 3.84-.819 4.978-.64.427-1.352.64-2.064.64a3.56 3.56 0 0 1-2.917-1.493ZM91.979 302.08c-1.21-1.529-.96-3.769.57-4.978 1.565-1.244 3.807-.995 5.017.569 1.21 1.529.96 3.769-.57 4.978a3.423 3.423 0 0 1-2.206.782c-1.067 0-2.099-.462-2.81-1.351Zm148.662-2.916a3.525 3.525 0 0 1 .676-4.977c1.566-1.209 3.772-.889 4.982.675a3.563 3.563 0 0 1-.677 4.978c-.64.498-1.387.711-2.17.711a3.503 3.503 0 0 1-2.811-1.387Zm-134.607-8.035a3.564 3.564 0 0 1 .712-4.978 3.57 3.57 0 0 1 4.981.711 3.564 3.564 0 0 1-.711 4.978 3.43 3.43 0 0 1-2.135.711c-1.068 0-2.171-.498-2.847-1.422Zm148.626-2.916c-1.245-1.529-1.067-3.769.463-5.013 1.494-1.28 3.736-1.067 5.017.462 1.245 1.494 1.032 3.734-.463 4.978a3.56 3.56 0 0 1-2.277.853c-1.032 0-2.028-.462-2.74-1.28Zm-134.286-7.644a3.531 3.531 0 0 1 .818-4.942 3.586 3.586 0 0 1 4.982.817c1.138 1.6.747 3.805-.854 4.978a3.515 3.515 0 0 1-2.028.64c-1.139 0-2.242-.498-2.918-1.493Zm147.772-3.947c-1.352-1.458-1.281-3.698.178-5.049 1.423-1.315 3.7-1.244 5.017.178 1.352 1.458 1.245 3.698-.178 5.049-.676.64-1.566.96-2.42.96-.96 0-1.885-.391-2.597-1.138Zm-133.255-6.329c-1.103-1.6-.711-3.84.89-4.942 1.637-1.138 3.843-.747 4.946.853a3.577 3.577 0 0 1-.854 4.978 3.708 3.708 0 0 1-2.064.64 3.598 3.598 0 0 1-2.918-1.529Zm145.993-6.044c-1.423-1.351-1.494-3.591-.178-5.013a3.559 3.559 0 0 1 5.053-.178c1.423 1.315 1.494 3.591.178 5.013a3.642 3.642 0 0 1-2.633 1.138c-.854 0-1.744-.32-2.42-.96Zm-131.368-4.125c-1.104-1.6-.712-3.84.889-4.942 1.601-1.138 3.843-.746 4.946.854a3.55 3.55 0 0 1-.89 4.977 3.51 3.51 0 0 1-2.028.64 3.595 3.595 0 0 1-2.917-1.529Zm143.181-9.137c-1.53-1.209-1.814-3.449-.604-4.978a3.537 3.537 0 0 1 5.017-.605c1.53 1.209 1.779 3.449.569 4.978-.676.889-1.744 1.351-2.775 1.351a3.6 3.6 0 0 1-2.207-.746Zm-128.575-1.103a3.531 3.531 0 0 1 .818-4.942c1.602-1.173 3.808-.818 4.982.818 1.138 1.564.783 3.804-.854 4.942a3.417 3.417 0 0 1-2.064.676c-1.103 0-2.17-.534-2.882-1.494Zm14.393-10.488a3.563 3.563 0 0 1 .676-4.978 3.611 3.611 0 0 1 5.017.675 3.563 3.563 0 0 1-.676 4.978 3.568 3.568 0 0 1-2.171.747 3.606 3.606 0 0 1-2.846-1.422Zm124.804-2.667a3.569 3.569 0 0 1-1.103-4.907 3.6 3.6 0 0 1 4.945-1.066c1.637 1.066 2.135 3.271 1.068 4.906-.676 1.067-1.85 1.636-3.024 1.636a3.347 3.347 0 0 1-1.886-.569Zm-110.785-8.32a3.522 3.522 0 0 1 .427-5.013c1.495-1.28 3.736-1.067 5.017.426a3.586 3.586 0 0 1-.427 5.014 3.587 3.587 0 0 1-2.313.853 3.508 3.508 0 0 1-2.704-1.28Zm119.894-6.933c-1.779-.854-2.491-2.987-1.637-4.765.889-1.742 3.024-2.489 4.768-1.6 1.779.853 2.491 2.987 1.601 4.765h.036c-.641 1.244-1.886 1.991-3.203 1.991-.533-.036-1.067-.143-1.565-.391Zm-106.568-4.872a3.538 3.538 0 0 1 0-5.013c1.352-1.387 3.629-1.387 5.017-.035 1.387 1.386 1.423 3.626.035 5.013v.035a3.55 3.55 0 0 1-2.526 1.032c-.925 0-1.85-.32-2.526-1.032Zm113.88-11.288a3.595 3.595 0 0 1-2.171-4.552 3.552 3.552 0 0 1 4.555-2.133 3.495 3.495 0 0 1 2.135 4.516h.035c-.533 1.457-1.886 2.382-3.344 2.382-.427 0-.819-.071-1.21-.213Zm-101.8-1.743c-1.566-1.209-1.886-3.413-.676-4.977a3.57 3.57 0 0 1 4.981-.712 3.563 3.563 0 0 1 .676 4.978c-.676.925-1.743 1.422-2.846 1.422a3.654 3.654 0 0 1-2.135-.711Zm9.927-14.702c-1.779-.853-2.562-2.951-1.708-4.729a3.574 3.574 0 0 1 4.768-1.671c1.744.818 2.526 2.951 1.672 4.729a3.546 3.546 0 0 1-3.202 2.027c-.534 0-1.067-.107-1.53-.356Zm97.21-.462c-1.921-.427-3.131-2.347-2.704-4.267.427-1.92 2.348-3.129 4.234-2.666 1.922.391 3.131 2.311 2.704 4.231-.355 1.635-1.85 2.773-3.451 2.773-.249 0-.534-.036-.783-.071Zm-90.841-16.018c-1.957-.32-3.238-2.169-2.917-4.124.355-1.92 2.206-3.2 4.163-2.88 1.921.355 3.202 2.204 2.882 4.124a3.579 3.579 0 0 1-3.523 2.951c-.213 0-.427 0-.605-.071Zm94.115-1.422a3.582 3.582 0 0 1-3.203-3.911c.214-1.956 1.957-3.342 3.914-3.165 1.957.214 3.381 1.956 3.167 3.911a3.52 3.52 0 0 1-3.523 3.2c-.142 0-.249 0-.355-.035Zm-96.392-19.467c-.178-1.955 1.281-3.662 3.238-3.84 1.957-.178 3.665 1.28 3.843 3.236.178 1.955-1.281 3.662-3.238 3.84-.107.035-.214.035-.32.035a3.53 3.53 0 0 1-3.523-3.271Zm94.043-1.742c0-1.991 1.601-3.591 3.558-3.591 1.957 0 3.559 1.6 3.559 3.555.035 1.956-1.566 3.556-3.523 3.556a3.568 3.568 0 0 1-3.594-3.52Zm-253.895-4.764a3.551 3.551 0 0 1-1.032-4.907c1.067-1.636 3.274-2.133 4.91-1.031 1.637 1.066 2.135 3.271 1.032 4.906a3.545 3.545 0 0 1-2.953 1.6 3.575 3.575 0 0 1-1.957-.568Zm-12.827-.569a3.551 3.551 0 0 1-.961-4.943c1.067-1.635 3.273-2.062 4.91-.995 1.637 1.102 2.1 3.307.996 4.942-.676 1.031-1.814 1.565-2.953 1.565a3.608 3.608 0 0 1-1.992-.569Zm169.139-9.351c-.641-1.849.32-3.912 2.17-4.552 1.85-.64 3.914.32 4.555 2.169a3.58 3.58 0 0 1-2.171 4.551c-.391.143-.783.178-1.174.178-1.495 0-2.847-.889-3.38-2.346Zm96.605-2.703a3.553 3.553 0 0 1 3.131-3.911c1.957-.213 3.7 1.209 3.949 3.165v-.036a3.588 3.588 0 0 1-3.166 3.947h-.392c-1.779 0-3.344-1.316-3.522-3.165ZM44.46 134.542a3.548 3.548 0 0 1-.997-4.906c1.103-1.636 3.31-2.098 4.946-.996 1.637 1.067 2.1 3.307.997 4.907a3.548 3.548 0 0 1-2.954 1.6c-.676 0-1.387-.178-1.992-.605Zm37.966-4.053a3.55 3.55 0 0 1-.392-5.013 3.556 3.556 0 0 1 5.017-.392 3.55 3.55 0 0 1 .392 5.014 3.586 3.586 0 0 1-2.704 1.244 3.582 3.582 0 0 1-2.313-.853Zm-52.768-5.796a3.59 3.59 0 0 1-.997-4.942 3.597 3.597 0 0 1 4.946-.995c1.637 1.102 2.1 3.306.996 4.942a3.548 3.548 0 0 1-2.953 1.6 3.734 3.734 0 0 1-1.992-.605Zm191.075-4.48a3.531 3.531 0 0 1 .818-4.942 3.538 3.538 0 0 1 4.946.818c1.174 1.6.783 3.804-.818 4.942a3.417 3.417 0 0 1-2.064.676c-1.103 0-2.206-.498-2.882-1.494Zm-126.227-2.809c-1.317-1.457-1.21-3.697.249-5.048 1.494-1.28 3.736-1.174 5.053.284 1.316 1.458 1.174 3.698-.285 5.013a3.586 3.586 0 0 1-2.384.925c-.96 0-1.922-.391-2.633-1.174Zm227.618-2.097c-.427-1.92.783-3.84 2.668-4.267a3.531 3.531 0 0 1 4.27 2.667c.463 1.884-.747 3.804-2.668 4.266a5.782 5.782 0 0 1-.819.071 3.562 3.562 0 0 1-3.451-2.737Zm-307.269-.498c-1.636-1.067-2.063-3.271-.96-4.907 1.067-1.635 3.273-2.062 4.91-.995 1.637 1.102 2.1 3.306.996 4.942-.676 1.031-1.814 1.564-2.953 1.564-.676 0-1.388-.177-1.992-.604Zm194.314-6.649c-1.53-1.244-1.779-3.484-.57-5.013 1.21-1.529 3.452-1.814 4.982-.569a3.525 3.525 0 0 1 .605 4.978 3.576 3.576 0 0 1-2.811 1.351 3.59 3.59 0 0 1-2.206-.747Zm-100.911-2.062c-1.103-1.636-.605-3.876 1.032-4.942a3.555 3.555 0 0 1 4.91 1.031 3.55 3.55 0 0 1-1.031 4.906 3.34 3.34 0 0 1-1.957.605 3.548 3.548 0 0 1-2.954-1.6ZM2.58 104.569c-1.744-.853-2.455-3.022-1.566-4.764.89-1.743 3.025-2.454 4.768-1.565a3.561 3.561 0 0 1 1.601 4.764 3.582 3.582 0 0 1-3.202 1.956 3.331 3.331 0 0 1-1.601-.391Zm314.598-5.867a3.558 3.558 0 0 1 2.099-4.55c1.85-.676 3.914.248 4.59 2.097a3.557 3.557 0 0 1-2.099 4.551 3.234 3.234 0 0 1-1.245.249 3.55 3.55 0 0 1-3.345-2.347Zm-122.456.747c-1.779-.782-2.597-2.88-1.779-4.693.783-1.778 2.882-2.596 4.697-1.778 1.779.782 2.598 2.88 1.815 4.693a3.619 3.619 0 0 1-3.274 2.098c-.462 0-.96-.107-1.459-.32Zm-71.11-2.311c-.747-1.814.107-3.911 1.921-4.658a3.571 3.571 0 0 1 4.662 1.885c.747 1.813-.107 3.91-1.886 4.657a3.238 3.238 0 0 1-1.388.285 3.638 3.638 0 0 1-3.309-2.17Zm54.903-2.81c-1.922-.39-3.131-2.275-2.74-4.195a3.565 3.565 0 0 1 4.199-2.773 3.562 3.562 0 0 1 2.775 4.196c-.356 1.67-1.85 2.844-3.487 2.844-.249 0-.498-.035-.747-.071Zm-38.108-3.092a3.561 3.561 0 0 1 2.775-4.196c1.921-.356 3.807.889 4.199 2.809.355 1.956-.89 3.804-2.811 4.195-.249.036-.463.072-.676.072a3.54 3.54 0 0 1-3.487-2.88Zm21.117 1.28a3.522 3.522 0 0 1-3.522-3.592 3.59 3.59 0 0 1 3.594-3.52c1.992.036 3.558 1.636 3.522 3.627a3.53 3.53 0 0 1-3.558 3.485h-.036ZM11.297 89.03c-1.636-1.067-2.063-3.307-.96-4.942 1.103-1.6 3.309-2.062 4.946-.96a3.55 3.55 0 0 1 .96 4.942c-.676 1.031-1.814 1.565-2.953 1.565a3.527 3.527 0 0 1-1.993-.605Zm298.836-6.115c-.89-1.707-.249-3.876 1.494-4.8 1.744-.89 3.878-.25 4.804 1.493.925 1.742.249 3.876-1.495 4.8a3.408 3.408 0 0 1-1.637.427 3.6 3.6 0 0 1-3.166-1.92ZM21.794 74.365c-1.53-1.21-1.744-3.45-.498-4.978 1.245-1.53 3.487-1.778 4.981-.534 1.53 1.245 1.744 3.485.498 5.014a3.508 3.508 0 0 1-2.74 1.315c-.782 0-1.565-.284-2.241-.817Zm279.39-6.294a3.531 3.531 0 0 1 .818-4.942 3.538 3.538 0 0 1 4.946.818h.036c1.138 1.6.747 3.804-.854 4.977a3.627 3.627 0 0 1-2.064.64c-1.103 0-2.206-.497-2.882-1.493ZM33.411 60.89c-1.387-1.387-1.423-3.627-.035-5.013 1.352-1.423 3.63-1.458 5.017-.072a3.54 3.54 0 0 1 .071 5.014c-.712.71-1.637 1.102-2.562 1.102-.89 0-1.779-.355-2.49-1.031Zm256.778-6.151a3.54 3.54 0 0 1 .142-5.014 3.547 3.547 0 0 1 5.017.143 3.54 3.54 0 0 1-.142 5.013 3.424 3.424 0 0 1-2.42.996c-.96 0-1.885-.392-2.597-1.138Zm-243.95-6.222c-1.281-1.494-1.103-3.734.427-4.978a3.556 3.556 0 0 1 5.017.39 3.586 3.586 0 0 1-.427 5.014 3.583 3.583 0 0 1-2.313.854 3.506 3.506 0 0 1-2.704-1.28Zm231.283-5.547v-.036c-1.53-1.244-1.744-3.484-.498-4.977 1.245-1.53 3.487-1.743 5.017-.498 1.494 1.244 1.743 3.484.498 5.013a3.596 3.596 0 0 1-2.776 1.28 3.587 3.587 0 0 1-2.241-.782ZM60.169 37.422c-1.138-1.6-.711-3.84.89-4.942 1.6-1.138 3.807-.711 4.946.889 1.103 1.6.711 3.84-.89 4.942h-.035a3.504 3.504 0 0 1-4.91-.889Zm203.262-4.586a3.594 3.594 0 0 1-1.103-4.907c1.068-1.671 3.274-2.169 4.911-1.102 1.672 1.03 2.17 3.235 1.103 4.906a3.513 3.513 0 0 1-2.989 1.636 3.83 3.83 0 0 1-1.922-.533ZM75.096 27.75c-.96-1.742-.356-3.911 1.352-4.871 1.743-.924 3.914-.32 4.839 1.387.96 1.742.356 3.91-1.388 4.835a3.248 3.248 0 0 1-1.708.462 3.574 3.574 0 0 1-3.095-1.813ZM248.22 24.41c-1.779-.818-2.526-2.951-1.672-4.729a3.574 3.574 0 0 1 4.768-1.671c1.779.853 2.49 2.987 1.636 4.764-.605 1.245-1.885 1.992-3.202 1.992a3.435 3.435 0 0 1-1.53-.356Zm-157.326-4.8c-.783-1.849.036-3.911 1.85-4.693 1.815-.783 3.879.07 4.697 1.849.748 1.813-.07 3.91-1.886 4.693a3.906 3.906 0 0 1-1.423.284 3.563 3.563 0 0 1-3.238-2.133Zm141.261-1.885c-1.851-.64-2.847-2.702-2.171-4.515.641-1.884 2.704-2.845 4.555-2.169a3.495 3.495 0 0 1 2.135 4.516c-.499 1.457-1.886 2.382-3.345 2.382-.392 0-.783-.071-1.174-.213Zm-124.733-4.657c-.569-1.85.463-3.84 2.348-4.445 1.886-.569 3.879.462 4.448 2.347.605 1.849-.427 3.84-2.313 4.444a3.72 3.72 0 0 1-1.067.178c-1.53 0-2.918-.995-3.416-2.524Zm108.045-.356a3.51 3.51 0 0 1-2.598-4.302c.463-1.885 2.384-3.058 4.306-2.596 1.886.463 3.06 2.418 2.597 4.303-.427 1.635-1.85 2.702-3.451 2.702-.285 0-.57-.036-.854-.107ZM124.59 8.267c-.427-1.92.819-3.805 2.74-4.196a3.538 3.538 0 0 1 4.199 2.773c.427 1.92-.819 3.805-2.74 4.196a5.303 5.303 0 0 1-.747.071c-1.637 0-3.131-1.138-3.452-2.844Zm73.708 1.066h.036c-1.957-.284-3.309-2.097-2.989-4.053.285-1.92 2.099-3.271 4.021-2.987 1.957.285 3.309 2.098 2.989 4.054-.249 1.742-1.779 3.022-3.523 3.022-.178 0-.356 0-.534-.036Zm-56.219-4.16c-.214-1.955 1.174-3.733 3.131-3.946 1.957-.214 3.736 1.209 3.95 3.164.213 1.92-1.21 3.698-3.132 3.911-.142 0-.284.036-.391.036a3.577 3.577 0 0 1-3.558-3.165Zm38.855 2.311a3.522 3.522 0 0 1-3.309-3.768 3.49 3.49 0 0 1 3.736-3.307 3.527 3.527 0 0 1 3.345 3.769c-.107 1.884-1.672 3.306-3.558 3.306h-.214ZM159.781 3.68c-.036-1.956 1.53-3.591 3.487-3.627 1.993-.035 3.629 1.494 3.665 3.485.035 1.955-1.53 3.555-3.487 3.626h-.071c-1.957 0-3.523-1.564-3.594-3.484Z"/></g><g clip-path="url(#c)"><path fill="#fff" d="M567.992 508.533c0-1.955 1.563-3.502 3.499-3.537 1.918 0 3.499 1.582 3.499 3.502a3.496 3.496 0 0 1-3.499 3.502c-1.918 0-3.499-1.547-3.499-3.467Zm-14.207 2.809h-.036a3.488 3.488 0 0 1-3.214-3.751 3.542 3.542 0 0 1 3.783-3.218 3.49 3.49 0 0 1 3.214 3.751 3.522 3.522 0 0 1-3.499 3.254s-.177-.036-.248-.036Zm31.683-3.253a3.447 3.447 0 0 1 3.179-3.751c1.918-.178 3.605 1.262 3.783 3.182.142 1.92-1.297 3.644-3.215 3.787h-.284a3.458 3.458 0 0 1-3.463-3.218Zm-49.336 1.084c-1.918-.32-3.179-2.133-2.877-4.017.355-1.885 2.131-3.183 4.049-2.88 1.882.355 3.179 2.133 2.877 4.053-.32 1.689-1.776 2.898-3.463 2.898-.213 0-.391-.036-.586-.071v.017Zm66.687-2.933c-.355-1.884.941-3.716 2.824-4.053 1.918-.32 3.747.942 4.049 2.862.355 1.884-.941 3.715-2.877 4.018a3.163 3.163 0 0 1-.586.071c-1.634 0-3.144-1.191-3.428-2.898h.018Zm-84.074-.907a3.565 3.565 0 0 1-2.451-4.337c.515-1.849 2.451-2.934 4.334-2.418 1.847.533 2.93 2.453 2.415 4.302a3.47 3.47 0 0 1-3.357 2.56c-.319 0-.621-.036-.941-.107Zm101.177-2.595c-.533-1.849.568-3.787 2.415-4.302 1.847-.552 3.765.533 4.298 2.382.533 1.884-.569 3.822-2.416 4.338-.319.071-.621.142-.941.142a3.47 3.47 0 0 1-3.356-2.56Zm-118.066-3.182c-1.794-.694-2.664-2.774-1.918-4.552.728-1.777 2.752-2.666 4.546-1.92a3.46 3.46 0 0 1 1.918 4.552c-.568 1.368-1.847 2.204-3.25 2.204-.426 0-.87-.107-1.296-.284Zm134.671-2.134c-.728-1.778.142-3.822 1.918-4.551a3.468 3.468 0 0 1 4.546 1.92c.729 1.778-.106 3.822-1.882 4.551h-.036c-.426.178-.87.249-1.296.249-1.403 0-2.7-.8-3.25-2.169Zm-150.797-5.564a3.555 3.555 0 0 1-1.332-4.8c.906-1.689 3.037-2.276 4.759-1.334a3.513 3.513 0 0 1 1.332 4.765 3.433 3.433 0 0 1-3.036 1.778 3.8 3.8 0 0 1-1.723-.427v.018Zm166.71-1.636c-.942-1.689-.356-3.822 1.331-4.764 1.688-.942 3.819-.356 4.76 1.333.941 1.689.355 3.858-1.332 4.8-.568.285-1.119.427-1.723.427-1.225 0-2.415-.622-3.036-1.778v-.018Zm-181.735-8.053c-1.545-1.156-1.882-3.36-.728-4.907 1.154-1.582 3.321-1.884 4.902-.729 1.545 1.12 1.882 3.325.728 4.871a3.482 3.482 0 0 1-2.824 1.44 3.587 3.587 0 0 1-2.06-.657l-.018-.018Zm196.599-1.049c-1.119-1.582-.799-3.751.728-4.907a3.495 3.495 0 0 1 4.902.729c1.155 1.547.799 3.751-.728 4.907a3.526 3.526 0 0 1-2.096.658 3.532 3.532 0 0 1-2.788-1.405l-.018.018Zm-210.309-10.471c-1.403-1.333-1.439-3.573-.107-4.978 1.332-1.404 3.534-1.44 4.937-.107a3.492 3.492 0 0 1 .142 4.943 3.49 3.49 0 0 1-2.557 1.084c-.835 0-1.705-.32-2.415-.942Zm223.949-.462c-1.332-1.405-1.297-3.609.106-4.943 1.403-1.333 3.641-1.297 4.973.107 1.332 1.405 1.261 3.609-.142 4.978a3.533 3.533 0 0 1-2.415.942 3.442 3.442 0 0 1-2.522-1.084Zm-236.115-12.605c-1.225-1.511-1.047-3.715.462-4.942 1.474-1.262 3.676-1.049 4.937.462 1.226 1.476 1.013 3.68-.479 4.907-.622.569-1.439.835-2.202.835a3.574 3.574 0 0 1-2.7-1.262h-.018Zm248.333.107a3.471 3.471 0 0 1-.461-4.942c1.225-1.476 3.427-1.689 4.901-.463 1.51 1.263 1.723 3.432.462 4.943a3.46 3.46 0 0 1-2.699 1.262c-.764 0-1.581-.249-2.203-.8Zm-258.953-14.453c-1.083-1.618-.621-3.787.977-4.872 1.616-1.048 3.783-.622 4.831.978 1.083 1.618.621 3.822-.977 4.871a3.471 3.471 0 0 1-1.918.587 3.474 3.474 0 0 1-2.895-1.582l-.018.018Zm269.662.657a3.505 3.505 0 0 1-.976-4.871 3.498 3.498 0 0 1 4.866-.978c1.616 1.085 2.024 3.254.977 4.872a3.547 3.547 0 0 1-2.931 1.546 3.581 3.581 0 0 1-1.918-.551l-.018-.018ZM575.7 427.307c-.177-1.92 1.226-3.645 3.144-3.823a3.454 3.454 0 0 1 3.818 3.112 3.56 3.56 0 0 1-3.144 3.857h-.355a3.498 3.498 0 0 1-3.463-3.146Zm-14.332 2.969c-1.918-.214-3.285-1.956-3.072-3.894.248-1.92 1.953-3.289 3.871-3.075a3.525 3.525 0 0 1 3.073 3.893c-.213 1.778-1.723 3.111-3.463 3.111-.142 0-.285-.035-.427-.035h.018Zm-136.287-2.347c-.906-1.725-.284-3.822 1.438-4.729 1.705-.907 3.819-.284 4.724 1.404.906 1.725.284 3.858-1.403 4.765-.568.284-1.119.427-1.669.427a3.468 3.468 0 0 1-3.073-1.849l-.017-.018Zm288.008 1.12c-1.705-.907-2.345-3.04-1.439-4.765.906-1.688 3.037-2.346 4.76-1.44 1.687.943 2.344 3.04 1.438 4.765-.621 1.191-1.847 1.849-3.108 1.849a3.455 3.455 0 0 1-1.651-.427v.018Zm-120.233-4.693a3.502 3.502 0 0 1 2.096-4.48c1.776-.658 3.818.284 4.475 2.062.657 1.813-.284 3.858-2.096 4.515-.39.143-.763.214-1.19.214a3.517 3.517 0 0 1-3.285-2.311Zm-49.265 1.546c-1.776-.693-2.7-2.738-1.989-4.515.728-1.814 2.77-2.703 4.546-1.991 1.776.693 2.7 2.737 1.954 4.515a3.455 3.455 0 0 1-3.25 2.24c-.427 0-.835-.071-1.261-.249Zm65.089-8.889c-1.155-1.546-.799-3.751.728-4.871 1.581-1.155 3.783-.8 4.902.729 1.154 1.582.799 3.751-.764 4.907-.622.462-1.332.658-2.06.658a3.37 3.37 0 0 1-2.788-1.44l-.018.017Zm-81.055-.142c-1.545-1.191-1.812-3.395-.657-4.942 1.19-1.511 3.392-1.813 4.901-.622 1.545 1.191 1.847 3.36.657 4.906a3.468 3.468 0 0 1-2.788 1.369 3.408 3.408 0 0 1-2.095-.693l-.018-.018Zm-110.216-4.978a3.488 3.488 0 0 1 1.811-4.586c1.794-.765 3.818.035 4.582 1.813a3.528 3.528 0 0 1-1.811 4.622c-.462.178-.906.285-1.368.285-1.367 0-2.664-.8-3.214-2.134Zm303.583 1.511c-1.776-.728-2.593-2.808-1.812-4.586a3.491 3.491 0 0 1 4.618-1.814c1.74.765 2.593 2.845 1.776 4.623a3.498 3.498 0 0 1-3.179 2.097c-.48 0-.942-.106-1.403-.32Zm-99.064-7.768a3.466 3.466 0 0 1-.479-4.907c1.261-1.511 3.463-1.725 4.937-.498 1.51 1.227 1.67 3.467.462 4.942a3.484 3.484 0 0 1-2.7 1.263c-.763 0-1.58-.249-2.202-.8h-.018Zm-107.285-1.618a3.544 3.544 0 0 1 .568-4.942c1.509-1.192 3.712-.943 4.937.568 1.19 1.512.941 3.716-.568 4.907a3.44 3.44 0 0 1-2.167.765 3.636 3.636 0 0 1-2.77-1.298Zm-103.646-8.64c-.657-1.814.32-3.822 2.131-4.445 1.812-.657 3.819.32 4.44 2.134.658 1.813-.319 3.822-2.131 4.48a4.35 4.35 0 0 1-1.154.177 3.483 3.483 0 0 1-3.286-2.346Zm316.619 1.849c-1.847-.658-2.806-2.667-2.167-4.48a3.517 3.517 0 0 1 4.476-2.134c1.811.623 2.752 2.631 2.131 4.48-.48 1.44-1.847 2.311-3.286 2.311-.39 0-.763-.071-1.154-.177Zm-95.44-5.707c-1.687-.907-2.309-3.04-1.368-4.764.906-1.689 3.037-2.312 4.76-1.369 1.687.906 2.309 3.04 1.367 4.729-.621 1.191-1.811 1.848-3.072 1.848-.568 0-1.119-.177-1.669-.462l-.018.018Zm-127.355-2.702c-.905-1.725-.284-3.822 1.439-4.729s3.818-.285 4.724 1.44c.906 1.724.284 3.858-1.438 4.729a3.456 3.456 0 0 1-1.634.426c-1.261 0-2.487-.657-3.073-1.848l-.018-.018Zm-99.134-10.365c-.515-1.849.569-3.786 2.416-4.302 1.847-.533 3.818.569 4.333 2.418.479 1.849-.568 3.787-2.451 4.302-.32.107-.639.142-.941.142a3.47 3.47 0 0 1-3.357-2.56Zm327.399 2.134c-1.847-.534-2.93-2.454-2.415-4.303.515-1.884 2.45-2.933 4.298-2.453 1.846.533 2.93 2.489 2.415 4.338a3.47 3.47 0 0 1-3.357 2.56c-.319 0-.639-.071-.941-.142Zm-93.167-4.765c-1.812-.693-2.735-2.738-2.025-4.515a3.512 3.512 0 0 1 4.511-2.027c1.812.693 2.735 2.738 2.025 4.516a3.49 3.49 0 0 1-3.25 2.275c-.409 0-.835-.107-1.261-.249Zm-142.397-3.431v.036a3.538 3.538 0 0 1 2.06-4.516 3.531 3.531 0 0 1 4.511 2.062c.657 1.814-.284 3.823-2.06 4.48a3.074 3.074 0 0 1-1.225.249 3.467 3.467 0 0 1-3.286-2.311Zm-96.133-11.093c-.426-1.885.764-3.787 2.664-4.196 1.883-.426 3.783.8 4.156 2.702v-.035c.462 1.884-.746 3.787-2.628 4.195-.284.072-.533.072-.764.072-1.616 0-3.072-1.085-3.428-2.738Zm336.137 2.346c-1.883-.426-3.037-2.275-2.664-4.16a3.537 3.537 0 0 1 4.191-2.666c1.883.426 3.073 2.311 2.664 4.195-.391 1.618-1.811 2.738-3.427 2.738-.249 0-.48-.035-.764-.107Zm-91.906-4.337c-1.847-.534-2.966-2.454-2.451-4.303.533-1.848 2.415-2.968 4.298-2.488a3.559 3.559 0 0 1 2.451 4.302c-.409 1.582-1.847 2.595-3.392 2.595-.285 0-.587-.035-.906-.106Zm-153.443-3.894a3.498 3.498 0 0 1 2.486-4.302 3.484 3.484 0 0 1 4.262 2.489 3.456 3.456 0 0 1-2.486 4.302 3.724 3.724 0 0 1-.906.107c-1.545 0-2.93-1.049-3.356-2.596Zm-94.18-11.449c-.355-1.92.942-3.715 2.842-4.053a3.497 3.497 0 1 1 1.172 6.898 3.163 3.163 0 0 1-.586.071 3.487 3.487 0 0 1-3.428-2.898v-.018Zm343.099 2.56a3.473 3.473 0 0 1-2.824-4.053c.319-1.884 2.131-3.147 4.013-2.844 1.919.32 3.179 2.133 2.878 4.017v.036a3.494 3.494 0 0 1-3.428 2.862c-.213 0-.409 0-.622-.035l-.017.017Zm-91.267-4.231c-1.918-.391-3.144-2.204-2.771-4.089h-.035c.391-1.884 2.202-3.146 4.102-2.773 1.918.356 3.144 2.169 2.789 4.089a3.478 3.478 0 0 1-3.428 2.844c-.249 0-.462-.035-.657-.071Zm-161.524-4.195c-.355-1.92.906-3.751 2.788-4.089 1.883-.356 3.712.907 4.085 2.791.355 1.884-.906 3.716-2.788 4.089-.213.035-.462.035-.657.035a3.478 3.478 0 0 1-3.428-2.844v.018Zm-92.918-11.591c-.249-1.92 1.083-3.68 3.001-3.929a3.489 3.489 0 0 1 3.925 3.004c.249 1.92-1.083 3.68-3.001 3.911-.178.036-.32.036-.48.036a3.468 3.468 0 0 1-3.428-3.04l-.017.018Zm348.479 2.737c-1.882-.248-3.25-1.991-3.001-3.928.248-1.92 1.989-3.254 3.925-3.005 1.918.249 3.285 1.991 3.036 3.911a3.538 3.538 0 0 1-3.498 3.04c-.142 0-.284 0-.462-.035v.017Zm-91.071-4.195a3.456 3.456 0 0 1-2.966-3.929c.248-1.92 1.989-3.253 3.925-3.004a3.526 3.526 0 0 1 3.001 3.946 3.499 3.499 0 0 1-3.463 3.005c-.142 0-.32 0-.48-.036l-.017.018Zm-167.26-4.445c-.249-1.884 1.118-3.68 3.036-3.928 1.883-.249 3.641 1.084 3.925 3.004a3.49 3.49 0 0 1-3.037 3.911c-.142.036-.284.036-.461.036-1.723 0-3.215-1.298-3.463-3.04v.017Zm-92.12-11.626c-.177-1.92 1.261-3.609 3.179-3.822 1.918-.178 3.605 1.262 3.783 3.182.213 1.92-1.225 3.644-3.143 3.822h-.32a3.539 3.539 0 0 1-3.499-3.182Zm352.493 2.862a3.463 3.463 0 0 1-3.143-3.787c.178-1.92 1.882-3.36 3.818-3.182 1.918.178 3.321 1.885 3.144 3.822-.178 1.814-1.67 3.183-3.463 3.183-.107 0-.213 0-.356-.036Zm-91.035-4.16a3.503 3.503 0 0 1-3.179-3.822c.177-1.92 1.882-3.325 3.818-3.147 1.918.142 3.321 1.849 3.143 3.787-.142 1.813-1.669 3.182-3.463 3.182h-.319Zm-171.221-4.622c-.178-1.92 1.261-3.645 3.179-3.822 1.918-.143 3.605 1.297 3.783 3.217.177 1.92-1.261 3.609-3.179 3.787h-.32c-1.776 0-3.321-1.369-3.463-3.182Zm-91.604-11.662a3.493 3.493 0 0 1 3.285-3.68c1.918-.143 3.57 1.333 3.677 3.253a3.453 3.453 0 0 1-3.25 3.715h-.214c-1.847 0-3.392-1.44-3.498-3.288Zm355.228 3.004a3.484 3.484 0 0 1-3.286-3.68c.142-1.92 1.794-3.431 3.712-3.289a3.484 3.484 0 0 1 3.286 3.68c-.107 1.849-1.634 3.325-3.499 3.325 0 0-.142-.036-.213-.036Zm-91.125-4.196c-1.918-.106-3.427-1.742-3.321-3.68.107-1.92 1.741-3.431 3.676-3.324 1.918.107 3.428 1.742 3.322 3.68a3.496 3.496 0 0 1-3.499 3.324h-.178Zm-173.689-4.764c-.106-1.92 1.403-3.573 3.321-3.68 1.918-.107 3.57 1.404 3.676 3.324.071 1.956-1.438 3.574-3.321 3.68h-.213c-1.847 0-3.392-1.475-3.463-3.324Zm-91.178-11.627c-.035-1.955 1.474-3.573 3.392-3.609 1.954-.071 3.534 1.476 3.605 3.396.071 1.92-1.474 3.538-3.392 3.609h-.106c-1.883 0-3.463-1.511-3.499-3.396Zm356.88 3.111c-1.918-.071-3.463-1.688-3.392-3.608.035-1.92 1.634-3.467 3.57-3.396 1.953.036 3.463 1.636 3.427 3.609-.071 1.884-1.616 3.395-3.499 3.395h-.106Zm-91.267-4.231c-1.953-.035-3.463-1.617-3.427-3.573a3.507 3.507 0 0 1 3.569-3.431c1.918.035 3.463 1.653 3.428 3.609-.071 1.884-1.616 3.395-3.499 3.395h-.071Zm-175.021-4.871c-.036-1.92 1.51-3.538 3.428-3.573a3.496 3.496 0 0 1 3.569 3.431 3.496 3.496 0 0 1-3.427 3.573h-.071c-1.883 0-3.463-1.546-3.499-3.431ZM391 256.213c0-.177.036-.32.036-.462 0-.142-.036-.32-.036-.462 0-1.92 1.581-3.502 3.534-3.502 1.918 0 3.499 1.582 3.499 3.502 0 .142-.036.32-.036.462 0 .142.036.285.036.427 0 1.955-1.581 3.538-3.499 3.538-1.953 0-3.498-1.583-3.534-3.503Zm354.003-.284a3.495 3.495 0 0 1 3.498-3.502c1.918 0 3.499 1.582 3.499 3.502a3.507 3.507 0 0 1-3.499 3.502c-1.918 0-3.498-1.582-3.498-3.502Zm-91.409-.622a3.497 3.497 0 0 1 3.499-3.503c1.918 0 3.498 1.583 3.498 3.503a3.496 3.496 0 0 1-3.498 3.502 3.474 3.474 0 0 1-3.499-3.502ZM485.25 253.76c-1.953 0-3.498-1.618-3.498-3.538a3.541 3.541 0 0 1 3.534-3.466c1.918 0 3.499 1.582 3.499 3.537a3.544 3.544 0 0 1-3.535 3.467Zm259.557-15.271c-.071-1.92 1.474-3.538 3.392-3.573 1.918-.072 3.535 1.475 3.606 3.395.035 1.92-1.51 3.538-3.392 3.609h-.107a3.504 3.504 0 0 1-3.499-3.431Zm-350.166 2.809c-1.918-.036-3.428-1.654-3.392-3.609a3.533 3.533 0 0 1 3.605-3.396c1.918.071 3.463 1.689 3.392 3.609-.036 1.885-1.616 3.396-3.499 3.396h-.106Zm258.704-3.396c-.035-1.92 1.474-3.538 3.392-3.609 1.954-.035 3.57 1.476 3.606 3.396.035 1.955-1.475 3.573-3.393 3.609h-.106c-1.883 0-3.428-1.511-3.499-3.396Zm-167.864-1.635c-1.918-.071-3.427-1.689-3.356-3.645a3.5 3.5 0 0 1 3.64-3.36 3.491 3.491 0 0 1 3.357 3.609 3.497 3.497 0 0 1-3.499 3.396h-.142Zm258.58-15.129c-.106-1.92 1.368-3.609 3.321-3.716a3.494 3.494 0 0 1 3.677 3.289c.106 1.956-1.368 3.609-3.286 3.716h-.213a3.504 3.504 0 0 1-3.499-3.289Zm-91.444-.622a3.47 3.47 0 0 1 3.286-3.68c1.918-.143 3.569 1.333 3.711 3.288a3.493 3.493 0 0 1-3.285 3.68s-.142.036-.213.036a3.508 3.508 0 0 1-3.499-3.324Zm-257.355 3.288a3.482 3.482 0 0 1-3.285-3.68c.106-1.92 1.776-3.431 3.712-3.288a3.482 3.482 0 0 1 3.285 3.68c-.106 1.848-1.687 3.324-3.499 3.324 0 0-.142 0-.213-.036Zm91.072-5.048c-1.954-.107-3.392-1.778-3.25-3.716.142-1.92 1.776-3.396 3.747-3.253a3.488 3.488 0 0 1 3.214 3.751c-.106 1.813-1.651 3.253-3.463 3.253-.106 0-.177 0-.248-.035Zm256.467-14.987a3.508 3.508 0 0 1 3.178-3.822c1.919-.143 3.606 1.262 3.783 3.182.178 1.92-1.225 3.644-3.143 3.822h-.32a3.512 3.512 0 0 1-3.498-3.182Zm-91.587-.551c-.178-1.92 1.225-3.645 3.144-3.822 1.918-.214 3.64 1.191 3.853 3.111a3.56 3.56 0 0 1-3.143 3.857h-.355c-1.776 0-3.286-1.333-3.499-3.146Zm-254.762 3.111c-1.918-.178-3.356-1.849-3.179-3.787.178-1.92 1.883-3.36 3.819-3.182 1.918.178 3.321 1.884 3.143 3.822-.142 1.814-1.669 3.182-3.463 3.182-.107 0-.213 0-.32-.035Zm91.302-5.013a3.531 3.531 0 0 1-3.107-3.894c.213-1.884 1.953-3.289 3.871-3.075 1.918.213 3.286 1.955 3.073 3.893-.214 1.778-1.705 3.111-3.464 3.111-.142 0-.284-.035-.39-.035h.017ZM740.9 186.507a3.518 3.518 0 0 1 3.037-3.929c1.883-.249 3.676 1.12 3.889 3.004v.036c.285 1.884-1.083 3.644-3.001 3.893-.142.036-.284.036-.426.036a3.552 3.552 0 0 1-3.499-3.04Zm-91.799-.498c-.284-1.92 1.012-3.716 2.948-4 1.882-.285 3.676 1.013 3.978 2.933h-.036c.32 1.885-1.012 3.68-2.948 3.982-.177 0-.355.036-.479.036-1.723 0-3.215-1.262-3.463-2.969v.018Zm-250.908 2.898c-1.918-.249-3.25-1.991-3.002-3.929.249-1.92 1.989-3.254 3.925-3.005 1.883.214 3.25 1.991 3.002 3.894-.249 1.777-1.723 3.075-3.464 3.075-.142 0-.284 0-.461-.035Zm91.764-4.978c-1.883-.32-3.179-2.133-2.877-4.036a3.485 3.485 0 0 1 4.031-2.862 3.514 3.514 0 0 1 2.877 4.018c-.284 1.724-1.74 2.898-3.428 2.898-.213 0-.39 0-.586-.036l-.017.018Zm248.404-14.631c-.32-1.885.941-3.716 2.823-4.018a3.505 3.505 0 0 1 4.05 2.862c.319 1.885-.942 3.716-2.877 4.018a3.081 3.081 0 0 1-.587.071c-1.633 0-3.143-1.227-3.427-2.933h.018Zm-92.315-.32c-.426-1.885.799-3.751 2.7-4.16 1.882-.427 3.747.8 4.12 2.702a3.47 3.47 0 0 1-2.664 4.16 5.251 5.251 0 0 1-.728.071 3.508 3.508 0 0 1-3.428-2.773Zm-245.385 2.595a3.541 3.541 0 0 1-2.877-4.053 3.495 3.495 0 0 1 4.049-2.844c1.883.32 3.179 2.133 2.842 4.017a3.454 3.454 0 0 1-3.428 2.898c-.213 0-.39 0-.586-.035v.017Zm92.528-4.871c-1.883-.426-3.037-2.311-2.593-4.195.426-1.885 2.309-3.04 4.191-2.596 1.883.462 3.037 2.347 2.593 4.196a3.5 3.5 0 0 1-3.392 2.702c-.284 0-.568-.036-.799-.107Zm241.851-14.418c-.427-1.848.763-3.751 2.663-4.124 1.883-.462 3.748.729 4.156 2.631.426 1.885-.763 3.787-2.664 4.196a5.886 5.886 0 0 1-.763.071c-1.616 0-3.037-1.12-3.392-2.774Zm-93.274 0c-.568-1.813.479-3.786 2.309-4.337 1.847-.551 3.818.497 4.369 2.346.568 1.849-.498 3.787-2.309 4.338-.355.107-.693.178-1.012.178a3.5 3.5 0 0 1-3.357-2.525Zm-237.944 2.063a3.504 3.504 0 0 1-2.663-4.16 3.5 3.5 0 0 1 4.155-2.667c1.883.427 3.108 2.276 2.664 4.16a3.485 3.485 0 0 1-3.392 2.756c-.249 0-.479-.036-.764-.107v.018Zm93.789-4.551a3.505 3.505 0 0 1-2.202-4.409 3.52 3.52 0 0 1 4.44-2.24c1.811.622 2.788 2.595 2.202 4.444-.48 1.476-1.847 2.382-3.321 2.382-.355 0-.728-.035-1.119-.177Zm138.348-13.583c-.764-1.777.071-3.857 1.811-4.586 1.776-.765 3.854.035 4.618 1.813.728 1.778-.071 3.858-1.847 4.622-.462.178-.906.285-1.368.285-1.367 0-2.664-.8-3.214-2.134Zm94.836-.693c-.48-1.849.586-3.787 2.451-4.302a3.467 3.467 0 0 1 4.298 2.418c.532 1.848-.569 3.786-2.416 4.302a2.969 2.969 0 0 1-.941.142c-1.545 0-2.93-1.013-3.392-2.56Zm-322.923 1.813c-1.847-.533-2.931-2.453-2.416-4.302.498-1.884 2.451-2.969 4.298-2.453a3.529 3.529 0 0 1 2.415 4.338 3.47 3.47 0 0 1-3.356 2.56c-.32 0-.622-.072-.941-.143Zm95.813-3.946c-1.741-.8-2.486-2.898-1.634-4.658a3.482 3.482 0 0 1 4.653-1.653c1.74.8 2.486 2.897 1.687 4.657-.639 1.263-1.882 1.991-3.179 1.991a3.348 3.348 0 0 1-1.509-.355l-.018.018Zm124.495-12.214c-1.048-1.653-.533-3.786 1.083-4.835 1.687-1.014 3.819-.534 4.831 1.12a3.5 3.5 0 0 1-1.084 4.835 3.564 3.564 0 0 1-1.847.534 3.534 3.534 0 0 1-2.965-1.654h-.018Zm97.465-2.133c-.64-1.813.319-3.822 2.131-4.444 1.847-.623 3.818.32 4.475 2.133a3.54 3.54 0 0 1-2.166 4.48 4.324 4.324 0 0 1-1.155.178 3.483 3.483 0 0 1-3.285-2.347Zm-312.783 1.547c-1.811-.623-2.77-2.631-2.131-4.48.622-1.814 2.628-2.774 4.475-2.134 1.812.623 2.771 2.631 2.132 4.48-.533 1.44-1.847 2.347-3.322 2.347-.355 0-.763-.071-1.154-.213Zm99.046-2.596c-1.581-1.12-1.954-3.289-.835-4.907a3.478 3.478 0 0 1 4.866-.835 3.486 3.486 0 0 1 .835 4.871 3.414 3.414 0 0 1-2.824 1.511 3.708 3.708 0 0 1-2.025-.622l-.017-.018Zm106.06-10.044c-1.332-1.405-1.296-3.609.107-4.943a3.45 3.45 0 0 1 4.937.072c1.332 1.404 1.296 3.608-.107 4.942-.657.658-1.545.978-2.415.978a3.61 3.61 0 0 1-2.522-1.049Zm-95.156-3.609a3.494 3.494 0 0 1 .249-4.942 3.528 3.528 0 0 1 4.972.284c1.297 1.44 1.155 3.644-.284 4.942-.657.587-1.509.907-2.309.907-.976 0-1.918-.427-2.628-1.191Zm196.564-1.369a3.489 3.489 0 0 1 1.811-4.587c1.776-.764 3.854.036 4.618 1.814.763 1.742-.072 3.822-1.812 4.586-.462.214-.941.32-1.403.32-1.367 0-2.664-.8-3.214-2.133Zm-300.405 1.227a3.503 3.503 0 0 1-1.811-4.623 3.49 3.49 0 0 1 4.617-1.813c1.794.764 2.593 2.844 1.812 4.622a3.566 3.566 0 0 1-3.215 2.098c-.461 0-.941-.107-1.403-.284Zm186.104-6.578c-1.634-.978-2.167-3.147-1.19-4.8.976-1.636 3.143-2.205 4.795-1.191 1.687.977 2.202 3.146 1.19 4.8-.622 1.084-1.812 1.706-2.966 1.706a3.36 3.36 0 0 1-1.812-.533l-.017.018Zm-68.428-3.858c-.835-1.742-.178-3.822 1.58-4.693 1.741-.836 3.854-.143 4.689 1.582.87 1.742.142 3.858-1.581 4.693a3.374 3.374 0 0 1-1.545.391c-1.296 0-2.557-.729-3.143-1.955v-.018Zm53.332-2.56c-1.847-.498-2.966-2.418-2.486-4.267a3.538 3.538 0 0 1 4.297-2.489c1.847.534 2.966 2.418 2.451 4.303a3.461 3.461 0 0 1-3.356 2.595c-.32 0-.622-.035-.906-.142Zm-37.135-3.858a3.504 3.504 0 0 1 2.77-4.089c1.883-.355 3.747.871 4.085 2.81.39 1.884-.87 3.715-2.771 4.088a4.355 4.355 0 0 1-.657.071c-1.634 0-3.108-1.19-3.427-2.88Zm159.073.142c-.906-1.706-.285-3.857 1.438-4.764 1.687-.907 3.818-.249 4.724 1.44.906 1.707.284 3.858-1.438 4.764a3.451 3.451 0 0 1-1.634.427 3.496 3.496 0 0 1-3.073-1.849l-.017-.018ZM573.533 88.89c-1.918-.071-3.463-1.689-3.392-3.609.071-1.92 1.67-3.467 3.606-3.396 1.918.036 3.463 1.654 3.392 3.574-.071 1.92-1.616 3.43-3.499 3.43h-.107Zm-147.227-.587c-1.723-.906-2.344-3.04-1.438-4.729.905-1.706 3.037-2.346 4.759-1.44 1.687.907 2.309 3.04 1.403 4.73-.621 1.19-1.811 1.848-3.072 1.848a3.344 3.344 0 0 1-1.634-.427l-.018.018ZM703.09 72.764a3.553 3.553 0 0 1 .977-4.87 3.546 3.546 0 0 1 4.866.977c1.048 1.618.639 3.787-.977 4.871a3.514 3.514 0 0 1-1.918.587c-1.154 0-2.238-.569-2.93-1.582l-.018.017Zm-268.117.392a3.528 3.528 0 0 1-.941-4.872c1.047-1.617 3.214-2.026 4.83-.942a3.458 3.458 0 0 1 .977 4.836 3.474 3.474 0 0 1-2.895 1.582 3.603 3.603 0 0 1-1.953-.604h-.018ZM692.914 59.04c-1.261-1.476-1.048-3.68.426-4.942a3.573 3.573 0 0 1 4.973.462c1.225 1.511 1.012 3.716-.48 4.942-.621.57-1.438.8-2.238.8a3.441 3.441 0 0 1-2.664-1.262h-.017Zm-247.765-.107c-1.509-1.262-1.723-3.466-.462-4.977 1.261-1.476 3.428-1.636 4.938-.427 1.474 1.262 1.669 3.467.461 4.942a3.535 3.535 0 0 1-2.699 1.262 3.556 3.556 0 0 1-2.238-.8Zm236.114-12.355c-1.438-1.334-1.474-3.538-.142-4.942a3.483 3.483 0 0 1 4.937-.143c1.403 1.334 1.475 3.574.143 4.978a3.638 3.638 0 0 1-2.558 1.085 3.39 3.39 0 0 1-2.38-.978Zm-224.481-.658c-1.332-1.404-1.261-3.644.142-4.942 1.403-1.334 3.64-1.298 4.937.106 1.332 1.44 1.296 3.645-.107 4.978a3.662 3.662 0 0 1-2.415.942 3.52 3.52 0 0 1-2.557-1.084Zm211.393-10.258c-1.546-1.155-1.847-3.324-.729-4.906 1.155-1.547 3.357-1.885 4.902-.73 1.581 1.156 1.883 3.325.764 4.907a3.549 3.549 0 0 1-2.824 1.405 3.615 3.615 0 0 1-2.096-.658l-.017-.018ZM469.924 34.4c-1.155-1.547-.799-3.751.728-4.871 1.581-1.156 3.783-.8 4.902.729 1.154 1.582.799 3.786-.764 4.906-.622.463-1.332.658-2.06.658a3.37 3.37 0 0 1-2.788-1.44l-.018.018Zm183.972-7.947c-1.687-.942-2.309-3.075-1.368-4.764.942-1.689 3.073-2.311 4.76-1.369a3.478 3.478 0 0 1 1.367 4.764 3.509 3.509 0 0 1-3.072 1.778 3.48 3.48 0 0 1-1.669-.426l-.018.017Zm-169.498-1.777c-.941-1.725-.355-3.823 1.367-4.765 1.67-.942 3.819-.32 4.76 1.369.906 1.689.32 3.822-1.403 4.764a3.497 3.497 0 0 1-1.687.427c-1.226 0-2.416-.622-3.037-1.778v-.017Zm154.153-5.6c-1.775-.694-2.663-2.774-1.918-4.552.729-1.777 2.771-2.666 4.547-1.92h.035c1.776.73 2.629 2.774 1.883 4.587-.568 1.333-1.847 2.169-3.215 2.169-.461 0-.905-.107-1.332-.284ZM499.973 16.8a3.551 3.551 0 0 1 1.954-4.551c1.776-.693 3.818.142 4.546 1.955a3.55 3.55 0 0 1-1.953 4.552 3.304 3.304 0 0 1-1.297.248 3.492 3.492 0 0 1-3.25-2.204Zm122.471-3.218c-1.883-.533-2.931-2.453-2.451-4.338a3.524 3.524 0 0 1 4.333-2.417c1.847.533 2.93 2.453 2.415 4.302-.426 1.582-1.811 2.56-3.356 2.56-.32 0-.622-.036-.941-.107ZM516.383 10.88c-.497-1.849.586-3.787 2.451-4.302a3.472 3.472 0 0 1 4.298 2.453c.532 1.849-.569 3.787-2.451 4.302a3.72 3.72 0 0 1-.906.107c-1.545 0-2.93-1.013-3.392-2.56Zm89.384-1.084c-1.918-.32-3.179-2.134-2.859-4.036.355-1.92 2.131-3.182 4.049-2.862 1.883.355 3.179 2.133 2.842 4.053a3.455 3.455 0 0 1-3.428 2.898c-.213 0-.391-.036-.586-.071l-.018.018ZM533.379 6.79c-.32-1.92.941-3.715 2.877-4.018a3.494 3.494 0 0 1 4.031 2.88c.32 1.885-.976 3.716-2.877 4.018-.213.036-.39.071-.586.071a3.485 3.485 0 0 1-3.427-2.933l-.018-.018Zm55.392.871c-1.953-.142-3.392-1.813-3.214-3.75.177-1.92 1.847-3.36 3.765-3.219 1.918.178 3.356 1.85 3.179 3.787a3.472 3.472 0 0 1-3.463 3.218c-.107 0-.178 0-.285-.036h.018Zm-38.112-3.289c-.142-1.92 1.297-3.609 3.215-3.75 1.918-.143 3.605 1.297 3.747 3.217.177 1.92-1.297 3.609-3.215 3.751 0 0-.177.036-.284.036-1.776 0-3.321-1.405-3.463-3.254Zm17.458-.906c0-1.92 1.58-3.467 3.498-3.467 1.918 0 3.499 1.582 3.499 3.502 0 1.92-1.581 3.502-3.499 3.502-1.918-.035-3.498-1.582-3.498-3.537Z"/></g><g clip-path="url(#d)"><path fill="#fff" d="M1371.99 508.533c0-1.955 1.57-3.502 3.5-3.537 1.92 0 3.5 1.582 3.5 3.502a3.5 3.5 0 0 1-3.5 3.502c-1.92 0-3.5-1.547-3.5-3.467Zm-14.21 2.809h-.03a3.493 3.493 0 0 1-3.22-3.751 3.548 3.548 0 0 1 3.79-3.218c1.92.143 3.35 1.814 3.21 3.751a3.523 3.523 0 0 1-3.5 3.254s-.17-.036-.25-.036Zm31.69-3.253a3.445 3.445 0 0 1 3.18-3.751c1.91-.178 3.6 1.262 3.78 3.182.14 1.92-1.3 3.644-3.21 3.787h-.29a3.454 3.454 0 0 1-3.46-3.218Zm-49.34 1.084c-1.92-.32-3.18-2.133-2.88-4.017.36-1.885 2.14-3.183 4.05-2.88 1.89.355 3.18 2.133 2.88 4.053-.32 1.689-1.78 2.898-3.46 2.898-.22 0-.39-.036-.59-.071v.017Zm66.69-2.933c-.36-1.884.94-3.716 2.82-4.053 1.92-.32 3.75.942 4.05 2.862.36 1.884-.94 3.715-2.87 4.018-.18.035-.4.071-.59.071-1.63 0-3.14-1.191-3.43-2.898h.02Zm-84.07-.907a3.574 3.574 0 0 1-2.46-4.337c.52-1.849 2.46-2.934 4.34-2.418 1.84.533 2.93 2.453 2.41 4.302a3.461 3.461 0 0 1-3.35 2.56c-.32 0-.63-.036-.94-.107Zm101.17-2.595c-.53-1.849.57-3.787 2.42-4.302 1.84-.552 3.76.533 4.29 2.382a3.497 3.497 0 0 1-2.41 4.338c-.32.071-.62.142-.94.142a3.474 3.474 0 0 1-3.36-2.56Zm-118.06-3.182c-1.8-.694-2.67-2.774-1.92-4.552.73-1.777 2.75-2.666 4.54-1.92a3.451 3.451 0 0 1 1.92 4.552c-.57 1.368-1.84 2.204-3.25 2.204-.42 0-.87-.107-1.29-.284Zm134.67-2.134c-.73-1.778.14-3.822 1.91-4.551a3.472 3.472 0 0 1 4.55 1.92c.73 1.778-.11 3.822-1.88 4.551h-.04c-.42.178-.87.249-1.29.249-1.41 0-2.7-.8-3.25-2.169Zm-150.8-5.564a3.555 3.555 0 0 1-1.33-4.8c.9-1.689 3.03-2.276 4.76-1.334 1.67.943 2.27 3.076 1.33 4.765-.64 1.155-1.81 1.778-3.04 1.778-.58 0-1.15-.143-1.72-.427v.018Zm166.71-1.636c-.94-1.689-.36-3.822 1.33-4.764 1.69-.942 3.82-.356 4.76 1.333s.36 3.858-1.33 4.8c-.57.285-1.12.427-1.72.427-1.23 0-2.42-.622-3.04-1.778v-.018Zm-181.73-8.053c-1.55-1.156-1.89-3.36-.73-4.907 1.15-1.582 3.32-1.884 4.9-.729 1.54 1.12 1.88 3.325.73 4.871-.7.943-1.74 1.44-2.83 1.44a3.59 3.59 0 0 1-2.06-.657l-.01-.018Zm196.59-1.049c-1.11-1.582-.79-3.751.73-4.907a3.492 3.492 0 0 1 4.9.729c1.16 1.547.8 3.751-.72 4.907-.64.462-1.37.658-2.1.658-1.05 0-2.1-.498-2.79-1.405l-.02.018Zm-210.31-10.471c-1.4-1.333-1.43-3.573-.1-4.978 1.33-1.404 3.53-1.44 4.94-.107a3.497 3.497 0 0 1 .14 4.943 3.51 3.51 0 0 1-2.56 1.084c-.83 0-1.7-.32-2.42-.942Zm223.95-.462c-1.33-1.405-1.29-3.609.11-4.943 1.4-1.333 3.64-1.297 4.97.107 1.33 1.405 1.26 3.609-.14 4.978-.66.622-1.54.942-2.41.942-.91 0-1.85-.355-2.53-1.084Zm-236.11-12.605c-1.23-1.511-1.05-3.715.46-4.942 1.48-1.262 3.68-1.049 4.94.462a3.488 3.488 0 0 1-.48 4.907c-.62.569-1.44.835-2.2.835-1.02 0-2.03-.462-2.7-1.262h-.02Zm248.33.107c-1.51-1.227-1.72-3.431-.46-4.942 1.23-1.476 3.43-1.689 4.9-.463 1.51 1.263 1.72 3.432.46 4.943a3.457 3.457 0 0 1-2.7 1.262c-.76 0-1.58-.249-2.2-.8Zm-258.95-14.453c-1.08-1.618-.62-3.787.98-4.872 1.61-1.048 3.78-.622 4.83.978 1.08 1.618.62 3.822-.98 4.871a3.48 3.48 0 0 1-1.92.587c-1.12 0-2.24-.569-2.89-1.582l-.02.018Zm269.66.657c-1.61-1.084-2.06-3.253-.98-4.871 1.09-1.618 3.25-2.062 4.87-.978 1.62 1.085 2.03 3.254.98 4.872a3.554 3.554 0 0 1-2.93 1.546 3.59 3.59 0 0 1-1.92-.551l-.02-.018Zm-128.17-16.586c-.18-1.92 1.23-3.645 3.14-3.823a3.456 3.456 0 0 1 3.82 3.112 3.554 3.554 0 0 1-3.14 3.857h-.36a3.497 3.497 0 0 1-3.46-3.146Zm-14.33 2.969c-1.92-.214-3.29-1.956-3.07-3.894a3.508 3.508 0 0 1 3.87-3.075 3.524 3.524 0 0 1 3.07 3.893c-.21 1.778-1.72 3.111-3.46 3.111-.15 0-.29-.035-.43-.035h.02Zm-136.29-2.347c-.91-1.725-.28-3.822 1.44-4.729 1.7-.907 3.82-.284 4.72 1.404.91 1.725.29 3.858-1.4 4.765-.57.284-1.12.427-1.67.427-1.22 0-2.45-.658-3.07-1.849l-.02-.018Zm288.01 1.12c-1.71-.907-2.35-3.04-1.44-4.765a3.543 3.543 0 0 1 4.76-1.44 3.56 3.56 0 0 1 1.44 4.765c-.62 1.191-1.85 1.849-3.11 1.849a3.44 3.44 0 0 1-1.65-.427v.018Zm-120.23-4.693a3.498 3.498 0 0 1 2.09-4.48c1.78-.658 3.82.284 4.48 2.062.65 1.813-.29 3.858-2.1 4.515-.39.143-.76.214-1.19.214-1.44 0-2.77-.907-3.28-2.311Zm-49.27 1.546c-1.78-.693-2.7-2.738-1.99-4.515.73-1.814 2.77-2.703 4.55-1.991 1.77.693 2.7 2.737 1.95 4.515a3.455 3.455 0 0 1-3.25 2.24c-.42 0-.83-.071-1.26-.249Zm65.09-8.889c-1.15-1.546-.8-3.751.73-4.871 1.58-1.155 3.78-.8 4.9.729a3.51 3.51 0 0 1-.76 4.907c-.63.462-1.34.658-2.06.658-1.09 0-2.14-.498-2.79-1.44l-.02.017Zm-81.06-.142c-1.54-1.191-1.81-3.395-.65-4.942 1.19-1.511 3.39-1.813 4.9-.622 1.54 1.191 1.85 3.36.66 4.906a3.49 3.49 0 0 1-2.79 1.369c-.73 0-1.48-.213-2.1-.693l-.02-.018Zm-110.21-4.978a3.479 3.479 0 0 1 1.81-4.586c1.79-.765 3.82.035 4.58 1.813a3.52 3.52 0 0 1-1.81 4.622c-.46.178-.91.285-1.37.285-1.36 0-2.66-.8-3.21-2.134Zm303.58 1.511c-1.77-.728-2.59-2.808-1.81-4.586a3.49 3.49 0 0 1 4.62-1.814c1.74.765 2.59 2.845 1.77 4.623a3.482 3.482 0 0 1-3.18 2.097c-.47 0-.94-.106-1.4-.32Zm-99.06-7.768a3.461 3.461 0 0 1-.48-4.907c1.26-1.511 3.46-1.725 4.94-.498 1.51 1.227 1.67 3.467.46 4.942a3.484 3.484 0 0 1-2.7 1.263c-.77 0-1.58-.249-2.2-.8h-.02Zm-107.29-1.618a3.544 3.544 0 0 1 .57-4.942c1.51-1.192 3.71-.943 4.94.568 1.19 1.512.94 3.716-.57 4.907a3.45 3.45 0 0 1-2.17.765c-1.04 0-2.06-.463-2.77-1.298Zm-103.64-8.64c-.66-1.814.32-3.822 2.13-4.445 1.81-.657 3.82.32 4.44 2.134.66 1.813-.32 3.822-2.13 4.48a4.4 4.4 0 0 1-1.16.177c-1.44 0-2.79-.906-3.28-2.346Zm316.62 1.849c-1.85-.658-2.81-2.667-2.17-4.48a3.514 3.514 0 0 1 4.47-2.134c1.82.623 2.76 2.631 2.14 4.48-.48 1.44-1.85 2.311-3.29 2.311-.39 0-.76-.071-1.15-.177Zm-95.44-5.707c-1.69-.907-2.31-3.04-1.37-4.764.9-1.689 3.04-2.312 4.76-1.369 1.69.906 2.31 3.04 1.37 4.729a3.448 3.448 0 0 1-3.08 1.848c-.57 0-1.12-.177-1.67-.462l-.01.018Zm-127.36-2.702c-.9-1.725-.28-3.822 1.44-4.729s3.82-.285 4.72 1.44c.91 1.724.29 3.858-1.43 4.729a3.5 3.5 0 0 1-1.64.426c-1.26 0-2.48-.657-3.07-1.848l-.02-.018Zm-99.13-10.365a3.499 3.499 0 0 1 2.41-4.302c1.85-.533 3.82.569 4.34 2.418.48 1.849-.57 3.787-2.45 4.302-.32.107-.64.142-.95.142a3.461 3.461 0 0 1-3.35-2.56Zm327.4 2.134a3.514 3.514 0 0 1-2.42-4.303c.52-1.884 2.45-2.933 4.3-2.453 1.85.533 2.93 2.489 2.41 4.338a3.461 3.461 0 0 1-3.35 2.56c-.32 0-.64-.071-.94-.142Zm-93.17-4.765c-1.81-.693-2.74-2.738-2.03-4.515a3.523 3.523 0 0 1 4.52-2.027c1.81.693 2.73 2.738 2.02 4.516a3.49 3.49 0 0 1-3.25 2.275c-.41 0-.83-.107-1.26-.249Zm-142.4-3.431v.036a3.545 3.545 0 0 1 2.06-4.516 3.53 3.53 0 0 1 4.51 2.062c.66 1.814-.28 3.823-2.06 4.48-.41.178-.83.249-1.22.249-1.44 0-2.77-.871-3.29-2.311Zm-96.13-11.093c-.43-1.885.76-3.787 2.66-4.196 1.89-.426 3.79.8 4.16 2.702v-.035c.46 1.884-.75 3.787-2.63 4.195-.28.072-.53.072-.76.072-1.62 0-3.08-1.085-3.43-2.738Zm336.14 2.346c-1.89-.426-3.04-2.275-2.67-4.16a3.539 3.539 0 0 1 4.19-2.666 3.537 3.537 0 0 1 2.67 4.195c-.39 1.618-1.81 2.738-3.43 2.738-.25 0-.48-.035-.76-.107Zm-91.91-4.337c-1.85-.534-2.97-2.454-2.45-4.303a3.557 3.557 0 0 1 4.3-2.488 3.563 3.563 0 0 1 2.45 4.302c-.41 1.582-1.85 2.595-3.39 2.595-.29 0-.59-.035-.91-.106Zm-153.44-3.894a3.493 3.493 0 0 1 2.48-4.302c1.85-.498 3.79.622 4.27 2.489a3.46 3.46 0 0 1-2.49 4.302c-.29.071-.59.107-.91.107-1.54 0-2.93-1.049-3.35-2.596ZM1202 343.964c-.36-1.92.94-3.715 2.84-4.053 1.92-.32 3.71.942 4.05 2.862a3.497 3.497 0 0 1-2.88 4.036c-.18.035-.39.071-.59.071a3.481 3.481 0 0 1-3.42-2.898v-.018Zm343.1 2.56a3.475 3.475 0 0 1-2.83-4.053c.32-1.884 2.13-3.147 4.02-2.844 1.91.32 3.17 2.133 2.87 4.017v.036a3.49 3.49 0 0 1-3.43 2.862c-.21 0-.4 0-.62-.035l-.01.017Zm-91.27-4.231c-1.92-.391-3.14-2.204-2.77-4.089h-.04c.39-1.884 2.21-3.146 4.11-2.773 1.91.356 3.14 2.169 2.78 4.089a3.472 3.472 0 0 1-3.42 2.844c-.25 0-.47-.035-.66-.071Zm-161.52-4.195c-.36-1.92.9-3.751 2.78-4.089 1.89-.356 3.72.907 4.09 2.791.35 1.884-.91 3.716-2.79 4.089-.21.035-.46.035-.66.035a3.464 3.464 0 0 1-3.42-2.844v.018Zm-92.92-11.591c-.25-1.92 1.08-3.68 3-3.929a3.483 3.483 0 0 1 3.92 3.004c.25 1.92-1.08 3.68-3 3.911-.18.036-.32.036-.48.036a3.477 3.477 0 0 1-3.43-3.04l-.01.018Zm348.48 2.737c-1.89-.248-3.25-1.991-3.01-3.928.25-1.92 1.99-3.254 3.93-3.005 1.92.249 3.29 1.991 3.04 3.911a3.54 3.54 0 0 1-3.5 3.04c-.14 0-.29 0-.46-.035v.017Zm-91.08-4.195a3.45 3.45 0 0 1-2.96-3.929 3.478 3.478 0 0 1 3.92-3.004 3.538 3.538 0 0 1 3.01 3.946 3.509 3.509 0 0 1-3.47 3.005c-.14 0-.32 0-.48-.036l-.02.018Zm-167.26-4.445c-.24-1.884 1.12-3.68 3.04-3.928 1.88-.249 3.64 1.084 3.93 3.004.24 1.92-1.12 3.68-3.04 3.911-.14.036-.28.036-.46.036-1.73 0-3.22-1.298-3.47-3.04v.017Zm-92.11-11.626c-.18-1.92 1.26-3.609 3.17-3.822 1.92-.178 3.61 1.262 3.79 3.182.21 1.92-1.23 3.644-3.15 3.822h-.32a3.528 3.528 0 0 1-3.49-3.182Zm352.49 2.862a3.472 3.472 0 0 1-3.15-3.787c.18-1.92 1.89-3.36 3.82-3.182 1.92.178 3.32 1.885 3.15 3.822-.18 1.814-1.67 3.183-3.47 3.183-.1 0-.21 0-.35-.036Zm-91.04-4.16a3.508 3.508 0 0 1-3.18-3.822c.18-1.92 1.89-3.325 3.82-3.147 1.92.142 3.32 1.849 3.15 3.787a3.474 3.474 0 0 1-3.47 3.182h-.32Zm-171.22-4.622c-.18-1.92 1.26-3.645 3.18-3.822a3.543 3.543 0 0 1 3.78 3.217c.18 1.92-1.26 3.609-3.18 3.787h-.31c-1.78 0-3.33-1.369-3.47-3.182Zm-91.6-11.662a3.493 3.493 0 0 1 3.28-3.68c1.92-.143 3.57 1.333 3.68 3.253a3.453 3.453 0 0 1-3.25 3.715h-.21c-1.85 0-3.4-1.44-3.5-3.288Zm355.23 3.004a3.484 3.484 0 0 1-3.29-3.68c.14-1.92 1.79-3.431 3.71-3.289a3.49 3.49 0 0 1 3.29 3.68c-.11 1.849-1.64 3.325-3.5 3.325 0 0-.14-.036-.21-.036Zm-91.13-4.196c-1.92-.106-3.43-1.742-3.32-3.68.11-1.92 1.74-3.431 3.68-3.324 1.91.107 3.42 1.742 3.32 3.68a3.503 3.503 0 0 1-3.5 3.324h-.18Zm-173.69-4.764c-.1-1.92 1.41-3.573 3.32-3.68 1.92-.107 3.57 1.404 3.68 3.324.07 1.956-1.44 3.574-3.32 3.68h-.21c-1.85 0-3.4-1.475-3.47-3.324Zm-91.18-11.627c-.03-1.955 1.48-3.573 3.4-3.609 1.95-.071 3.53 1.476 3.6 3.396.07 1.92-1.47 3.538-3.39 3.609h-.11c-1.88 0-3.46-1.511-3.5-3.396Zm356.88 3.111c-1.91-.071-3.46-1.688-3.39-3.608.04-1.92 1.64-3.467 3.57-3.396 1.96.036 3.46 1.636 3.43 3.609-.07 1.884-1.62 3.395-3.5 3.395h-.11Zm-91.26-4.231a3.469 3.469 0 0 1-3.43-3.573 3.508 3.508 0 0 1 3.57-3.431c1.92.035 3.46 1.653 3.43 3.609-.07 1.884-1.62 3.395-3.5 3.395h-.07Zm-175.02-4.871c-.04-1.92 1.51-3.538 3.42-3.573a3.49 3.49 0 0 1 3.57 3.431 3.492 3.492 0 0 1-3.42 3.573h-.08c-1.88 0-3.46-1.546-3.49-3.431ZM1195 256.213c0-.177.04-.32.04-.462 0-.142-.04-.32-.04-.462 0-1.92 1.58-3.502 3.53-3.502 1.92 0 3.5 1.582 3.5 3.502 0 .142-.03.32-.03.462 0 .142.03.285.03.427 0 1.955-1.58 3.538-3.5 3.538-1.95 0-3.49-1.583-3.53-3.503Zm354-.284a3.495 3.495 0 0 1 3.5-3.502c1.92 0 3.5 1.582 3.5 3.502 0 1.92-1.56 3.502-3.5 3.502-1.92 0-3.5-1.582-3.5-3.502Zm-91.41-.622a3.5 3.5 0 0 1 3.5-3.503c1.92 0 3.5 1.583 3.5 3.503a3.496 3.496 0 0 1-3.5 3.502c-1.95 0-3.5-1.547-3.5-3.502Zm-168.34-1.547c-1.95 0-3.5-1.618-3.5-3.538a3.549 3.549 0 0 1 3.54-3.466c1.91 0 3.49 1.582 3.49 3.537a3.534 3.534 0 0 1-3.53 3.467Zm259.56-15.271c-.07-1.92 1.47-3.538 3.39-3.573 1.92-.072 3.53 1.475 3.6 3.395.04 1.92-1.5 3.538-3.39 3.609h-.1c-1.89 0-3.47-1.511-3.5-3.431Zm-350.17 2.809c-1.92-.036-3.43-1.654-3.39-3.609a3.532 3.532 0 0 1 3.6-3.396c1.92.071 3.47 1.689 3.4 3.609-.04 1.885-1.62 3.396-3.5 3.396h-.11Zm258.71-3.396c-.04-1.92 1.47-3.538 3.39-3.609 1.95-.035 3.57 1.476 3.6 3.396.04 1.955-1.47 3.573-3.39 3.609h-.11c-1.88 0-3.42-1.511-3.49-3.396Zm-167.87-1.635c-1.92-.071-3.43-1.689-3.36-3.645a3.51 3.51 0 0 1 3.65-3.36 3.491 3.491 0 0 1 3.35 3.609 3.493 3.493 0 0 1-3.5 3.396h-.14Zm258.58-15.129a3.53 3.53 0 0 1 3.32-3.716 3.498 3.498 0 0 1 3.68 3.289c.11 1.956-1.37 3.609-3.29 3.716h-.21c-1.85 0-3.39-1.44-3.5-3.289Zm-91.44-.622a3.466 3.466 0 0 1 3.28-3.68c1.92-.143 3.57 1.333 3.71 3.288a3.486 3.486 0 0 1-3.28 3.68s-.14.036-.21.036c-1.85 0-3.4-1.44-3.5-3.324Zm-257.36 3.288a3.475 3.475 0 0 1-3.28-3.68c.1-1.92 1.77-3.431 3.71-3.288a3.475 3.475 0 0 1 3.28 3.68c-.1 1.848-1.68 3.324-3.49 3.324 0 0-.15 0-.22-.036Zm91.07-5.048c-1.95-.107-3.39-1.778-3.25-3.716.15-1.92 1.78-3.396 3.75-3.253a3.493 3.493 0 0 1 3.22 3.751c-.11 1.813-1.66 3.253-3.47 3.253-.1 0-.18 0-.25-.035Zm256.47-14.987a3.51 3.51 0 0 1 3.18-3.822 3.521 3.521 0 0 1 3.78 3.182c.18 1.92-1.22 3.644-3.14 3.822h-.32a3.516 3.516 0 0 1-3.5-3.182Zm-91.59-.551c-.17-1.92 1.23-3.645 3.15-3.822 1.92-.214 3.64 1.191 3.85 3.111a3.554 3.554 0 0 1-3.14 3.857h-.36c-1.77 0-3.28-1.333-3.5-3.146Zm-254.76 3.111a3.496 3.496 0 0 1-3.18-3.787c.18-1.92 1.89-3.36 3.82-3.182 1.92.178 3.32 1.884 3.15 3.822a3.473 3.473 0 0 1-3.47 3.182c-.1 0-.21 0-.32-.035Zm91.3-5.013a3.527 3.527 0 0 1-3.1-3.894c.21-1.884 1.95-3.289 3.87-3.075 1.92.213 3.28 1.955 3.07 3.893-.21 1.778-1.7 3.111-3.46 3.111-.14 0-.29-.035-.39-.035h.01Zm253.15-14.809c-.25-1.92 1.12-3.68 3.04-3.929 1.88-.249 3.67 1.12 3.89 3.004v.036c.28 1.884-1.09 3.644-3 3.893-.15.036-.29.036-.43.036a3.555 3.555 0 0 1-3.5-3.04Zm-91.8-.498c-.28-1.92 1.01-3.716 2.95-4a3.512 3.512 0 0 1 3.98 2.933h-.04c.32 1.885-1.01 3.68-2.95 3.982-.17 0-.35.036-.48.036-1.72 0-3.21-1.262-3.46-2.969v.018Zm-250.91 2.898c-1.92-.249-3.25-1.991-3-3.929.25-1.92 1.99-3.254 3.93-3.005 1.88.214 3.25 1.991 3 3.894-.25 1.777-1.73 3.075-3.47 3.075-.14 0-.28 0-.46-.035Zm91.77-4.978c-1.89-.32-3.18-2.133-2.88-4.036a3.485 3.485 0 0 1 4.03-2.862 3.52 3.52 0 0 1 2.88 4.018c-.29 1.724-1.74 2.898-3.43 2.898-.21 0-.39 0-.59-.036l-.01.018Zm248.4-14.631c-.32-1.885.94-3.716 2.82-4.018a3.5 3.5 0 0 1 4.05 2.862c.32 1.885-.94 3.716-2.87 4.018-.18.036-.39.071-.59.071-1.63 0-3.14-1.227-3.43-2.933h.02Zm-92.31-.32c-.43-1.885.8-3.751 2.7-4.16 1.88-.427 3.74.8 4.12 2.702a3.478 3.478 0 0 1-2.67 4.16c-.25.036-.5.071-.73.071a3.5 3.5 0 0 1-3.42-2.773Zm-245.39 2.595a3.543 3.543 0 0 1-2.88-4.053 3.5 3.5 0 0 1 4.05-2.844c1.89.32 3.18 2.133 2.84 4.017a3.448 3.448 0 0 1-3.42 2.898c-.22 0-.39 0-.59-.035v.017Zm92.53-4.871c-1.88-.426-3.04-2.311-2.59-4.195.42-1.885 2.3-3.04 4.19-2.596 1.88.462 3.03 2.347 2.59 4.196a3.498 3.498 0 0 1-3.39 2.702c-.29 0-.57-.036-.8-.107Zm241.85-14.418c-.43-1.848.76-3.751 2.66-4.124 1.89-.462 3.75.729 4.16 2.631.43 1.885-.76 3.787-2.66 4.196a6.04 6.04 0 0 1-.77.071c-1.61 0-3.04-1.12-3.39-2.774Zm-93.27 0c-.57-1.813.48-3.786 2.3-4.337 1.85-.551 3.82.497 4.37 2.346a3.47 3.47 0 0 1-2.31 4.338c-.35.107-.69.178-1.01.178a3.49 3.49 0 0 1-3.35-2.525Zm-237.95 2.063a3.503 3.503 0 0 1-2.66-4.16 3.493 3.493 0 0 1 4.15-2.667c1.89.427 3.11 2.276 2.67 4.16-.36 1.636-1.8 2.756-3.39 2.756-.25 0-.48-.036-.77-.107v.018Zm93.79-4.551c-1.81-.605-2.8-2.596-2.2-4.409a3.518 3.518 0 0 1 4.44-2.24c1.81.622 2.79 2.595 2.2 4.444-.48 1.476-1.85 2.382-3.32 2.382-.36 0-.73-.035-1.12-.177Zm138.35-13.583c-.77-1.777.07-3.857 1.81-4.586 1.78-.765 3.85.035 4.62 1.813.73 1.778-.07 3.858-1.85 4.622-.46.178-.91.285-1.37.285-1.36 0-2.66-.8-3.21-2.134Zm94.83-.693c-.47-1.849.59-3.787 2.46-4.302 1.84-.534 3.78.551 4.29 2.418.54 1.848-.56 3.786-2.41 4.302-.32.106-.64.142-.94.142-1.55 0-2.93-1.013-3.4-2.56Zm-322.92 1.813a3.498 3.498 0 0 1-2.41-4.302c.49-1.884 2.45-2.969 4.29-2.453 1.85.533 2.93 2.453 2.42 4.338a3.474 3.474 0 0 1-3.36 2.56c-.32 0-.62-.072-.94-.143Zm95.81-3.946c-1.74-.8-2.48-2.898-1.63-4.658.84-1.742 2.9-2.489 4.65-1.653 1.74.8 2.49 2.897 1.69 4.657-.64 1.263-1.88 1.991-3.18 1.991-.5 0-1.01-.106-1.51-.355l-.02.018Zm124.5-12.214c-1.05-1.653-.53-3.786 1.08-4.835 1.69-1.014 3.82-.534 4.83 1.12 1.05 1.653.54 3.822-1.08 4.835-.59.356-1.22.534-1.85.534-1.15 0-2.31-.605-2.96-1.654h-.02Zm97.46-2.133c-.63-1.813.32-3.822 2.14-4.444 1.84-.623 3.81.32 4.47 2.133a3.54 3.54 0 0 1-2.17 4.48c-.39.107-.76.178-1.15.178a3.49 3.49 0 0 1-3.29-2.347Zm-312.78 1.547c-1.81-.623-2.77-2.631-2.13-4.48.62-1.814 2.63-2.774 4.48-2.134 1.81.623 2.77 2.631 2.13 4.48-.54 1.44-1.85 2.347-3.32 2.347-.36 0-.77-.071-1.16-.213Zm99.05-2.596c-1.58-1.12-1.96-3.289-.84-4.907a3.483 3.483 0 0 1 4.87-.835 3.485 3.485 0 0 1 .83 4.871 3.402 3.402 0 0 1-2.82 1.511c-.69 0-1.4-.213-2.02-.622l-.02-.018Zm106.06-10.044c-1.33-1.405-1.3-3.609.1-4.943a3.454 3.454 0 0 1 4.94.072c1.33 1.404 1.3 3.608-.1 4.942-.66.658-1.55.978-2.42.978-.91 0-1.81-.356-2.52-1.049Zm-95.16-3.609a3.499 3.499 0 0 1 .25-4.942 3.525 3.525 0 0 1 4.97.284c1.3 1.44 1.16 3.644-.28 4.942-.66.587-1.51.907-2.31.907-.98 0-1.92-.427-2.63-1.191Zm196.57-1.369a3.48 3.48 0 0 1 1.81-4.587c1.77-.764 3.85.036 4.61 1.814.77 1.742-.07 3.822-1.81 4.586-.46.214-.94.32-1.4.32-1.37 0-2.66-.8-3.21-2.133Zm-300.41 1.227a3.509 3.509 0 0 1-1.81-4.623c.76-1.777 2.82-2.595 4.62-1.813 1.79.764 2.59 2.844 1.81 4.622-.59 1.298-1.88 2.098-3.22 2.098-.46 0-.94-.107-1.4-.284Zm186.1-6.578c-1.63-.978-2.16-3.147-1.19-4.8.98-1.636 3.15-2.205 4.8-1.191 1.69.977 2.2 3.146 1.19 4.8-.62 1.084-1.81 1.706-2.97 1.706-.62 0-1.26-.177-1.81-.533l-.02.018Zm-68.42-3.858c-.84-1.742-.18-3.822 1.58-4.693 1.74-.836 3.85-.143 4.69 1.582.87 1.742.14 3.858-1.58 4.693-.48.25-1.02.391-1.55.391-1.3 0-2.56-.729-3.14-1.955v-.018Zm53.33-2.56c-1.85-.498-2.97-2.418-2.49-4.267a3.542 3.542 0 0 1 4.3-2.489c1.85.534 2.97 2.418 2.45 4.303-.43 1.582-1.81 2.595-3.36 2.595-.32 0-.62-.035-.9-.142Zm-37.14-3.858a3.508 3.508 0 0 1 2.77-4.089c1.89-.355 3.75.871 4.09 2.81.39 1.884-.87 3.715-2.77 4.088-.21.036-.46.071-.66.071-1.63 0-3.11-1.19-3.43-2.88Zm159.08.142c-.91-1.706-.29-3.857 1.44-4.764 1.68-.907 3.81-.249 4.72 1.44.9 1.707.28 3.858-1.44 4.764-.53.285-1.08.427-1.63.427-1.26 0-2.45-.693-3.08-1.849l-.01-.018Zm-138.39 1.405c-1.91-.071-3.46-1.689-3.39-3.609.07-1.92 1.67-3.467 3.61-3.396 1.91.036 3.46 1.654 3.39 3.574-.07 1.92-1.62 3.43-3.5 3.43h-.11Zm-147.22-.587a3.475 3.475 0 0 1-1.44-4.729c.9-1.706 3.03-2.346 4.76-1.44 1.68.907 2.31 3.04 1.4 4.73-.62 1.19-1.81 1.848-3.07 1.848-.57 0-1.12-.142-1.64-.427l-.01.018Zm276.78-15.538a3.551 3.551 0 0 1 .98-4.87 3.539 3.539 0 0 1 4.86.977c1.05 1.618.64 3.787-.97 4.871-.61.391-1.26.587-1.92.587-1.16 0-2.24-.569-2.93-1.582l-.02.017Zm-268.12.392a3.533 3.533 0 0 1-.94-4.872c1.05-1.617 3.22-2.026 4.83-.942 1.62 1.05 2.06 3.218.98 4.836a3.485 3.485 0 0 1-2.9 1.582c-.65 0-1.36-.213-1.95-.604h-.02Zm257.94-14.116c-1.26-1.476-1.04-3.68.43-4.942a3.569 3.569 0 0 1 4.97.462 3.518 3.518 0 0 1-.48 4.942c-.62.57-1.44.8-2.23.8-.98 0-1.99-.426-2.67-1.262h-.02Zm-247.76-.107a3.517 3.517 0 0 1-.46-4.977c1.26-1.476 3.42-1.636 4.93-.427 1.48 1.262 1.67 3.467.47 4.942a3.56 3.56 0 0 1-2.7 1.262c-.8 0-1.62-.284-2.24-.8Zm236.11-12.355c-1.44-1.334-1.47-3.538-.14-4.942 1.33-1.405 3.54-1.476 4.94-.143 1.4 1.334 1.47 3.574.14 4.978a3.639 3.639 0 0 1-2.56 1.085c-.83 0-1.72-.32-2.38-.978Zm-224.48-.658c-1.33-1.404-1.26-3.644.14-4.942 1.41-1.334 3.64-1.298 4.94.106 1.33 1.44 1.3 3.645-.11 4.978-.69.622-1.58.942-2.41.942-.94 0-1.85-.355-2.56-1.084Zm211.39-10.258c-1.54-1.155-1.84-3.324-.72-4.906 1.15-1.547 3.35-1.885 4.9-.73 1.58 1.156 1.88 3.325.76 4.907a3.541 3.541 0 0 1-2.82 1.405c-.73 0-1.48-.214-2.1-.658l-.02-.018ZM1273.92 34.4c-1.15-1.547-.8-3.751.73-4.871 1.58-1.156 3.78-.8 4.9.729 1.16 1.582.8 3.786-.76 4.906-.62.463-1.33.658-2.06.658-1.08 0-2.13-.498-2.79-1.44l-.02.018Zm183.98-7.947c-1.69-.942-2.31-3.075-1.37-4.764s3.07-2.311 4.76-1.369a3.483 3.483 0 0 1 1.37 4.764 3.519 3.519 0 0 1-3.08 1.778c-.57 0-1.15-.142-1.67-.426l-.01.017Zm-169.5-1.777c-.94-1.725-.36-3.823 1.37-4.765 1.66-.942 3.81-.32 4.75 1.369.91 1.689.32 3.822-1.4 4.764-.53.285-1.08.427-1.69.427-1.22 0-2.41-.622-3.03-1.778v-.017Zm154.15-5.6c-1.77-.694-2.66-2.774-1.92-4.552.73-1.777 2.77-2.666 4.55-1.92h.04c1.77.73 2.62 2.774 1.88 4.587-.57 1.333-1.85 2.169-3.22 2.169-.46 0-.9-.107-1.33-.284ZM1303.97 16.8a3.553 3.553 0 0 1 1.96-4.551 3.51 3.51 0 0 1 4.54 1.955c.7 1.778-.17 3.823-1.95 4.552-.41.177-.87.248-1.3.248-1.4 0-2.7-.835-3.25-2.204Zm122.47-3.218c-1.88-.533-2.93-2.453-2.45-4.338a3.532 3.532 0 0 1 4.34-2.417c1.84.533 2.93 2.453 2.41 4.302-.42 1.582-1.81 2.56-3.36 2.56-.31 0-.62-.036-.94-.107Zm-106.06-2.702c-.49-1.849.59-3.787 2.45-4.302a3.47 3.47 0 0 1 4.3 2.453c.53 1.849-.57 3.787-2.45 4.302-.28.071-.59.107-.9.107a3.547 3.547 0 0 1-3.4-2.56Zm89.39-1.084c-1.92-.32-3.18-2.134-2.86-4.036.35-1.92 2.13-3.182 4.05-2.862 1.88.355 3.18 2.133 2.84 4.053a3.459 3.459 0 0 1-3.43 2.898c-.21 0-.39-.036-.59-.071l-.01.018Zm-72.39-3.005c-.32-1.92.94-3.715 2.88-4.018 1.88-.32 3.71.943 4.03 2.88.32 1.885-.98 3.716-2.88 4.018-.21.036-.39.071-.59.071-1.68 0-3.14-1.226-3.42-2.933l-.02-.018Zm55.39.871c-1.95-.142-3.39-1.813-3.21-3.75.17-1.92 1.84-3.36 3.76-3.219 1.92.178 3.36 1.85 3.18 3.787a3.467 3.467 0 0 1-3.46 3.218c-.11 0-.18 0-.29-.036h.02Zm-38.11-3.289c-.14-1.92 1.3-3.609 3.21-3.75 1.92-.143 3.61 1.297 3.75 3.217.18 1.92-1.3 3.609-3.21 3.751 0 0-.18.036-.29.036-1.77 0-3.32-1.405-3.46-3.254Zm17.46-.906c0-1.92 1.58-3.467 3.5-3.467 1.91 0 3.49 1.582 3.49 3.502 0 1.92-1.58 3.502-3.49 3.502-1.92-.035-3.5-1.582-3.5-3.537Z"/></g><defs><clipPath id="a"><path fill="#fff" d="M803 0h341v512H803z"/></clipPath><clipPath id="b"><path fill="#fff" d="M0 0h341v512H0z"/></clipPath><clipPath id="c"><path fill="#fff" d="M391 0h361v512H391z"/></clipPath><clipPath id="d"><path fill="#fff" d="M1195 0h361v512h-361z"/></clipPath></defs></svg>